<?xml version="1.0" encoding="UTF-8" standalone="no"?>
<!DOCTYPE svg PUBLIC "-//W3C//DTD SVG 1.1//EN"
 "http://www.w3.org/Graphics/SVG/1.1/DTD/svg11.dtd">
<!-- Generated by graphviz version 2.47.3 (20210619.1520)
 -->
<!-- Title: dependencies Pages: 1 -->
<svg width="2453pt" height="174pt"
 viewBox="0.00 0.00 2453.00 173.80" xmlns="http://www.w3.org/2000/svg" xmlns:xlink="http://www.w3.org/1999/xlink">
<g id="graph0" class="graph" transform="scale(1 1) rotate(0) translate(4 169.8)">
<title>dependencies</title>
<polygon fill="white" stroke="transparent" points="-4,4 -4,-169.8 2449,-169.8 2449,4 -4,4"/>
<text text-anchor="middle" x="1222.5" y="-8.2" font-family="sans-serif" font-size="14.00">dependencies</text>
<g id="clust1" class="cluster">
<title>cluster_DashboardModule</title>
<polygon fill="none" stroke="black" stroke-dasharray="1,5" points="8,-32.8 8,-157.8 2437,-157.8 2437,-32.8 8,-32.8"/>
</g>
<g id="clust2" class="cluster">
<title>cluster_DashboardModule_declarations</title>
<polygon fill="none" stroke="black" points="527,-40.8 527,-92.8 2429,-92.8 2429,-40.8 527,-40.8"/>
</g>
<g id="clust15" class="cluster">
<title>cluster_DashboardModule_imports</title>
<polygon fill="none" stroke="black" points="230,-40.8 230,-92.8 519,-92.8 519,-40.8 230,-40.8"/>
</g>
<g id="clust18" class="cluster">
<title>cluster_DashboardModule_providers</title>
<polygon fill="none" stroke="black" points="16,-40.8 16,-92.8 222,-92.8 222,-40.8 16,-40.8"/>
</g>
<!-- AddMemberDialog -->
<g id="node1" class="node">
<title>AddMemberDialog</title>
<polygon fill="#ffffb3" stroke="black" points="2420.63,-84.8 2295.37,-84.8 2295.37,-48.8 2420.63,-48.8 2420.63,-84.8"/>
<text text-anchor="middle" x="2358" y="-62.6" font-family="Times,serif" font-size="14.00">AddMemberDialog</text>
</g>
<!-- DashboardModule -->
<g id="node13" class="node">
<title>DashboardModule</title>
<polygon fill="#8dd3c7" stroke="black" points="1308.19,-149.8 1305.19,-153.8 1284.19,-153.8 1281.19,-149.8 1187.81,-149.8 1187.81,-113.8 1308.19,-113.8 1308.19,-149.8"/>
<text text-anchor="middle" x="1248" y="-127.6" font-family="Times,serif" font-size="14.00">DashboardModule</text>
</g>
<!-- AddMemberDialog&#45;&gt;DashboardModule -->
<g id="edge1" class="edge">
<title>AddMemberDialog&#45;&gt;DashboardModule</title>
<path fill="none" stroke="black" d="M2358,-85.12C2358,-108.46 2358,-145.8 2358,-145.8 2358,-145.8 1318.47,-145.8 1318.47,-145.8"/>
<polygon fill="black" stroke="black" points="1318.47,-142.3 1308.47,-145.8 1318.47,-149.3 1318.47,-142.3"/>
</g>
<!-- CreateProjectMembersPage -->
<g id="node2" class="node">
<title>CreateProjectMembersPage</title>
<polygon fill="#ffffb3" stroke="black" points="2277.27,-84.8 2104.73,-84.8 2104.73,-48.8 2277.27,-48.8 2277.27,-84.8"/>
<text text-anchor="middle" x="2191" y="-62.6" font-family="Times,serif" font-size="14.00">CreateProjectMembersPage</text>
</g>
<!-- CreateProjectMembersPage&#45;&gt;DashboardModule -->
<g id="edge2" class="edge">
<title>CreateProjectMembersPage&#45;&gt;DashboardModule</title>
<path fill="none" stroke="black" d="M2191,-85.09C2191,-107.01 2191,-140.8 2191,-140.8 2191,-140.8 1318.42,-140.8 1318.42,-140.8"/>
<polygon fill="black" stroke="black" points="1318.42,-137.3 1308.42,-140.8 1318.42,-144.3 1318.42,-137.3"/>
</g>
<!-- CreateProjectPage -->
<g id="node3" class="node">
<title>CreateProjectPage</title>
<polygon fill="#ffffb3" stroke="black" points="2086.9,-84.8 1967.1,-84.8 1967.1,-48.8 2086.9,-48.8 2086.9,-84.8"/>
<text text-anchor="middle" x="2027" y="-62.6" font-family="Times,serif" font-size="14.00">CreateProjectPage</text>
</g>
<!-- CreateProjectPage&#45;&gt;DashboardModule -->
<g id="edge3" class="edge">
<title>CreateProjectPage&#45;&gt;DashboardModule</title>
<path fill="none" stroke="black" d="M2027,-84.83C2027,-105.57 2027,-136.8 2027,-136.8 2027,-136.8 1318.16,-136.8 1318.16,-136.8"/>
<polygon fill="black" stroke="black" points="1318.16,-133.3 1308.16,-136.8 1318.16,-140.3 1318.16,-133.3"/>
</g>
<!-- CreateWorkspacePage -->
<g id="node4" class="node">
<title>CreateWorkspacePage</title>
<polygon fill="#ffffb3" stroke="black" points="1949.21,-84.8 1806.79,-84.8 1806.79,-48.8 1949.21,-48.8 1949.21,-84.8"/>
<text text-anchor="middle" x="1878" y="-62.6" font-family="Times,serif" font-size="14.00">CreateWorkspacePage</text>
</g>
<!-- CreateWorkspacePage&#45;&gt;DashboardModule -->
<g id="edge4" class="edge">
<title>CreateWorkspacePage&#45;&gt;DashboardModule</title>
<path fill="none" stroke="black" d="M1878,-84.91C1878,-104.14 1878,-131.8 1878,-131.8 1878,-131.8 1318.12,-131.8 1318.12,-131.8"/>
<polygon fill="black" stroke="black" points="1318.12,-128.3 1308.12,-131.8 1318.12,-135.3 1318.12,-128.3"/>
</g>
<!-- EditProjectMembersPage -->
<g id="node5" class="node">
<title>EditProjectMembersPage</title>
<polygon fill="#ffffb3" stroke="black" points="1788.57,-84.8 1629.43,-84.8 1629.43,-48.8 1788.57,-48.8 1788.57,-84.8"/>
<text text-anchor="middle" x="1709" y="-62.6" font-family="Times,serif" font-size="14.00">EditProjectMembersPage</text>
</g>
<!-- EditProjectMembersPage&#45;&gt;DashboardModule -->
<g id="edge5" class="edge">
<title>EditProjectMembersPage&#45;&gt;DashboardModule</title>
<path fill="none" stroke="black" d="M1709,-85.1C1709,-103.07 1709,-127.8 1709,-127.8 1709,-127.8 1318.27,-127.8 1318.27,-127.8"/>
<polygon fill="black" stroke="black" points="1318.27,-124.3 1308.27,-127.8 1318.27,-131.3 1318.27,-124.3"/>
</g>
<!-- EditProjectPage -->
<g id="node6" class="node">
<title>EditProjectPage</title>
<polygon fill="#ffffb3" stroke="black" points="1611.2,-84.8 1504.8,-84.8 1504.8,-48.8 1611.2,-48.8 1611.2,-84.8"/>
<text text-anchor="middle" x="1558" y="-62.6" font-family="Times,serif" font-size="14.00">EditProjectPage</text>
</g>
<!-- EditProjectPage&#45;&gt;DashboardModule -->
<g id="edge6" class="edge">
<title>EditProjectPage&#45;&gt;DashboardModule</title>
<path fill="none" stroke="black" d="M1558,-84.83C1558,-101.2 1558,-122.8 1558,-122.8 1558,-122.8 1318.14,-122.8 1318.14,-122.8"/>
<polygon fill="black" stroke="black" points="1318.14,-119.3 1308.14,-122.8 1318.14,-126.3 1318.14,-119.3"/>
</g>
<!-- EditWorkspacePage -->
<g id="node7" class="node">
<title>EditWorkspacePage</title>
<polygon fill="#ffffb3" stroke="black" points="1486.51,-84.8 1357.49,-84.8 1357.49,-48.8 1486.51,-48.8 1486.51,-84.8"/>
<text text-anchor="middle" x="1422" y="-62.6" font-family="Times,serif" font-size="14.00">EditWorkspacePage</text>
</g>
<!-- EditWorkspacePage&#45;&gt;DashboardModule -->
<g id="edge7" class="edge">
<title>EditWorkspacePage&#45;&gt;DashboardModule</title>
<path fill="none" stroke="black" d="M1422,-84.99C1422,-99.98 1422,-118.8 1422,-118.8 1422,-118.8 1318.37,-118.8 1318.37,-118.8"/>
<polygon fill="black" stroke="black" points="1318.37,-115.3 1308.37,-118.8 1318.37,-122.3 1318.37,-115.3"/>
</g>
<!-- IntegrationGithubComponent -->
<g id="node8" class="node">
<title>IntegrationGithubComponent</title>
<polygon fill="#ffffb3" stroke="black" points="1338.64,-84.8 1157.36,-84.8 1157.36,-48.8 1338.64,-48.8 1338.64,-84.8"/>
<text text-anchor="middle" x="1248" y="-62.6" font-family="Times,serif" font-size="14.00">IntegrationGithubComponent</text>
</g>
<!-- IntegrationGithubComponent&#45;&gt;DashboardModule -->
<g id="edge8" class="edge">
<title>IntegrationGithubComponent&#45;&gt;DashboardModule</title>
<path fill="none" stroke="black" d="M1248,-84.91C1248,-84.91 1248,-103.79 1248,-103.79"/>
<polygon fill="black" stroke="black" points="1244.5,-103.79 1248,-113.79 1251.5,-103.79 1244.5,-103.79"/>
</g>
<!-- MemberListComponent -->
<g id="node9" class="node">
<title>MemberListComponent</title>
<polygon fill="#ffffb3" stroke="black" points="1139.04,-84.8 988.96,-84.8 988.96,-48.8 1139.04,-48.8 1139.04,-84.8"/>
<text text-anchor="middle" x="1064" y="-62.6" font-family="Times,serif" font-size="14.00">MemberListComponent</text>
</g>
<!-- MemberListComponent&#45;&gt;DashboardModule -->
<g id="edge9" class="edge">
<title>MemberListComponent&#45;&gt;DashboardModule</title>
<path fill="none" stroke="black" d="M1064,-84.99C1064,-99.98 1064,-118.8 1064,-118.8 1064,-118.8 1177.75,-118.8 1177.75,-118.8"/>
<polygon fill="black" stroke="black" points="1177.75,-122.3 1187.75,-118.8 1177.75,-115.3 1177.75,-122.3"/>
</g>
<!-- ProjectsListPage -->
<g id="node10" class="node">
<title>ProjectsListPage</title>
<polygon fill="#ffffb3" stroke="black" points="971.09,-84.8 860.91,-84.8 860.91,-48.8 971.09,-48.8 971.09,-84.8"/>
<text text-anchor="middle" x="916" y="-62.6" font-family="Times,serif" font-size="14.00">ProjectsListPage</text>
</g>
<!-- ProjectsListPage&#45;&gt;DashboardModule -->
<g id="edge10" class="edge">
<title>ProjectsListPage&#45;&gt;DashboardModule</title>
<path fill="none" stroke="black" d="M916,-84.83C916,-101.2 916,-122.8 916,-122.8 916,-122.8 1177.88,-122.8 1177.88,-122.8"/>
<polygon fill="black" stroke="black" points="1177.88,-126.3 1187.88,-122.8 1177.88,-119.3 1177.88,-126.3"/>
</g>
<!-- ViewOptionsComponent -->
<g id="node11" class="node">
<title>ViewOptionsComponent</title>
<polygon fill="#ffffb3" stroke="black" points="842.98,-84.8 687.02,-84.8 687.02,-48.8 842.98,-48.8 842.98,-84.8"/>
<text text-anchor="middle" x="765" y="-62.6" font-family="Times,serif" font-size="14.00">ViewOptionsComponent</text>
</g>
<!-- ViewOptionsComponent&#45;&gt;DashboardModule -->
<g id="edge11" class="edge">
<title>ViewOptionsComponent&#45;&gt;DashboardModule</title>
<path fill="none" stroke="black" d="M765,-85.1C765,-103.07 765,-127.8 765,-127.8 765,-127.8 1177.8,-127.8 1177.8,-127.8"/>
<polygon fill="black" stroke="black" points="1177.8,-131.3 1187.8,-127.8 1177.8,-124.3 1177.8,-131.3"/>
</g>
<!-- WorkspacesListPage -->
<g id="node12" class="node">
<title>WorkspacesListPage</title>
<polygon fill="#ffffb3" stroke="black" points="668.9,-84.8 535.1,-84.8 535.1,-48.8 668.9,-48.8 668.9,-84.8"/>
<text text-anchor="middle" x="602" y="-62.6" font-family="Times,serif" font-size="14.00">WorkspacesListPage</text>
</g>
<!-- WorkspacesListPage&#45;&gt;DashboardModule -->
<g id="edge12" class="edge">
<title>WorkspacesListPage&#45;&gt;DashboardModule</title>
<path fill="none" stroke="black" d="M602,-84.91C602,-104.14 602,-131.8 602,-131.8 602,-131.8 1177.81,-131.8 1177.81,-131.8"/>
<polygon fill="black" stroke="black" points="1177.81,-135.3 1187.81,-131.8 1177.81,-128.3 1177.81,-135.3"/>
</g>
<!-- DashboardRoutingModule -->
<g id="node14" class="node">
<title>DashboardRoutingModule</title>
<polygon fill="#8dd3c7" stroke="black" points="510.81,-84.8 507.81,-88.8 486.81,-88.8 483.81,-84.8 345.19,-84.8 345.19,-48.8 510.81,-48.8 510.81,-84.8"/>
<text text-anchor="middle" x="428" y="-62.6" font-family="Times,serif" font-size="14.00">DashboardRoutingModule</text>
</g>
<!-- DashboardRoutingModule&#45;&gt;DashboardModule -->
<g id="edge13" class="edge">
<title>DashboardRoutingModule&#45;&gt;DashboardModule</title>
<path fill="none" stroke="black" d="M428,-84.83C428,-105.57 428,-136.8 428,-136.8 428,-136.8 1177.7,-136.8 1177.7,-136.8"/>
<polygon fill="black" stroke="black" points="1177.7,-140.3 1187.7,-136.8 1177.7,-133.3 1177.7,-140.3"/>
</g>
<!-- MainModule -->
<g id="node15" class="node">
<title>MainModule</title>
<polygon fill="#8dd3c7" stroke="black" points="327.6,-84.8 324.6,-88.8 303.6,-88.8 300.6,-84.8 238.4,-84.8 238.4,-48.8 327.6,-48.8 327.6,-84.8"/>
<text text-anchor="middle" x="283" y="-62.6" font-family="Times,serif" font-size="14.00">MainModule</text>
</g>
<!-- MainModule&#45;&gt;DashboardModule -->
<g id="edge14" class="edge">
<title>MainModule&#45;&gt;DashboardModule</title>
<path fill="none" stroke="black" d="M283,-85.09C283,-107.01 283,-140.8 283,-140.8 283,-140.8 1177.63,-140.8 1177.63,-140.8"/>
<polygon fill="black" stroke="black" points="1177.63,-144.3 1187.63,-140.8 1177.63,-137.3 1177.63,-144.3"/>
</g>
<!-- GitIntegrationService -->
<g id="node16" class="node">
<title>GitIntegrationService</title>
<ellipse fill="#fdb462" stroke="black" cx="119" cy="-66.8" rx="94.9" ry="18"/>
<text text-anchor="middle" x="119" y="-62.6" font-family="Times,serif" font-size="14.00">GitIntegrationService</text>
</g>
<!-- GitIntegrationService&#45;&gt;DashboardModule -->
<g id="edge15" class="edge">
<title>GitIntegrationService&#45;&gt;DashboardModule</title>
<path fill="none" stroke="black" d="M119,-85.12C119,-108.46 119,-145.8 119,-145.8 119,-145.8 1177.7,-145.8 1177.7,-145.8"/>
<polygon fill="black" stroke="black" points="1177.7,-149.3 1187.7,-145.8 1177.7,-142.3 1177.7,-149.3"/>
</g>
</g>
</svg>
