<?xml version="1.0" encoding="UTF-8" standalone="no"?>
<!DOCTYPE svg PUBLIC "-//W3C//DTD SVG 1.1//EN"
 "http://www.w3.org/Graphics/SVG/1.1/DTD/svg11.dtd">
<!-- Generated by graphviz version 3.0.0 (20220226.1711)
 -->
<!-- Title: dependencies Pages: 1 -->
<svg width="2453pt" height="174pt"
 viewBox="0.00 0.00 2453.00 173.80" xmlns="http://www.w3.org/2000/svg" xmlns:xlink="http://www.w3.org/1999/xlink">
<g id="graph0" class="graph" transform="scale(1 1) rotate(0) translate(4 169.8)">
<title>dependencies</title>
<polygon fill="white" stroke="transparent" points="-4,4 -4,-169.8 2449,-169.8 2449,4 -4,4"/>
<text text-anchor="middle" x="1222.5" y="-8.2" font-family="sans-serif" font-size="14.00">dependencies</text>
<g id="clust1" class="cluster">
<title>cluster_DashboardModule</title>
<polygon fill="none" stroke="black" stroke-dasharray="1,5" points="8,-32.8 8,-157.8 2437,-157.8 2437,-32.8 8,-32.8"/>
</g>
<g id="clust15" class="cluster">
<title>cluster_DashboardModule_imports</title>
<polygon fill="none" stroke="black" points="2140,-40.8 2140,-92.8 2429,-92.8 2429,-40.8 2140,-40.8"/>
</g>
<g id="clust2" class="cluster">
<title>cluster_DashboardModule_declarations</title>
<polygon fill="none" stroke="black" points="230,-40.8 230,-92.8 2132,-92.8 2132,-40.8 230,-40.8"/>
</g>
<g id="clust18" class="cluster">
<title>cluster_DashboardModule_providers</title>
<polygon fill="none" stroke="black" points="16,-40.8 16,-92.8 222,-92.8 222,-40.8 16,-40.8"/>
</g>
<!-- AddMemberDialog -->
<g id="node1" class="node">
<title>AddMemberDialog</title>
<polygon fill="#ffffb3" stroke="black" points="2123.64,-84.8 1998.36,-84.8 1998.36,-48.8 2123.64,-48.8 2123.64,-84.8"/>
<text text-anchor="middle" x="2061" y="-62.6" font-family="Times,serif" font-size="14.00">AddMemberDialog</text>
</g>
<!-- DashboardModule -->
<g id="node13" class="node">
<title>DashboardModule</title>
<polygon fill="#8dd3c7" stroke="black" points="1321.2,-149.8 1318.2,-153.8 1297.2,-153.8 1294.2,-149.8 1200.8,-149.8 1200.8,-113.8 1321.2,-113.8 1321.2,-149.8"/>
<text text-anchor="middle" x="1261" y="-127.6" font-family="Times,serif" font-size="14.00">DashboardModule</text>
</g>
<!-- AddMemberDialog&#45;&gt;DashboardModule -->
<g id="edge1" class="edge">
<title>AddMemberDialog&#45;&gt;DashboardModule</title>
<path fill="none" stroke="black" d="M2061,-85.02C2061,-105.17 2061,-134.8 2061,-134.8 2061,-134.8 1331.13,-134.8 1331.13,-134.8"/>
<polygon fill="black" stroke="black" points="1331.13,-131.3 1321.13,-134.8 1331.13,-138.3 1331.13,-131.3"/>
</g>
<!-- CreateProjectMembersPage -->
<g id="node2" class="node">
<title>CreateProjectMembersPage</title>
<polygon fill="#ffffb3" stroke="black" points="1980.28,-84.8 1807.72,-84.8 1807.72,-48.8 1980.28,-48.8 1980.28,-84.8"/>
<text text-anchor="middle" x="1894" y="-62.6" font-family="Times,serif" font-size="14.00">CreateProjectMembersPage</text>
</g>
<!-- CreateProjectMembersPage&#45;&gt;DashboardModule -->
<g id="edge2" class="edge">
<title>CreateProjectMembersPage&#45;&gt;DashboardModule</title>
<path fill="none" stroke="black" d="M1894,-85.02C1894,-103.63 1894,-129.8 1894,-129.8 1894,-129.8 1331.12,-129.8 1331.12,-129.8"/>
<polygon fill="black" stroke="black" points="1331.12,-126.3 1321.12,-129.8 1331.12,-133.3 1331.12,-126.3"/>
</g>
<!-- CreateProjectPage -->
<g id="node3" class="node">
<title>CreateProjectPage</title>
<polygon fill="#ffffb3" stroke="black" points="1789.9,-84.8 1670.1,-84.8 1670.1,-48.8 1789.9,-48.8 1789.9,-84.8"/>
<text text-anchor="middle" x="1730" y="-62.6" font-family="Times,serif" font-size="14.00">CreateProjectPage</text>
</g>
<!-- CreateProjectPage&#45;&gt;DashboardModule -->
<g id="edge3" class="edge">
<title>CreateProjectPage&#45;&gt;DashboardModule</title>
<path fill="none" stroke="black" d="M1730,-84.83C1730,-101.86 1730,-124.8 1730,-124.8 1730,-124.8 1331.35,-124.8 1331.35,-124.8"/>
<polygon fill="black" stroke="black" points="1331.35,-121.3 1321.35,-124.8 1331.35,-128.3 1331.35,-121.3"/>
</g>
<!-- CreateWorkspacePage -->
<g id="node4" class="node">
<title>CreateWorkspacePage</title>
<polygon fill="#ffffb3" stroke="black" points="1652.21,-84.8 1509.79,-84.8 1509.79,-48.8 1652.21,-48.8 1652.21,-84.8"/>
<text text-anchor="middle" x="1581" y="-62.6" font-family="Times,serif" font-size="14.00">CreateWorkspacePage</text>
</g>
<!-- CreateWorkspacePage&#45;&gt;DashboardModule -->
<g id="edge4" class="edge">
<title>CreateWorkspacePage&#45;&gt;DashboardModule</title>
<path fill="none" stroke="black" d="M1581,-85.04C1581,-100.37 1581,-119.8 1581,-119.8 1581,-119.8 1331.19,-119.8 1331.19,-119.8"/>
<polygon fill="black" stroke="black" points="1331.19,-116.3 1321.19,-119.8 1331.19,-123.3 1331.19,-116.3"/>
</g>
<!-- EditProjectMembersPage -->
<g id="node5" class="node">
<title>EditProjectMembersPage</title>
<polygon fill="#ffffb3" stroke="black" points="1491.58,-84.8 1332.42,-84.8 1332.42,-48.8 1491.58,-48.8 1491.58,-84.8"/>
<text text-anchor="middle" x="1412" y="-62.6" font-family="Times,serif" font-size="14.00">EditProjectMembersPage</text>
</g>
<!-- EditProjectMembersPage&#45;&gt;DashboardModule -->
<g id="edge5" class="edge">
<title>EditProjectMembersPage&#45;&gt;DashboardModule</title>
<path fill="none" stroke="black" d="M1332.35,-66.8C1323.5,-66.8 1317.6,-66.8 1317.6,-66.8 1317.6,-66.8 1317.6,-103.69 1317.6,-103.69"/>
<polygon fill="black" stroke="black" points="1314.1,-103.69 1317.6,-113.69 1321.1,-103.69 1314.1,-103.69"/>
</g>
<!-- EditProjectPage -->
<g id="node6" class="node">
<title>EditProjectPage</title>
<polygon fill="#ffffb3" stroke="black" points="1314.2,-84.8 1207.8,-84.8 1207.8,-48.8 1314.2,-48.8 1314.2,-84.8"/>
<text text-anchor="middle" x="1261" y="-62.6" font-family="Times,serif" font-size="14.00">EditProjectPage</text>
</g>
<!-- EditProjectPage&#45;&gt;DashboardModule -->
<g id="edge6" class="edge">
<title>EditProjectPage&#45;&gt;DashboardModule</title>
<path fill="none" stroke="black" d="M1261,-84.91C1261,-84.91 1261,-103.79 1261,-103.79"/>
<polygon fill="black" stroke="black" points="1257.5,-103.79 1261,-113.79 1264.5,-103.79 1257.5,-103.79"/>
</g>
<!-- EditWorkspacePage -->
<g id="node7" class="node">
<title>EditWorkspacePage</title>
<polygon fill="#ffffb3" stroke="black" points="1189.51,-84.8 1060.49,-84.8 1060.49,-48.8 1189.51,-48.8 1189.51,-84.8"/>
<text text-anchor="middle" x="1125" y="-62.6" font-family="Times,serif" font-size="14.00">EditWorkspacePage</text>
</g>
<!-- EditWorkspacePage&#45;&gt;DashboardModule -->
<g id="edge7" class="edge">
<title>EditWorkspacePage&#45;&gt;DashboardModule</title>
<path fill="none" stroke="black" d="M1189.84,-66.8C1198.46,-66.8 1204.4,-66.8 1204.4,-66.8 1204.4,-66.8 1204.4,-103.69 1204.4,-103.69"/>
<polygon fill="black" stroke="black" points="1200.9,-103.69 1204.4,-113.69 1207.9,-103.69 1200.9,-103.69"/>
</g>
<!-- IntegrationGithubComponent -->
<g id="node8" class="node">
<title>IntegrationGithubComponent</title>
<polygon fill="#ffffb3" stroke="black" points="1041.64,-84.8 860.36,-84.8 860.36,-48.8 1041.64,-48.8 1041.64,-84.8"/>
<text text-anchor="middle" x="951" y="-62.6" font-family="Times,serif" font-size="14.00">IntegrationGithubComponent</text>
</g>
<!-- IntegrationGithubComponent&#45;&gt;DashboardModule -->
<g id="edge8" class="edge">
<title>IntegrationGithubComponent&#45;&gt;DashboardModule</title>
<path fill="none" stroke="black" d="M951,-85.04C951,-100.37 951,-119.8 951,-119.8 951,-119.8 1190.86,-119.8 1190.86,-119.8"/>
<polygon fill="black" stroke="black" points="1190.86,-123.3 1200.86,-119.8 1190.86,-116.3 1190.86,-123.3"/>
</g>
<!-- MemberListComponent -->
<g id="node9" class="node">
<title>MemberListComponent</title>
<polygon fill="#ffffb3" stroke="black" points="842.04,-84.8 691.96,-84.8 691.96,-48.8 842.04,-48.8 842.04,-84.8"/>
<text text-anchor="middle" x="767" y="-62.6" font-family="Times,serif" font-size="14.00">MemberListComponent</text>
</g>
<!-- MemberListComponent&#45;&gt;DashboardModule -->
<g id="edge9" class="edge">
<title>MemberListComponent&#45;&gt;DashboardModule</title>
<path fill="none" stroke="black" d="M767,-84.83C767,-101.86 767,-124.8 767,-124.8 767,-124.8 1190.43,-124.8 1190.43,-124.8"/>
<polygon fill="black" stroke="black" points="1190.43,-128.3 1200.43,-124.8 1190.43,-121.3 1190.43,-128.3"/>
</g>
<!-- ProjectsListPage -->
<g id="node10" class="node">
<title>ProjectsListPage</title>
<polygon fill="#ffffb3" stroke="black" points="674.1,-84.8 563.9,-84.8 563.9,-48.8 674.1,-48.8 674.1,-84.8"/>
<text text-anchor="middle" x="619" y="-62.6" font-family="Times,serif" font-size="14.00">ProjectsListPage</text>
</g>
<!-- ProjectsListPage&#45;&gt;DashboardModule -->
<g id="edge10" class="edge">
<title>ProjectsListPage&#45;&gt;DashboardModule</title>
<path fill="none" stroke="black" d="M619,-85.02C619,-103.63 619,-129.8 619,-129.8 619,-129.8 1190.89,-129.8 1190.89,-129.8"/>
<polygon fill="black" stroke="black" points="1190.89,-133.3 1200.89,-129.8 1190.89,-126.3 1190.89,-133.3"/>
</g>
<!-- ViewOptionsComponent -->
<g id="node11" class="node">
<title>ViewOptionsComponent</title>
<polygon fill="#ffffb3" stroke="black" points="545.99,-84.8 390.01,-84.8 390.01,-48.8 545.99,-48.8 545.99,-84.8"/>
<text text-anchor="middle" x="468" y="-62.6" font-family="Times,serif" font-size="14.00">ViewOptionsComponent</text>
</g>
<!-- ViewOptionsComponent&#45;&gt;DashboardModule -->
<g id="edge11" class="edge">
<title>ViewOptionsComponent&#45;&gt;DashboardModule</title>
<path fill="none" stroke="black" d="M468,-85.02C468,-105.17 468,-134.8 468,-134.8 468,-134.8 1190.75,-134.8 1190.75,-134.8"/>
<polygon fill="black" stroke="black" points="1190.75,-138.3 1200.75,-134.8 1190.75,-131.3 1190.75,-138.3"/>
</g>
<!-- WorkspacesListPage -->
<g id="node12" class="node">
<title>WorkspacesListPage</title>
<polygon fill="#ffffb3" stroke="black" points="371.91,-84.8 238.09,-84.8 238.09,-48.8 371.91,-48.8 371.91,-84.8"/>
<text text-anchor="middle" x="305" y="-62.6" font-family="Times,serif" font-size="14.00">WorkspacesListPage</text>
</g>
<!-- WorkspacesListPage&#45;&gt;DashboardModule -->
<g id="edge12" class="edge">
<title>WorkspacesListPage&#45;&gt;DashboardModule</title>
<path fill="none" stroke="black" d="M305,-84.84C305,-106.46 305,-139.8 305,-139.8 305,-139.8 1190.84,-139.8 1190.84,-139.8"/>
<polygon fill="black" stroke="black" points="1190.84,-143.3 1200.84,-139.8 1190.84,-136.3 1190.84,-143.3"/>
</g>
<!-- DashboardRoutingModule -->
<g id="node14" class="node">
<title>DashboardRoutingModule</title>
<polygon fill="#8dd3c7" stroke="black" points="2420.82,-84.8 2417.82,-88.8 2396.82,-88.8 2393.82,-84.8 2255.18,-84.8 2255.18,-48.8 2420.82,-48.8 2420.82,-84.8"/>
<text text-anchor="middle" x="2338" y="-62.6" font-family="Times,serif" font-size="14.00">DashboardRoutingModule</text>
</g>
<!-- DashboardRoutingModule&#45;&gt;DashboardModule -->
<g id="edge13" class="edge">
<title>DashboardRoutingModule&#45;&gt;DashboardModule</title>
<path fill="none" stroke="black" d="M2338,-84.89C2338,-107.93 2338,-144.8 2338,-144.8 2338,-144.8 1331.21,-144.8 1331.21,-144.8"/>
<polygon fill="black" stroke="black" points="1331.21,-141.3 1321.21,-144.8 1331.21,-148.3 1331.21,-141.3"/>
</g>
<!-- MainModule -->
<g id="node15" class="node">
<title>MainModule</title>
<polygon fill="#8dd3c7" stroke="black" points="2237.6,-84.8 2234.6,-88.8 2213.6,-88.8 2210.6,-84.8 2148.4,-84.8 2148.4,-48.8 2237.6,-48.8 2237.6,-84.8"/>
<text text-anchor="middle" x="2193" y="-62.6" font-family="Times,serif" font-size="14.00">MainModule</text>
</g>
<!-- MainModule&#45;&gt;DashboardModule -->
<g id="edge14" class="edge">
<title>MainModule&#45;&gt;DashboardModule</title>
<path fill="none" stroke="black" d="M2193,-84.84C2193,-106.46 2193,-139.8 2193,-139.8 2193,-139.8 1331.43,-139.8 1331.43,-139.8"/>
<polygon fill="black" stroke="black" points="1331.43,-136.3 1321.43,-139.8 1331.43,-143.3 1331.43,-136.3"/>
</g>
<!-- GitIntegrationService -->
<g id="node16" class="node">
<title>GitIntegrationService</title>
<ellipse fill="#fdb462" stroke="black" cx="119" cy="-66.8" rx="94.9" ry="18"/>
<text text-anchor="middle" x="119" y="-62.6" font-family="Times,serif" font-size="14.00">GitIntegrationService</text>
</g>
<!-- GitIntegrationService&#45;&gt;DashboardModule -->
<g id="edge15" class="edge">
<title>GitIntegrationService&#45;&gt;DashboardModule</title>
<path fill="none" stroke="black" d="M119,-84.89C119,-107.93 119,-144.8 119,-144.8 119,-144.8 1190.81,-144.8 1190.81,-144.8"/>
<polygon fill="black" stroke="black" points="1190.81,-148.3 1200.81,-144.8 1190.81,-141.3 1190.81,-148.3"/>
</g>
</g>
</svg>
