<?xml version="1.0" encoding="UTF-8" standalone="no"?>
<!DOCTYPE svg PUBLIC "-//W3C//DTD SVG 1.1//EN"
 "http://www.w3.org/Graphics/SVG/1.1/DTD/svg11.dtd">
<!-- Generated by graphviz version 3.0.0 (20220226.1711)
 -->
<!-- Title: dependencies Pages: 1 -->
<svg width="2453pt" height="174pt"
 viewBox="0.00 0.00 2453.00 173.80" xmlns="http://www.w3.org/2000/svg" xmlns:xlink="http://www.w3.org/1999/xlink">
<g id="graph0" class="graph" transform="scale(1 1) rotate(0) translate(4 169.8)">
<title>dependencies</title>
<polygon fill="white" stroke="transparent" points="-4,4 -4,-169.8 2449,-169.8 2449,4 -4,4"/>
<text text-anchor="middle" x="1222.5" y="-8.2" font-family="sans-serif" font-size="14.00">dependencies</text>
<g id="clust1" class="cluster">
<title>cluster_DashboardModule</title>
<polygon fill="none" stroke="black" stroke-dasharray="1,5" points="8,-32.8 8,-157.8 2437,-157.8 2437,-32.8 8,-32.8"/>
</g>
<g id="clust18" class="cluster">
<title>cluster_DashboardModule_providers</title>
<polygon fill="none" stroke="black" points="2223,-40.8 2223,-92.8 2429,-92.8 2429,-40.8 2223,-40.8"/>
</g>
<g id="clust15" class="cluster">
<title>cluster_DashboardModule_imports</title>
<polygon fill="none" stroke="black" points="1926,-40.8 1926,-92.8 2215,-92.8 2215,-40.8 1926,-40.8"/>
</g>
<g id="clust2" class="cluster">
<title>cluster_DashboardModule_declarations</title>
<polygon fill="none" stroke="black" points="16,-40.8 16,-92.8 1918,-92.8 1918,-40.8 16,-40.8"/>
</g>
<!-- AddMemberDialog -->
<g id="node1" class="node">
<title>AddMemberDialog</title>
<polygon fill="#ffffb3" stroke="black" points="1909.64,-84.8 1784.36,-84.8 1784.36,-48.8 1909.64,-48.8 1909.64,-84.8"/>
<text text-anchor="middle" x="1847" y="-62.6" font-family="Times,serif" font-size="14.00">AddMemberDialog</text>
</g>
<!-- DashboardModule -->
<g id="node13" class="node">
<title>DashboardModule</title>
<polygon fill="#8dd3c7" stroke="black" points="1258.2,-149.8 1255.2,-153.8 1234.2,-153.8 1231.2,-149.8 1137.8,-149.8 1137.8,-113.8 1258.2,-113.8 1258.2,-149.8"/>
<text text-anchor="middle" x="1198" y="-127.6" font-family="Times,serif" font-size="14.00">DashboardModule</text>
</g>
<!-- AddMemberDialog&#45;&gt;DashboardModule -->
<g id="edge1" class="edge">
<title>AddMemberDialog&#45;&gt;DashboardModule</title>
<path fill="none" stroke="black" d="M1847,-84.91C1847,-104.14 1847,-131.8 1847,-131.8 1847,-131.8 1268.18,-131.8 1268.18,-131.8"/>
<polygon fill="black" stroke="black" points="1268.18,-128.3 1258.18,-131.8 1268.18,-135.3 1268.18,-128.3"/>
</g>
<!-- CreateProjectMembersPage -->
<g id="node2" class="node">
<title>CreateProjectMembersPage</title>
<polygon fill="#ffffb3" stroke="black" points="1766.28,-84.8 1593.72,-84.8 1593.72,-48.8 1766.28,-48.8 1766.28,-84.8"/>
<text text-anchor="middle" x="1680" y="-62.6" font-family="Times,serif" font-size="14.00">CreateProjectMembersPage</text>
</g>
<!-- CreateProjectMembersPage&#45;&gt;DashboardModule -->
<g id="edge2" class="edge">
<title>CreateProjectMembersPage&#45;&gt;DashboardModule</title>
<path fill="none" stroke="black" d="M1680,-85.1C1680,-103.07 1680,-127.8 1680,-127.8 1680,-127.8 1268.56,-127.8 1268.56,-127.8"/>
<polygon fill="black" stroke="black" points="1268.56,-124.3 1258.56,-127.8 1268.56,-131.3 1268.56,-124.3"/>
</g>
<!-- CreateProjectPage -->
<g id="node3" class="node">
<title>CreateProjectPage</title>
<polygon fill="#ffffb3" stroke="black" points="1575.9,-84.8 1456.1,-84.8 1456.1,-48.8 1575.9,-48.8 1575.9,-84.8"/>
<text text-anchor="middle" x="1516" y="-62.6" font-family="Times,serif" font-size="14.00">CreateProjectPage</text>
</g>
<!-- CreateProjectPage&#45;&gt;DashboardModule -->
<g id="edge3" class="edge">
<title>CreateProjectPage&#45;&gt;DashboardModule</title>
<path fill="none" stroke="black" d="M1516,-84.83C1516,-101.2 1516,-122.8 1516,-122.8 1516,-122.8 1268.19,-122.8 1268.19,-122.8"/>
<polygon fill="black" stroke="black" points="1268.19,-119.3 1258.19,-122.8 1268.19,-126.3 1268.19,-119.3"/>
</g>
<!-- CreateWorkspacePage -->
<g id="node4" class="node">
<title>CreateWorkspacePage</title>
<polygon fill="#ffffb3" stroke="black" points="1438.21,-84.8 1295.79,-84.8 1295.79,-48.8 1438.21,-48.8 1438.21,-84.8"/>
<text text-anchor="middle" x="1367" y="-62.6" font-family="Times,serif" font-size="14.00">CreateWorkspacePage</text>
</g>
<!-- CreateWorkspacePage&#45;&gt;DashboardModule -->
<g id="edge4" class="edge">
<title>CreateWorkspacePage&#45;&gt;DashboardModule</title>
<path fill="none" stroke="black" d="M1367,-84.99C1367,-99.98 1367,-118.8 1367,-118.8 1367,-118.8 1268.54,-118.8 1268.54,-118.8"/>
<polygon fill="black" stroke="black" points="1268.54,-115.3 1258.54,-118.8 1268.54,-122.3 1268.54,-115.3"/>
</g>
<!-- EditProjectMembersPage -->
<g id="node5" class="node">
<title>EditProjectMembersPage</title>
<polygon fill="#ffffb3" stroke="black" points="1277.58,-84.8 1118.42,-84.8 1118.42,-48.8 1277.58,-48.8 1277.58,-84.8"/>
<text text-anchor="middle" x="1198" y="-62.6" font-family="Times,serif" font-size="14.00">EditProjectMembersPage</text>
</g>
<!-- EditProjectMembersPage&#45;&gt;DashboardModule -->
<g id="edge5" class="edge">
<title>EditProjectMembersPage&#45;&gt;DashboardModule</title>
<path fill="none" stroke="black" d="M1198,-84.91C1198,-84.91 1198,-103.79 1198,-103.79"/>
<polygon fill="black" stroke="black" points="1194.5,-103.79 1198,-113.79 1201.5,-103.79 1194.5,-103.79"/>
</g>
<!-- EditProjectPage -->
<g id="node6" class="node">
<title>EditProjectPage</title>
<polygon fill="#ffffb3" stroke="black" points="1100.2,-84.8 993.8,-84.8 993.8,-48.8 1100.2,-48.8 1100.2,-84.8"/>
<text text-anchor="middle" x="1047" y="-62.6" font-family="Times,serif" font-size="14.00">EditProjectPage</text>
</g>
<!-- EditProjectPage&#45;&gt;DashboardModule -->
<g id="edge6" class="edge">
<title>EditProjectPage&#45;&gt;DashboardModule</title>
<path fill="none" stroke="black" d="M1047,-84.99C1047,-99.98 1047,-118.8 1047,-118.8 1047,-118.8 1127.89,-118.8 1127.89,-118.8"/>
<polygon fill="black" stroke="black" points="1127.89,-122.3 1137.89,-118.8 1127.89,-115.3 1127.89,-122.3"/>
</g>
<!-- EditWorkspacePage -->
<g id="node7" class="node">
<title>EditWorkspacePage</title>
<polygon fill="#ffffb3" stroke="black" points="975.51,-84.8 846.49,-84.8 846.49,-48.8 975.51,-48.8 975.51,-84.8"/>
<text text-anchor="middle" x="911" y="-62.6" font-family="Times,serif" font-size="14.00">EditWorkspacePage</text>
</g>
<!-- EditWorkspacePage&#45;&gt;DashboardModule -->
<g id="edge7" class="edge">
<title>EditWorkspacePage&#45;&gt;DashboardModule</title>
<path fill="none" stroke="black" d="M911,-84.83C911,-101.2 911,-122.8 911,-122.8 911,-122.8 1127.84,-122.8 1127.84,-122.8"/>
<polygon fill="black" stroke="black" points="1127.84,-126.3 1137.84,-122.8 1127.84,-119.3 1127.84,-126.3"/>
</g>
<!-- IntegrationGithubComponent -->
<g id="node8" class="node">
<title>IntegrationGithubComponent</title>
<polygon fill="#ffffb3" stroke="black" points="827.64,-84.8 646.36,-84.8 646.36,-48.8 827.64,-48.8 827.64,-84.8"/>
<text text-anchor="middle" x="737" y="-62.6" font-family="Times,serif" font-size="14.00">IntegrationGithubComponent</text>
</g>
<!-- IntegrationGithubComponent&#45;&gt;DashboardModule -->
<g id="edge8" class="edge">
<title>IntegrationGithubComponent&#45;&gt;DashboardModule</title>
<path fill="none" stroke="black" d="M737,-85.1C737,-103.07 737,-127.8 737,-127.8 737,-127.8 1127.73,-127.8 1127.73,-127.8"/>
<polygon fill="black" stroke="black" points="1127.73,-131.3 1137.73,-127.8 1127.73,-124.3 1127.73,-131.3"/>
</g>
<!-- MemberListComponent -->
<g id="node9" class="node">
<title>MemberListComponent</title>
<polygon fill="#ffffb3" stroke="black" points="628.04,-84.8 477.96,-84.8 477.96,-48.8 628.04,-48.8 628.04,-84.8"/>
<text text-anchor="middle" x="553" y="-62.6" font-family="Times,serif" font-size="14.00">MemberListComponent</text>
</g>
<!-- MemberListComponent&#45;&gt;DashboardModule -->
<g id="edge9" class="edge">
<title>MemberListComponent&#45;&gt;DashboardModule</title>
<path fill="none" stroke="black" d="M553,-84.91C553,-104.14 553,-131.8 553,-131.8 553,-131.8 1127.9,-131.8 1127.9,-131.8"/>
<polygon fill="black" stroke="black" points="1127.9,-135.3 1137.9,-131.8 1127.9,-128.3 1127.9,-135.3"/>
</g>
<!-- ProjectsListPage -->
<g id="node10" class="node">
<title>ProjectsListPage</title>
<polygon fill="#ffffb3" stroke="black" points="460.1,-84.8 349.9,-84.8 349.9,-48.8 460.1,-48.8 460.1,-84.8"/>
<text text-anchor="middle" x="405" y="-62.6" font-family="Times,serif" font-size="14.00">ProjectsListPage</text>
</g>
<!-- ProjectsListPage&#45;&gt;DashboardModule -->
<g id="edge10" class="edge">
<title>ProjectsListPage&#45;&gt;DashboardModule</title>
<path fill="none" stroke="black" d="M405,-84.83C405,-105.57 405,-136.8 405,-136.8 405,-136.8 1127.75,-136.8 1127.75,-136.8"/>
<polygon fill="black" stroke="black" points="1127.75,-140.3 1137.75,-136.8 1127.75,-133.3 1127.75,-140.3"/>
</g>
<!-- ViewOptionsComponent -->
<g id="node11" class="node">
<title>ViewOptionsComponent</title>
<polygon fill="#ffffb3" stroke="black" points="331.99,-84.8 176.01,-84.8 176.01,-48.8 331.99,-48.8 331.99,-84.8"/>
<text text-anchor="middle" x="254" y="-62.6" font-family="Times,serif" font-size="14.00">ViewOptionsComponent</text>
</g>
<!-- ViewOptionsComponent&#45;&gt;DashboardModule -->
<g id="edge11" class="edge">
<title>ViewOptionsComponent&#45;&gt;DashboardModule</title>
<path fill="none" stroke="black" d="M254,-85.09C254,-107.01 254,-140.8 254,-140.8 254,-140.8 1127.87,-140.8 1127.87,-140.8"/>
<polygon fill="black" stroke="black" points="1127.87,-144.3 1137.87,-140.8 1127.87,-137.3 1127.87,-144.3"/>
</g>
<!-- WorkspacesListPage -->
<g id="node12" class="node">
<title>WorkspacesListPage</title>
<polygon fill="#ffffb3" stroke="black" points="157.91,-84.8 24.09,-84.8 24.09,-48.8 157.91,-48.8 157.91,-84.8"/>
<text text-anchor="middle" x="91" y="-62.6" font-family="Times,serif" font-size="14.00">WorkspacesListPage</text>
</g>
<!-- WorkspacesListPage&#45;&gt;DashboardModule -->
<g id="edge12" class="edge">
<title>WorkspacesListPage&#45;&gt;DashboardModule</title>
<path fill="none" stroke="black" d="M91,-85.12C91,-108.46 91,-145.8 91,-145.8 91,-145.8 1127.7,-145.8 1127.7,-145.8"/>
<polygon fill="black" stroke="black" points="1127.7,-149.3 1137.7,-145.8 1127.7,-142.3 1127.7,-149.3"/>
</g>
<!-- DashboardRoutingModule -->
<g id="node14" class="node">
<title>DashboardRoutingModule</title>
<polygon fill="#8dd3c7" stroke="black" points="2206.82,-84.8 2203.82,-88.8 2182.82,-88.8 2179.82,-84.8 2041.18,-84.8 2041.18,-48.8 2206.82,-48.8 2206.82,-84.8"/>
<text text-anchor="middle" x="2124" y="-62.6" font-family="Times,serif" font-size="14.00">DashboardRoutingModule</text>
</g>
<!-- DashboardRoutingModule&#45;&gt;DashboardModule -->
<g id="edge13" class="edge">
<title>DashboardRoutingModule&#45;&gt;DashboardModule</title>
<path fill="none" stroke="black" d="M2124,-85.09C2124,-107.01 2124,-140.8 2124,-140.8 2124,-140.8 1268.4,-140.8 1268.4,-140.8"/>
<polygon fill="black" stroke="black" points="1268.4,-137.3 1258.4,-140.8 1268.4,-144.3 1268.4,-137.3"/>
</g>
<!-- MainModule -->
<g id="node15" class="node">
<title>MainModule</title>
<polygon fill="#8dd3c7" stroke="black" points="2023.6,-84.8 2020.6,-88.8 1999.6,-88.8 1996.6,-84.8 1934.4,-84.8 1934.4,-48.8 2023.6,-48.8 2023.6,-84.8"/>
<text text-anchor="middle" x="1979" y="-62.6" font-family="Times,serif" font-size="14.00">MainModule</text>
</g>
<!-- MainModule&#45;&gt;DashboardModule -->
<g id="edge14" class="edge">
<title>MainModule&#45;&gt;DashboardModule</title>
<path fill="none" stroke="black" d="M1979,-84.83C1979,-105.57 1979,-136.8 1979,-136.8 1979,-136.8 1268.31,-136.8 1268.31,-136.8"/>
<polygon fill="black" stroke="black" points="1268.31,-133.3 1258.31,-136.8 1268.31,-140.3 1268.31,-133.3"/>
</g>
<!-- GitIntegrationService -->
<g id="node16" class="node">
<title>GitIntegrationService</title>
<ellipse fill="#fdb462" stroke="black" cx="2326" cy="-66.8" rx="94.9" ry="18"/>
<text text-anchor="middle" x="2326" y="-62.6" font-family="Times,serif" font-size="14.00">GitIntegrationService</text>
</g>
<!-- GitIntegrationService&#45;&gt;DashboardModule -->
<g id="edge15" class="edge">
<title>GitIntegrationService&#45;&gt;DashboardModule</title>
<path fill="none" stroke="black" d="M2326,-85.12C2326,-108.46 2326,-145.8 2326,-145.8 2326,-145.8 1268.25,-145.8 1268.25,-145.8"/>
<polygon fill="black" stroke="black" points="1268.25,-142.3 1258.25,-145.8 1268.25,-149.3 1268.25,-142.3"/>
</g>
</g>
</svg>
