<?xml version="1.0" encoding="UTF-8" standalone="no"?>
<!DOCTYPE svg PUBLIC "-//W3C//DTD SVG 1.1//EN"
 "http://www.w3.org/Graphics/SVG/1.1/DTD/svg11.dtd">
<!-- Generated by graphviz version 3.0.0 (20220226.1711)
 -->
<!-- Title: dependencies Pages: 1 -->
<svg width="1430pt" height="174pt"
 viewBox="0.00 0.00 1430.00 173.80" xmlns="http://www.w3.org/2000/svg" xmlns:xlink="http://www.w3.org/1999/xlink">
<g id="graph0" class="graph" transform="scale(1 1) rotate(0) translate(4 169.8)">
<title>dependencies</title>
<polygon fill="white" stroke="transparent" points="-4,4 -4,-169.8 1426,-169.8 1426,4 -4,4"/>
<text text-anchor="middle" x="711" y="-8.2" font-family="sans-serif" font-size="14.00">dependencies</text>
<g id="clust1" class="cluster">
<title>cluster_SettingsModule</title>
<polygon fill="none" stroke="black" stroke-dasharray="1,5" points="8,-32.8 8,-157.8 1414,-157.8 1414,-32.8 8,-32.8"/>
</g>
<g id="clust2" class="cluster">
<title>cluster_SettingsModule_declarations</title>
<polygon fill="none" stroke="black" points="297,-40.8 297,-92.8 1406,-92.8 1406,-40.8 297,-40.8"/>
</g>
<g id="clust10" class="cluster">
<title>cluster_SettingsModule_imports</title>
<polygon fill="none" stroke="black" points="16,-40.8 16,-92.8 289,-92.8 289,-40.8 16,-40.8"/>
</g>
<!-- IntegrationEntryComponent -->
<g id="node1" class="node">
<title>IntegrationEntryComponent</title>
<polygon fill="#ffffb3" stroke="black" points="1397.86,-84.8 1224.14,-84.8 1224.14,-48.8 1397.86,-48.8 1397.86,-84.8"/>
<text text-anchor="middle" x="1311" y="-62.6" font-family="Times,serif" font-size="14.00">IntegrationEntryComponent</text>
</g>
<!-- SettingsModule -->
<g id="node8" class="node">
<title>SettingsModule</title>
<polygon fill="#8dd3c7" stroke="black" points="696.17,-149.8 693.17,-153.8 672.17,-153.8 669.17,-149.8 591.83,-149.8 591.83,-113.8 696.17,-113.8 696.17,-149.8"/>
<text text-anchor="middle" x="644" y="-127.6" font-family="Times,serif" font-size="14.00">SettingsModule</text>
</g>
<!-- IntegrationEntryComponent&#45;&gt;SettingsModule -->
<g id="edge1" class="edge">
<title>IntegrationEntryComponent&#45;&gt;SettingsModule</title>
<path fill="none" stroke="black" d="M1311,-84.81C1311,-107.29 1311,-142.8 1311,-142.8 1311,-142.8 706.34,-142.8 706.34,-142.8"/>
<polygon fill="black" stroke="black" points="706.34,-139.3 696.34,-142.8 706.34,-146.3 706.34,-139.3"/>
</g>
<!-- ListGroupComponent -->
<g id="node2" class="node">
<title>ListGroupComponent</title>
<polygon fill="#ffffb3" stroke="black" points="1206.38,-84.8 1067.62,-84.8 1067.62,-48.8 1206.38,-48.8 1206.38,-84.8"/>
<text text-anchor="middle" x="1137" y="-62.6" font-family="Times,serif" font-size="14.00">ListGroupComponent</text>
</g>
<!-- ListGroupComponent&#45;&gt;SettingsModule -->
<g id="edge2" class="edge">
<title>ListGroupComponent&#45;&gt;SettingsModule</title>
<path fill="none" stroke="black" d="M1137,-84.93C1137,-105.37 1137,-135.8 1137,-135.8 1137,-135.8 706.29,-135.8 706.29,-135.8"/>
<polygon fill="black" stroke="black" points="706.29,-132.3 696.29,-135.8 706.29,-139.3 706.29,-132.3"/>
</g>
<!-- SettingsAccountPage -->
<g id="node3" class="node">
<title>SettingsAccountPage</title>
<polygon fill="#ffffb3" stroke="black" points="1049.76,-84.8 914.24,-84.8 914.24,-48.8 1049.76,-48.8 1049.76,-84.8"/>
<text text-anchor="middle" x="982" y="-62.6" font-family="Times,serif" font-size="14.00">SettingsAccountPage</text>
</g>
<!-- SettingsAccountPage&#45;&gt;SettingsModule -->
<g id="edge3" class="edge">
<title>SettingsAccountPage&#45;&gt;SettingsModule</title>
<path fill="none" stroke="black" d="M982,-85.07C982,-103.36 982,-128.8 982,-128.8 982,-128.8 706.44,-128.8 706.44,-128.8"/>
<polygon fill="black" stroke="black" points="706.44,-125.3 696.44,-128.8 706.44,-132.3 706.44,-125.3"/>
</g>
<!-- SettingsIntegrationsPage -->
<g id="node4" class="node">
<title>SettingsIntegrationsPage</title>
<polygon fill="#ffffb3" stroke="black" points="896.7,-84.8 741.3,-84.8 741.3,-48.8 896.7,-48.8 896.7,-84.8"/>
<text text-anchor="middle" x="819" y="-62.6" font-family="Times,serif" font-size="14.00">SettingsIntegrationsPage</text>
</g>
<!-- SettingsIntegrationsPage&#45;&gt;SettingsModule -->
<g id="edge4" class="edge">
<title>SettingsIntegrationsPage&#45;&gt;SettingsModule</title>
<path fill="none" stroke="black" d="M819,-84.81C819,-100.85 819,-121.8 819,-121.8 819,-121.8 706.51,-121.8 706.51,-121.8"/>
<polygon fill="black" stroke="black" points="706.51,-118.3 696.51,-121.8 706.51,-125.3 706.51,-118.3"/>
</g>
<!-- SettingsLocalizationPage -->
<g id="node5" class="node">
<title>SettingsLocalizationPage</title>
<polygon fill="#ffffb3" stroke="black" points="723.3,-84.8 564.7,-84.8 564.7,-48.8 723.3,-48.8 723.3,-84.8"/>
<text text-anchor="middle" x="644" y="-62.6" font-family="Times,serif" font-size="14.00">SettingsLocalizationPage</text>
</g>
<!-- SettingsLocalizationPage&#45;&gt;SettingsModule -->
<g id="edge5" class="edge">
<title>SettingsLocalizationPage&#45;&gt;SettingsModule</title>
<path fill="none" stroke="black" d="M644,-84.91C644,-84.91 644,-103.79 644,-103.79"/>
<polygon fill="black" stroke="black" points="640.5,-103.79 644,-113.79 647.5,-103.79 640.5,-103.79"/>
</g>
<!-- SettingsPage -->
<g id="node6" class="node">
<title>SettingsPage</title>
<polygon fill="#ffffb3" stroke="black" points="547.33,-84.8 458.67,-84.8 458.67,-48.8 547.33,-48.8 547.33,-84.8"/>
<text text-anchor="middle" x="503" y="-62.6" font-family="Times,serif" font-size="14.00">SettingsPage</text>
</g>
<!-- SettingsPage&#45;&gt;SettingsModule -->
<g id="edge6" class="edge">
<title>SettingsPage&#45;&gt;SettingsModule</title>
<path fill="none" stroke="black" d="M503,-84.81C503,-100.85 503,-121.8 503,-121.8 503,-121.8 581.5,-121.8 581.5,-121.8"/>
<polygon fill="black" stroke="black" points="581.5,-125.3 591.5,-121.8 581.5,-118.3 581.5,-125.3"/>
</g>
<!-- SettingsSessionsPage -->
<g id="node7" class="node">
<title>SettingsSessionsPage</title>
<polygon fill="#ffffb3" stroke="black" points="441.07,-84.8 304.93,-84.8 304.93,-48.8 441.07,-48.8 441.07,-84.8"/>
<text text-anchor="middle" x="373" y="-62.6" font-family="Times,serif" font-size="14.00">SettingsSessionsPage</text>
</g>
<!-- SettingsSessionsPage&#45;&gt;SettingsModule -->
<g id="edge7" class="edge">
<title>SettingsSessionsPage&#45;&gt;SettingsModule</title>
<path fill="none" stroke="black" d="M373,-85.07C373,-103.36 373,-128.8 373,-128.8 373,-128.8 581.75,-128.8 581.75,-128.8"/>
<polygon fill="black" stroke="black" points="581.75,-132.3 591.75,-128.8 581.75,-125.3 581.75,-132.3"/>
</g>
<!-- MainModule -->
<g id="node9" class="node">
<title>MainModule</title>
<polygon fill="#8dd3c7" stroke="black" points="280.6,-84.8 277.6,-88.8 256.6,-88.8 253.6,-84.8 191.4,-84.8 191.4,-48.8 280.6,-48.8 280.6,-84.8"/>
<text text-anchor="middle" x="236" y="-62.6" font-family="Times,serif" font-size="14.00">MainModule</text>
</g>
<!-- MainModule&#45;&gt;SettingsModule -->
<g id="edge8" class="edge">
<title>MainModule&#45;&gt;SettingsModule</title>
<path fill="none" stroke="black" d="M236,-84.93C236,-105.37 236,-135.8 236,-135.8 236,-135.8 581.5,-135.8 581.5,-135.8"/>
<polygon fill="black" stroke="black" points="581.5,-139.3 591.5,-135.8 581.5,-132.3 581.5,-139.3"/>
</g>
<!-- SettingsRoutingModule -->
<g id="node10" class="node">
<title>SettingsRoutingModule</title>
<polygon fill="#8dd3c7" stroke="black" points="173.79,-84.8 170.79,-88.8 149.79,-88.8 146.79,-84.8 24.21,-84.8 24.21,-48.8 173.79,-48.8 173.79,-84.8"/>
<text text-anchor="middle" x="99" y="-62.6" font-family="Times,serif" font-size="14.00">SettingsRoutingModule</text>
</g>
<!-- SettingsRoutingModule&#45;&gt;SettingsModule -->
<g id="edge9" class="edge">
<title>SettingsRoutingModule&#45;&gt;SettingsModule</title>
<path fill="none" stroke="black" d="M99,-84.81C99,-107.29 99,-142.8 99,-142.8 99,-142.8 581.74,-142.8 581.74,-142.8"/>
<polygon fill="black" stroke="black" points="581.74,-146.3 591.74,-142.8 581.74,-139.3 581.74,-146.3"/>
</g>
</g>
</svg>
