<?xml version="1.0" encoding="UTF-8" standalone="no"?>
<!DOCTYPE svg PUBLIC "-//W3C//DTD SVG 1.1//EN"
 "http://www.w3.org/Graphics/SVG/1.1/DTD/svg11.dtd">
<!-- Generated by graphviz version 2.47.3 (20210619.1520)
 -->
<!-- Title: dependencies Pages: 1 -->
<svg width="1430pt" height="174pt"
 viewBox="0.00 0.00 1430.00 173.80" xmlns="http://www.w3.org/2000/svg" xmlns:xlink="http://www.w3.org/1999/xlink">
<g id="graph0" class="graph" transform="scale(1 1) rotate(0) translate(4 169.8)">
<title>dependencies</title>
<polygon fill="white" stroke="transparent" points="-4,4 -4,-169.8 1426,-169.8 1426,4 -4,4"/>
<text text-anchor="middle" x="711" y="-8.2" font-family="sans-serif" font-size="14.00">dependencies</text>
<g id="clust1" class="cluster">
<title>cluster_SettingsModule</title>
<polygon fill="none" stroke="black" stroke-dasharray="1,5" points="8,-32.8 8,-157.8 1414,-157.8 1414,-32.8 8,-32.8"/>
</g>
<g id="clust10" class="cluster">
<title>cluster_SettingsModule_imports</title>
<polygon fill="none" stroke="black" points="1133,-40.8 1133,-92.8 1406,-92.8 1406,-40.8 1133,-40.8"/>
</g>
<g id="clust2" class="cluster">
<title>cluster_SettingsModule_declarations</title>
<polygon fill="none" stroke="black" points="16,-40.8 16,-92.8 1125,-92.8 1125,-40.8 16,-40.8"/>
</g>
<!-- IntegrationEntryComponent -->
<g id="node1" class="node">
<title>IntegrationEntryComponent</title>
<polygon fill="#ffffb3" stroke="black" points="1116.86,-84.8 943.14,-84.8 943.14,-48.8 1116.86,-48.8 1116.86,-84.8"/>
<text text-anchor="middle" x="1030" y="-62.6" font-family="Times,serif" font-size="14.00">IntegrationEntryComponent</text>
</g>
<!-- SettingsModule -->
<g id="node8" class="node">
<title>SettingsModule</title>
<polygon fill="#8dd3c7" stroke="black" points="753.16,-149.8 750.16,-153.8 729.16,-153.8 726.16,-149.8 648.84,-149.8 648.84,-113.8 753.16,-113.8 753.16,-149.8"/>
<text text-anchor="middle" x="701" y="-127.6" font-family="Times,serif" font-size="14.00">SettingsModule</text>
</g>
<!-- IntegrationEntryComponent&#45;&gt;SettingsModule -->
<g id="edge1" class="edge">
<title>IntegrationEntryComponent&#45;&gt;SettingsModule</title>
<path fill="none" stroke="black" d="M1030,-85.07C1030,-103.36 1030,-128.8 1030,-128.8 1030,-128.8 763.49,-128.8 763.49,-128.8"/>
<polygon fill="black" stroke="black" points="763.49,-125.3 753.49,-128.8 763.49,-132.3 763.49,-125.3"/>
</g>
<!-- ListGroupComponent -->
<g id="node2" class="node">
<title>ListGroupComponent</title>
<polygon fill="#ffffb3" stroke="black" points="925.38,-84.8 786.62,-84.8 786.62,-48.8 925.38,-48.8 925.38,-84.8"/>
<text text-anchor="middle" x="856" y="-62.6" font-family="Times,serif" font-size="14.00">ListGroupComponent</text>
</g>
<!-- ListGroupComponent&#45;&gt;SettingsModule -->
<g id="edge2" class="edge">
<title>ListGroupComponent&#45;&gt;SettingsModule</title>
<path fill="none" stroke="black" d="M856,-84.81C856,-100.85 856,-121.8 856,-121.8 856,-121.8 763.48,-121.8 763.48,-121.8"/>
<polygon fill="black" stroke="black" points="763.48,-118.3 753.48,-121.8 763.48,-125.3 763.48,-118.3"/>
</g>
<!-- SettingsAccountPage -->
<g id="node3" class="node">
<title>SettingsAccountPage</title>
<polygon fill="#ffffb3" stroke="black" points="768.75,-84.8 633.25,-84.8 633.25,-48.8 768.75,-48.8 768.75,-84.8"/>
<text text-anchor="middle" x="701" y="-62.6" font-family="Times,serif" font-size="14.00">SettingsAccountPage</text>
</g>
<!-- SettingsAccountPage&#45;&gt;SettingsModule -->
<g id="edge3" class="edge">
<title>SettingsAccountPage&#45;&gt;SettingsModule</title>
<path fill="none" stroke="black" d="M701,-84.91C701,-84.91 701,-103.79 701,-103.79"/>
<polygon fill="black" stroke="black" points="697.5,-103.79 701,-113.79 704.5,-103.79 697.5,-103.79"/>
</g>
<!-- SettingsIntegrationsPage -->
<g id="node4" class="node">
<title>SettingsIntegrationsPage</title>
<polygon fill="#ffffb3" stroke="black" points="615.69,-84.8 460.31,-84.8 460.31,-48.8 615.69,-48.8 615.69,-84.8"/>
<text text-anchor="middle" x="538" y="-62.6" font-family="Times,serif" font-size="14.00">SettingsIntegrationsPage</text>
</g>
<!-- SettingsIntegrationsPage&#45;&gt;SettingsModule -->
<g id="edge4" class="edge">
<title>SettingsIntegrationsPage&#45;&gt;SettingsModule</title>
<path fill="none" stroke="black" d="M538,-84.81C538,-100.85 538,-121.8 538,-121.8 538,-121.8 638.53,-121.8 638.53,-121.8"/>
<polygon fill="black" stroke="black" points="638.53,-125.3 648.53,-121.8 638.53,-118.3 638.53,-125.3"/>
</g>
<!-- SettingsLocalizationPage -->
<g id="node5" class="node">
<title>SettingsLocalizationPage</title>
<polygon fill="#ffffb3" stroke="black" points="442.3,-84.8 283.7,-84.8 283.7,-48.8 442.3,-48.8 442.3,-84.8"/>
<text text-anchor="middle" x="363" y="-62.6" font-family="Times,serif" font-size="14.00">SettingsLocalizationPage</text>
</g>
<!-- SettingsLocalizationPage&#45;&gt;SettingsModule -->
<g id="edge5" class="edge">
<title>SettingsLocalizationPage&#45;&gt;SettingsModule</title>
<path fill="none" stroke="black" d="M363,-85.07C363,-103.36 363,-128.8 363,-128.8 363,-128.8 638.56,-128.8 638.56,-128.8"/>
<polygon fill="black" stroke="black" points="638.56,-132.3 648.56,-128.8 638.56,-125.3 638.56,-132.3"/>
</g>
<!-- SettingsPage -->
<g id="node6" class="node">
<title>SettingsPage</title>
<polygon fill="#ffffb3" stroke="black" points="266.33,-84.8 177.67,-84.8 177.67,-48.8 266.33,-48.8 266.33,-84.8"/>
<text text-anchor="middle" x="222" y="-62.6" font-family="Times,serif" font-size="14.00">SettingsPage</text>
</g>
<!-- SettingsPage&#45;&gt;SettingsModule -->
<g id="edge6" class="edge">
<title>SettingsPage&#45;&gt;SettingsModule</title>
<path fill="none" stroke="black" d="M222,-84.93C222,-105.37 222,-135.8 222,-135.8 222,-135.8 638.83,-135.8 638.83,-135.8"/>
<polygon fill="black" stroke="black" points="638.83,-139.3 648.83,-135.8 638.83,-132.3 638.83,-139.3"/>
</g>
<!-- SettingsSessionsPage -->
<g id="node7" class="node">
<title>SettingsSessionsPage</title>
<polygon fill="#ffffb3" stroke="black" points="160.05,-84.8 23.95,-84.8 23.95,-48.8 160.05,-48.8 160.05,-84.8"/>
<text text-anchor="middle" x="92" y="-62.6" font-family="Times,serif" font-size="14.00">SettingsSessionsPage</text>
</g>
<!-- SettingsSessionsPage&#45;&gt;SettingsModule -->
<g id="edge7" class="edge">
<title>SettingsSessionsPage&#45;&gt;SettingsModule</title>
<path fill="none" stroke="black" d="M92,-84.81C92,-107.29 92,-142.8 92,-142.8 92,-142.8 638.81,-142.8 638.81,-142.8"/>
<polygon fill="black" stroke="black" points="638.81,-146.3 648.81,-142.8 638.81,-139.3 638.81,-146.3"/>
</g>
<!-- MainModule -->
<g id="node9" class="node">
<title>MainModule</title>
<polygon fill="#8dd3c7" stroke="black" points="1397.6,-84.8 1394.6,-88.8 1373.6,-88.8 1370.6,-84.8 1308.4,-84.8 1308.4,-48.8 1397.6,-48.8 1397.6,-84.8"/>
<text text-anchor="middle" x="1353" y="-62.6" font-family="Times,serif" font-size="14.00">MainModule</text>
</g>
<!-- MainModule&#45;&gt;SettingsModule -->
<g id="edge8" class="edge">
<title>MainModule&#45;&gt;SettingsModule</title>
<path fill="none" stroke="black" d="M1353,-84.81C1353,-107.29 1353,-142.8 1353,-142.8 1353,-142.8 763.25,-142.8 763.25,-142.8"/>
<polygon fill="black" stroke="black" points="763.25,-139.3 753.25,-142.8 763.25,-146.3 763.25,-139.3"/>
</g>
<!-- SettingsRoutingModule -->
<g id="node10" class="node">
<title>SettingsRoutingModule</title>
<polygon fill="#8dd3c7" stroke="black" points="1290.78,-84.8 1287.78,-88.8 1266.78,-88.8 1263.78,-84.8 1141.22,-84.8 1141.22,-48.8 1290.78,-48.8 1290.78,-84.8"/>
<text text-anchor="middle" x="1216" y="-62.6" font-family="Times,serif" font-size="14.00">SettingsRoutingModule</text>
</g>
<!-- SettingsRoutingModule&#45;&gt;SettingsModule -->
<g id="edge9" class="edge">
<title>SettingsRoutingModule&#45;&gt;SettingsModule</title>
<path fill="none" stroke="black" d="M1216,-84.93C1216,-105.37 1216,-135.8 1216,-135.8 1216,-135.8 763.22,-135.8 763.22,-135.8"/>
<polygon fill="black" stroke="black" points="763.22,-132.3 753.22,-135.8 763.22,-139.3 763.22,-132.3"/>
</g>
</g>
</svg>
