<?xml version="1.0" encoding="UTF-8" standalone="no"?>
<!DOCTYPE svg PUBLIC "-//W3C//DTD SVG 1.1//EN"
 "http://www.w3.org/Graphics/SVG/1.1/DTD/svg11.dtd">
<!-- Generated by graphviz version 3.0.0 (20220226.1711)
 -->
<!-- Title: dependencies Pages: 1 -->
<svg width="7198pt" height="247pt"
 viewBox="0.00 0.00 7198.00 246.80" xmlns="http://www.w3.org/2000/svg" xmlns:xlink="http://www.w3.org/1999/xlink">
<g id="graph0" class="graph" transform="scale(1 1) rotate(0) translate(4 242.8)">
<title>dependencies</title>
<polygon fill="white" stroke="transparent" points="-4,4 -4,-242.8 7194,-242.8 7194,4 -4,4"/>
<text text-anchor="middle" x="3595" y="-8.2" font-family="sans-serif" font-size="14.00">dependencies</text>
<g id="clust1" class="cluster">
<title>cluster_AppModule</title>
<polygon fill="none" stroke="black" stroke-dasharray="1,5" points="995,-32.8 995,-230.8 1393,-230.8 1393,-32.8 995,-32.8"/>
</g>
<g id="clust2" class="cluster">
<title>cluster_AppModule_declarations</title>
<polygon fill="none" stroke="black" points="1003,-40.8 1003,-92.8 1125,-92.8 1125,-40.8 1003,-40.8"/>
</g>
<g id="clust4" class="cluster">
<title>cluster_AppModule_imports</title>
<polygon fill="none" stroke="black" points="1133,-40.8 1133,-92.8 1385,-92.8 1385,-40.8 1133,-40.8"/>
</g>
<g id="clust6" class="cluster">
<title>cluster_AppModule_bootstrap</title>
<polygon fill="none" stroke="black" points="1143,-170.8 1143,-222.8 1267,-222.8 1267,-170.8 1143,-170.8"/>
</g>
<g id="clust14" class="cluster">
<title>cluster_AuthModule</title>
<polygon fill="none" stroke="black" stroke-dasharray="1,5" points="8,-32.8 8,-157.8 987,-157.8 987,-32.8 8,-32.8"/>
</g>
<g id="clust15" class="cluster">
<title>cluster_AuthModule_declarations</title>
<polygon fill="none" stroke="black" points="172,-40.8 172,-92.8 979,-92.8 979,-40.8 172,-40.8"/>
</g>
<g id="clust22" class="cluster">
<title>cluster_AuthModule_imports</title>
<polygon fill="none" stroke="black" points="16,-40.8 16,-92.8 164,-92.8 164,-40.8 16,-40.8"/>
</g>
<g id="clust32" class="cluster">
<title>cluster_DashboardModule</title>
<polygon fill="none" stroke="black" stroke-dasharray="1,5" points="1401,-32.8 1401,-157.8 3723,-157.8 3723,-32.8 1401,-32.8"/>
</g>
<g id="clust33" class="cluster">
<title>cluster_DashboardModule_declarations</title>
<polygon fill="none" stroke="black" points="1813,-40.8 1813,-92.8 3715,-92.8 3715,-40.8 1813,-40.8"/>
</g>
<g id="clust46" class="cluster">
<title>cluster_DashboardModule_imports</title>
<polygon fill="none" stroke="black" points="1623,-40.8 1623,-92.8 1805,-92.8 1805,-40.8 1623,-40.8"/>
</g>
<g id="clust49" class="cluster">
<title>cluster_DashboardModule_providers</title>
<polygon fill="none" stroke="black" points="1409,-40.8 1409,-92.8 1615,-92.8 1615,-40.8 1409,-40.8"/>
</g>
<g id="clust56" class="cluster">
<title>cluster_EmailsModule</title>
<polygon fill="none" stroke="black" stroke-dasharray="1,5" points="6806,-32.8 6806,-157.8 6982,-157.8 6982,-32.8 6806,-32.8"/>
</g>
<g id="clust58" class="cluster">
<title>cluster_EmailsModule_imports</title>
<polygon fill="none" stroke="black" points="6814,-40.8 6814,-92.8 6974,-92.8 6974,-40.8 6814,-40.8"/>
</g>
<g id="clust74" class="cluster">
<title>cluster_MessagesModule</title>
<polygon fill="none" stroke="black" stroke-dasharray="1,5" points="6990,-32.8 6990,-157.8 7182,-157.8 7182,-32.8 6990,-32.8"/>
</g>
<g id="clust76" class="cluster">
<title>cluster_MessagesModule_imports</title>
<polygon fill="none" stroke="black" points="6998,-40.8 6998,-92.8 7174,-92.8 7174,-40.8 6998,-40.8"/>
</g>
<g id="clust86" class="cluster">
<title>cluster_SettingsModule</title>
<polygon fill="none" stroke="black" stroke-dasharray="1,5" points="3731,-32.8 3731,-157.8 5030,-157.8 5030,-32.8 3731,-32.8"/>
</g>
<g id="clust87" class="cluster">
<title>cluster_SettingsModule_declarations</title>
<polygon fill="none" stroke="black" points="3913,-40.8 3913,-92.8 5022,-92.8 5022,-40.8 3913,-40.8"/>
</g>
<g id="clust95" class="cluster">
<title>cluster_SettingsModule_imports</title>
<polygon fill="none" stroke="black" points="3739,-40.8 3739,-92.8 3905,-92.8 3905,-40.8 3739,-40.8"/>
</g>
<g id="clust105" class="cluster">
<title>cluster_TasksModule</title>
<polygon fill="none" stroke="black" stroke-dasharray="1,5" points="5038,-32.8 5038,-157.8 6798,-157.8 6798,-32.8 5038,-32.8"/>
</g>
<g id="clust106" class="cluster">
<title>cluster_TasksModule_declarations</title>
<polygon fill="none" stroke="black" points="5208,-40.8 5208,-92.8 6790,-92.8 6790,-40.8 5208,-40.8"/>
</g>
<g id="clust119" class="cluster">
<title>cluster_TasksModule_imports</title>
<polygon fill="none" stroke="black" points="5046,-40.8 5046,-92.8 5200,-92.8 5200,-40.8 5046,-40.8"/>
</g>
<!-- AppComponent -->
<g id="node1" class="node">
<title>AppComponent</title>
<polygon fill="#ffffb3" stroke="black" points="1116.94,-84.8 1011.06,-84.8 1011.06,-48.8 1116.94,-48.8 1116.94,-84.8"/>
<text text-anchor="middle" x="1064" y="-62.6" font-family="Times,serif" font-size="14.00">AppComponent</text>
</g>
<!-- AppModule -->
<g id="node2" class="node">
<title>AppModule</title>
<polygon fill="#8dd3c7" stroke="black" points="1246.66,-149.8 1243.66,-153.8 1222.66,-153.8 1219.66,-149.8 1163.34,-149.8 1163.34,-113.8 1246.66,-113.8 1246.66,-149.8"/>
<text text-anchor="middle" x="1205" y="-127.6" font-family="Times,serif" font-size="14.00">AppModule</text>
</g>
<!-- AppComponent&#45;&gt;AppModule -->
<g id="edge1" class="edge">
<title>AppComponent&#45;&gt;AppModule</title>
<path fill="none" stroke="black" d="M1064,-85.09C1064,-107.01 1064,-140.8 1064,-140.8 1064,-140.8 1153.08,-140.8 1153.08,-140.8"/>
<polygon fill="black" stroke="black" points="1153.08,-144.3 1163.08,-140.8 1153.08,-137.3 1153.08,-144.3"/>
</g>
<!-- AppComponent  -->
<g id="node5" class="node">
<title>AppComponent </title>
<polygon fill="#80b1d3" stroke="black" points="1259.44,-214.8 1150.56,-214.8 1150.56,-178.8 1259.44,-178.8 1259.44,-214.8"/>
<text text-anchor="middle" x="1205" y="-192.6" font-family="Times,serif" font-size="14.00">AppComponent </text>
</g>
<!-- AppModule&#45;&gt;AppComponent  -->
<g id="edge4" class="edge">
<title>AppModule&#45;&gt;AppComponent </title>
<path fill="none" stroke="black" stroke-dasharray="1,5" d="M1205,-149.91C1205,-149.91 1205,-168.79 1205,-168.79"/>
<polygon fill="black" stroke="black" points="1201.5,-168.79 1205,-178.79 1208.5,-168.79 1201.5,-168.79"/>
</g>
<!-- AppRoutingModule -->
<g id="node3" class="node">
<title>AppRoutingModule</title>
<polygon fill="#8dd3c7" stroke="black" points="1269.28,-84.8 1266.28,-88.8 1245.28,-88.8 1242.28,-84.8 1140.72,-84.8 1140.72,-48.8 1269.28,-48.8 1269.28,-84.8"/>
<text text-anchor="middle" x="1205" y="-62.6" font-family="Times,serif" font-size="14.00">AppRoutingModule</text>
</g>
<!-- AppRoutingModule&#45;&gt;AppModule -->
<g id="edge2" class="edge">
<title>AppRoutingModule&#45;&gt;AppModule</title>
<path fill="none" stroke="black" d="M1205,-84.91C1205,-84.91 1205,-103.79 1205,-103.79"/>
<polygon fill="black" stroke="black" points="1201.5,-103.79 1205,-113.79 1208.5,-103.79 1201.5,-103.79"/>
</g>
<!-- MainModule -->
<g id="node4" class="node">
<title>MainModule</title>
<polygon fill="#8dd3c7" stroke="black" points="1376.6,-84.8 1373.6,-88.8 1352.6,-88.8 1349.6,-84.8 1287.4,-84.8 1287.4,-48.8 1376.6,-48.8 1376.6,-84.8"/>
<text text-anchor="middle" x="1332" y="-62.6" font-family="Times,serif" font-size="14.00">MainModule</text>
</g>
<!-- MainModule&#45;&gt;AppModule -->
<g id="edge3" class="edge">
<title>MainModule&#45;&gt;AppModule</title>
<path fill="none" stroke="black" d="M1346.85,-85.12C1346.85,-108.46 1346.85,-145.8 1346.85,-145.8 1346.85,-145.8 1256.79,-145.8 1256.79,-145.8"/>
<polygon fill="black" stroke="black" points="1256.79,-142.3 1246.79,-145.8 1256.79,-149.3 1256.79,-142.3"/>
</g>
<!-- AuthModule -->
<g id="node12" class="node">
<title>AuthModule</title>
<polygon fill="#8dd3c7" stroke="black" points="658.55,-149.8 655.55,-153.8 634.55,-153.8 631.55,-149.8 571.45,-149.8 571.45,-113.8 658.55,-113.8 658.55,-149.8"/>
<text text-anchor="middle" x="615" y="-127.6" font-family="Times,serif" font-size="14.00">AuthModule</text>
</g>
<!-- MainModule&#45;&gt;AuthModule -->
<g id="edge12" class="edge">
<title>MainModule&#45;&gt;AuthModule</title>
<path fill="none" stroke="black" d="M1302.3,-84.93C1302.3,-95.51 1302.3,-106.8 1302.3,-106.8 1302.3,-106.8 650.87,-106.8 650.87,-106.8 650.87,-106.8 650.87,-107.48 650.87,-107.48"/>
<polygon fill="black" stroke="black" points="647.37,-103.63 650.87,-113.63 654.37,-103.63 647.37,-103.63"/>
</g>
<!-- DashboardModule -->
<g id="node26" class="node">
<title>DashboardModule</title>
<polygon fill="#8dd3c7" stroke="black" points="2596.2,-149.8 2593.2,-153.8 2572.2,-153.8 2569.2,-149.8 2475.8,-149.8 2475.8,-113.8 2596.2,-113.8 2596.2,-149.8"/>
<text text-anchor="middle" x="2536" y="-127.6" font-family="Times,serif" font-size="14.00">DashboardModule</text>
</g>
<!-- MainModule&#45;&gt;DashboardModule -->
<g id="edge26" class="edge">
<title>MainModule&#45;&gt;DashboardModule</title>
<path fill="none" stroke="black" d="M1361.7,-84.96C1361.7,-107.15 1361.7,-141.8 1361.7,-141.8 1361.7,-141.8 2465.75,-141.8 2465.75,-141.8"/>
<polygon fill="black" stroke="black" points="2465.75,-145.3 2475.75,-141.8 2465.75,-138.3 2465.75,-145.3"/>
</g>
<!-- SettingsModule -->
<g id="node40" class="node">
<title>SettingsModule</title>
<polygon fill="#8dd3c7" stroke="black" points="4369.17,-149.8 4366.17,-153.8 4345.17,-153.8 4342.17,-149.8 4264.83,-149.8 4264.83,-113.8 4369.17,-113.8 4369.17,-149.8"/>
<text text-anchor="middle" x="4317" y="-127.6" font-family="Times,serif" font-size="14.00">SettingsModule</text>
</g>
<!-- MainModule&#45;&gt;SettingsModule -->
<g id="edge37" class="edge">
<title>MainModule&#45;&gt;SettingsModule</title>
<path fill="none" stroke="black" d="M1317.15,-84.84C1317.15,-92.55 1317.15,-99.8 1317.15,-99.8 1317.15,-99.8 4299.56,-99.8 4299.56,-99.8 4299.56,-99.8 4299.56,-103.56 4299.56,-103.56"/>
<polygon fill="black" stroke="black" points="4296.06,-103.56 4299.56,-113.56 4303.06,-103.56 4296.06,-103.56"/>
</g>
<!-- TasksModule -->
<g id="node54" class="node">
<title>TasksModule</title>
<polygon fill="#8dd3c7" stroke="black" points="5897.21,-149.8 5894.21,-153.8 5873.21,-153.8 5870.21,-149.8 5804.79,-149.8 5804.79,-113.8 5897.21,-113.8 5897.21,-149.8"/>
<text text-anchor="middle" x="5851" y="-127.6" font-family="Times,serif" font-size="14.00">TasksModule</text>
</g>
<!-- MainModule&#45;&gt;TasksModule -->
<g id="edge51" class="edge">
<title>MainModule&#45;&gt;TasksModule</title>
<path fill="none" stroke="black" d="M1332,-84.86C1332,-89.29 1332,-92.8 1332,-92.8 1332,-92.8 5815.41,-92.8 5815.41,-92.8 5815.41,-92.8 5815.41,-103.67 5815.41,-103.67"/>
<polygon fill="black" stroke="black" points="5811.91,-103.67 5815.41,-113.67 5818.91,-103.67 5811.91,-103.67"/>
</g>
<!-- ChangePasswordPage -->
<g id="node6" class="node">
<title>ChangePasswordPage</title>
<polygon fill="#ffffb3" stroke="black" points="464.65,-84.8 325.35,-84.8 325.35,-48.8 464.65,-48.8 464.65,-84.8"/>
<text text-anchor="middle" x="395" y="-62.6" font-family="Times,serif" font-size="14.00">ChangePasswordPage</text>
</g>
<!-- ChangePasswordPage&#45;&gt;AuthModule -->
<g id="edge5" class="edge">
<title>ChangePasswordPage&#45;&gt;AuthModule</title>
<path fill="none" stroke="black" d="M395,-84.83C395,-101.2 395,-122.8 395,-122.8 395,-122.8 561.27,-122.8 561.27,-122.8"/>
<polygon fill="black" stroke="black" points="561.27,-126.3 571.27,-122.8 561.27,-119.3 561.27,-126.3"/>
</g>
<!-- DeleteAccountPage -->
<g id="node7" class="node">
<title>DeleteAccountPage</title>
<polygon fill="#ffffb3" stroke="black" points="307.67,-84.8 180.33,-84.8 180.33,-48.8 307.67,-48.8 307.67,-84.8"/>
<text text-anchor="middle" x="244" y="-62.6" font-family="Times,serif" font-size="14.00">DeleteAccountPage</text>
</g>
<!-- DeleteAccountPage&#45;&gt;AuthModule -->
<g id="edge6" class="edge">
<title>DeleteAccountPage&#45;&gt;AuthModule</title>
<path fill="none" stroke="black" d="M244,-84.91C244,-104.14 244,-131.8 244,-131.8 244,-131.8 561.35,-131.8 561.35,-131.8"/>
<polygon fill="black" stroke="black" points="561.35,-135.3 571.35,-131.8 561.35,-128.3 561.35,-135.3"/>
</g>
<!-- ForgotPasswordPage -->
<g id="node8" class="node">
<title>ForgotPasswordPage</title>
<polygon fill="#ffffb3" stroke="black" points="971.22,-84.8 836.78,-84.8 836.78,-48.8 971.22,-48.8 971.22,-84.8"/>
<text text-anchor="middle" x="904" y="-62.6" font-family="Times,serif" font-size="14.00">ForgotPasswordPage</text>
</g>
<!-- ForgotPasswordPage&#45;&gt;AuthModule -->
<g id="edge7" class="edge">
<title>ForgotPasswordPage&#45;&gt;AuthModule</title>
<path fill="none" stroke="black" d="M904,-84.91C904,-104.14 904,-131.8 904,-131.8 904,-131.8 668.58,-131.8 668.58,-131.8"/>
<polygon fill="black" stroke="black" points="668.58,-128.3 658.58,-131.8 668.58,-135.3 668.58,-128.3"/>
</g>
<!-- LoginPage -->
<g id="node9" class="node">
<title>LoginPage</title>
<polygon fill="#ffffb3" stroke="black" points="819.16,-84.8 742.84,-84.8 742.84,-48.8 819.16,-48.8 819.16,-84.8"/>
<text text-anchor="middle" x="781" y="-62.6" font-family="Times,serif" font-size="14.00">LoginPage</text>
</g>
<!-- LoginPage&#45;&gt;AuthModule -->
<g id="edge8" class="edge">
<title>LoginPage&#45;&gt;AuthModule</title>
<path fill="none" stroke="black" d="M781,-84.83C781,-101.2 781,-122.8 781,-122.8 781,-122.8 668.61,-122.8 668.61,-122.8"/>
<polygon fill="black" stroke="black" points="668.61,-119.3 658.61,-122.8 668.61,-126.3 668.61,-119.3"/>
</g>
<!-- RegisterPage -->
<g id="node10" class="node">
<title>RegisterPage</title>
<polygon fill="#ffffb3" stroke="black" points="724.87,-84.8 635.13,-84.8 635.13,-48.8 724.87,-48.8 724.87,-84.8"/>
<text text-anchor="middle" x="680" y="-62.6" font-family="Times,serif" font-size="14.00">RegisterPage</text>
</g>
<!-- RegisterPage&#45;&gt;AuthModule -->
<g id="edge9" class="edge">
<title>RegisterPage&#45;&gt;AuthModule</title>
<path fill="none" stroke="black" d="M642.97,-84.91C642.97,-84.91 642.97,-103.79 642.97,-103.79"/>
<polygon fill="black" stroke="black" points="639.47,-103.79 642.97,-113.79 646.47,-103.79 639.47,-103.79"/>
</g>
<!-- RestoreAccountPage -->
<g id="node11" class="node">
<title>RestoreAccountPage</title>
<polygon fill="#ffffb3" stroke="black" points="616.91,-84.8 483.09,-84.8 483.09,-48.8 616.91,-48.8 616.91,-84.8"/>
<text text-anchor="middle" x="550" y="-62.6" font-family="Times,serif" font-size="14.00">RestoreAccountPage</text>
</g>
<!-- RestoreAccountPage&#45;&gt;AuthModule -->
<g id="edge10" class="edge">
<title>RestoreAccountPage&#45;&gt;AuthModule</title>
<path fill="none" stroke="black" d="M593.96,-84.91C593.96,-84.91 593.96,-103.79 593.96,-103.79"/>
<polygon fill="black" stroke="black" points="590.46,-103.79 593.96,-113.79 597.46,-103.79 590.46,-103.79"/>
</g>
<!-- AuthRoutingModule -->
<g id="node13" class="node">
<title>AuthRoutingModule</title>
<polygon fill="#8dd3c7" stroke="black" points="156.17,-84.8 153.17,-88.8 132.17,-88.8 129.17,-84.8 23.83,-84.8 23.83,-48.8 156.17,-48.8 156.17,-84.8"/>
<text text-anchor="middle" x="90" y="-62.6" font-family="Times,serif" font-size="14.00">AuthRoutingModule</text>
</g>
<!-- AuthRoutingModule&#45;&gt;AuthModule -->
<g id="edge11" class="edge">
<title>AuthRoutingModule&#45;&gt;AuthModule</title>
<path fill="none" stroke="black" d="M90,-85.09C90,-107.01 90,-140.8 90,-140.8 90,-140.8 561.14,-140.8 561.14,-140.8"/>
<polygon fill="black" stroke="black" points="561.14,-144.3 571.14,-140.8 561.14,-137.3 561.14,-144.3"/>
</g>
<!-- AddMemberDialog -->
<g id="node14" class="node">
<title>AddMemberDialog</title>
<polygon fill="#ffffb3" stroke="black" points="2136.64,-84.8 2011.36,-84.8 2011.36,-48.8 2136.64,-48.8 2136.64,-84.8"/>
<text text-anchor="middle" x="2074" y="-62.6" font-family="Times,serif" font-size="14.00">AddMemberDialog</text>
</g>
<!-- AddMemberDialog&#45;&gt;DashboardModule -->
<g id="edge13" class="edge">
<title>AddMemberDialog&#45;&gt;DashboardModule</title>
<path fill="none" stroke="black" d="M2074,-84.82C2074,-102.17 2074,-125.8 2074,-125.8 2074,-125.8 2465.6,-125.8 2465.6,-125.8"/>
<polygon fill="black" stroke="black" points="2465.6,-129.3 2475.6,-125.8 2465.6,-122.3 2465.6,-129.3"/>
</g>
<!-- CreateProjectMembersPage -->
<g id="node15" class="node">
<title>CreateProjectMembersPage</title>
<polygon fill="#ffffb3" stroke="black" points="1993.28,-84.8 1820.72,-84.8 1820.72,-48.8 1993.28,-48.8 1993.28,-84.8"/>
<text text-anchor="middle" x="1907" y="-62.6" font-family="Times,serif" font-size="14.00">CreateProjectMembersPage</text>
</g>
<!-- CreateProjectMembersPage&#45;&gt;DashboardModule -->
<g id="edge14" class="edge">
<title>CreateProjectMembersPage&#45;&gt;DashboardModule</title>
<path fill="none" stroke="black" d="M1907,-85.02C1907,-103.63 1907,-129.8 1907,-129.8 1907,-129.8 2465.69,-129.8 2465.69,-129.8"/>
<polygon fill="black" stroke="black" points="2465.69,-133.3 2475.69,-129.8 2465.69,-126.3 2465.69,-133.3"/>
</g>
<!-- CreateProjectPage -->
<g id="node16" class="node">
<title>CreateProjectPage</title>
<polygon fill="#ffffb3" stroke="black" points="3706.9,-84.8 3587.1,-84.8 3587.1,-48.8 3706.9,-48.8 3706.9,-84.8"/>
<text text-anchor="middle" x="3647" y="-62.6" font-family="Times,serif" font-size="14.00">CreateProjectPage</text>
</g>
<!-- CreateProjectPage&#45;&gt;DashboardModule -->
<g id="edge15" class="edge">
<title>CreateProjectPage&#45;&gt;DashboardModule</title>
<path fill="none" stroke="black" d="M3647,-84.95C3647,-108.56 3647,-146.8 3647,-146.8 3647,-146.8 2606.13,-146.8 2606.13,-146.8"/>
<polygon fill="black" stroke="black" points="2606.13,-143.3 2596.13,-146.8 2606.13,-150.3 2606.13,-143.3"/>
</g>
<!-- CreateWorkspacePage -->
<g id="node17" class="node">
<title>CreateWorkspacePage</title>
<polygon fill="#ffffb3" stroke="black" points="3569.21,-84.8 3426.79,-84.8 3426.79,-48.8 3569.21,-48.8 3569.21,-84.8"/>
<text text-anchor="middle" x="3498" y="-62.6" font-family="Times,serif" font-size="14.00">CreateWorkspacePage</text>
</g>
<!-- CreateWorkspacePage&#45;&gt;DashboardModule -->
<g id="edge16" class="edge">
<title>CreateWorkspacePage&#45;&gt;DashboardModule</title>
<path fill="none" stroke="black" d="M3498,-85.05C3498,-107.82 3498,-143.8 3498,-143.8 3498,-143.8 2606.18,-143.8 2606.18,-143.8"/>
<polygon fill="black" stroke="black" points="2606.18,-140.3 2596.18,-143.8 2606.18,-147.3 2606.18,-140.3"/>
</g>
<!-- EditProjectMembersPage -->
<g id="node18" class="node">
<title>EditProjectMembersPage</title>
<polygon fill="#ffffb3" stroke="black" points="3408.58,-84.8 3249.42,-84.8 3249.42,-48.8 3408.58,-48.8 3408.58,-84.8"/>
<text text-anchor="middle" x="3329" y="-62.6" font-family="Times,serif" font-size="14.00">EditProjectMembersPage</text>
</g>
<!-- EditProjectMembersPage&#45;&gt;DashboardModule -->
<g id="edge17" class="edge">
<title>EditProjectMembersPage&#45;&gt;DashboardModule</title>
<path fill="none" stroke="black" d="M3329,-85.09C3329,-107.01 3329,-140.8 3329,-140.8 3329,-140.8 2606.25,-140.8 2606.25,-140.8"/>
<polygon fill="black" stroke="black" points="2606.25,-137.3 2596.25,-140.8 2606.25,-144.3 2606.25,-137.3"/>
</g>
<!-- EditProjectPage -->
<g id="node19" class="node">
<title>EditProjectPage</title>
<polygon fill="#ffffb3" stroke="black" points="3231.2,-84.8 3124.8,-84.8 3124.8,-48.8 3231.2,-48.8 3231.2,-84.8"/>
<text text-anchor="middle" x="3178" y="-62.6" font-family="Times,serif" font-size="14.00">EditProjectPage</text>
</g>
<!-- EditProjectPage&#45;&gt;DashboardModule -->
<g id="edge18" class="edge">
<title>EditProjectPage&#45;&gt;DashboardModule</title>
<path fill="none" stroke="black" d="M3178,-84.83C3178,-105.57 3178,-136.8 3178,-136.8 3178,-136.8 2606.11,-136.8 2606.11,-136.8"/>
<polygon fill="black" stroke="black" points="2606.11,-133.3 2596.11,-136.8 2606.11,-140.3 2606.11,-133.3"/>
</g>
<!-- EditWorkspacePage -->
<g id="node20" class="node">
<title>EditWorkspacePage</title>
<polygon fill="#ffffb3" stroke="black" points="3106.51,-84.8 2977.49,-84.8 2977.49,-48.8 3106.51,-48.8 3106.51,-84.8"/>
<text text-anchor="middle" x="3042" y="-62.6" font-family="Times,serif" font-size="14.00">EditWorkspacePage</text>
</g>
<!-- EditWorkspacePage&#45;&gt;DashboardModule -->
<g id="edge19" class="edge">
<title>EditWorkspacePage&#45;&gt;DashboardModule</title>
<path fill="none" stroke="black" d="M3042,-85.11C3042,-104.95 3042,-133.8 3042,-133.8 3042,-133.8 2606.28,-133.8 2606.28,-133.8"/>
<polygon fill="black" stroke="black" points="2606.28,-130.3 2596.28,-133.8 2606.28,-137.3 2606.28,-130.3"/>
</g>
<!-- IntegrationGithubComponent -->
<g id="node21" class="node">
<title>IntegrationGithubComponent</title>
<polygon fill="#ffffb3" stroke="black" points="2958.64,-84.8 2777.36,-84.8 2777.36,-48.8 2958.64,-48.8 2958.64,-84.8"/>
<text text-anchor="middle" x="2868" y="-62.6" font-family="Times,serif" font-size="14.00">IntegrationGithubComponent</text>
</g>
<!-- IntegrationGithubComponent&#45;&gt;DashboardModule -->
<g id="edge20" class="edge">
<title>IntegrationGithubComponent&#45;&gt;DashboardModule</title>
<path fill="none" stroke="black" d="M2868,-84.97C2868,-103.89 2868,-130.8 2868,-130.8 2868,-130.8 2606.12,-130.8 2606.12,-130.8"/>
<polygon fill="black" stroke="black" points="2606.12,-127.3 2596.12,-130.8 2606.12,-134.3 2606.12,-127.3"/>
</g>
<!-- MemberListComponent -->
<g id="node22" class="node">
<title>MemberListComponent</title>
<polygon fill="#ffffb3" stroke="black" points="2759.04,-84.8 2608.96,-84.8 2608.96,-48.8 2759.04,-48.8 2759.04,-84.8"/>
<text text-anchor="middle" x="2684" y="-62.6" font-family="Times,serif" font-size="14.00">MemberListComponent</text>
</g>
<!-- MemberListComponent&#45;&gt;DashboardModule -->
<g id="edge21" class="edge">
<title>MemberListComponent&#45;&gt;DashboardModule</title>
<path fill="none" stroke="black" d="M2684,-85.1C2684,-103.07 2684,-127.8 2684,-127.8 2684,-127.8 2606.2,-127.8 2606.2,-127.8"/>
<polygon fill="black" stroke="black" points="2606.2,-124.3 2596.2,-127.8 2606.2,-131.3 2606.2,-124.3"/>
</g>
<!-- ProjectsListPage -->
<g id="node23" class="node">
<title>ProjectsListPage</title>
<polygon fill="#ffffb3" stroke="black" points="2591.1,-84.8 2480.9,-84.8 2480.9,-48.8 2591.1,-48.8 2591.1,-84.8"/>
<text text-anchor="middle" x="2536" y="-62.6" font-family="Times,serif" font-size="14.00">ProjectsListPage</text>
</g>
<!-- ProjectsListPage&#45;&gt;DashboardModule -->
<g id="edge22" class="edge">
<title>ProjectsListPage&#45;&gt;DashboardModule</title>
<path fill="none" stroke="black" d="M2536,-84.91C2536,-84.91 2536,-103.79 2536,-103.79"/>
<polygon fill="black" stroke="black" points="2532.5,-103.79 2536,-113.79 2539.5,-103.79 2532.5,-103.79"/>
</g>
<!-- ViewOptionsComponent -->
<g id="node24" class="node">
<title>ViewOptionsComponent</title>
<polygon fill="#ffffb3" stroke="black" points="2462.99,-84.8 2307.01,-84.8 2307.01,-48.8 2462.99,-48.8 2462.99,-84.8"/>
<text text-anchor="middle" x="2385" y="-62.6" font-family="Times,serif" font-size="14.00">ViewOptionsComponent</text>
</g>
<!-- ViewOptionsComponent&#45;&gt;DashboardModule -->
<g id="edge23" class="edge">
<title>ViewOptionsComponent&#45;&gt;DashboardModule</title>
<path fill="none" stroke="black" d="M2385,-84.92C2385,-99.58 2385,-117.8 2385,-117.8 2385,-117.8 2465.89,-117.8 2465.89,-117.8"/>
<polygon fill="black" stroke="black" points="2465.89,-121.3 2475.89,-117.8 2465.89,-114.3 2465.89,-121.3"/>
</g>
<!-- WorkspacesListPage -->
<g id="node25" class="node">
<title>WorkspacesListPage</title>
<polygon fill="#ffffb3" stroke="black" points="2288.91,-84.8 2155.09,-84.8 2155.09,-48.8 2288.91,-48.8 2288.91,-84.8"/>
<text text-anchor="middle" x="2222" y="-62.6" font-family="Times,serif" font-size="14.00">WorkspacesListPage</text>
</g>
<!-- WorkspacesListPage&#45;&gt;DashboardModule -->
<g id="edge24" class="edge">
<title>WorkspacesListPage&#45;&gt;DashboardModule</title>
<path fill="none" stroke="black" d="M2222,-84.81C2222,-100.85 2222,-121.8 2222,-121.8 2222,-121.8 2465.83,-121.8 2465.83,-121.8"/>
<polygon fill="black" stroke="black" points="2465.83,-125.3 2475.83,-121.8 2465.83,-118.3 2465.83,-125.3"/>
</g>
<!-- DashboardRoutingModule -->
<g id="node27" class="node">
<title>DashboardRoutingModule</title>
<polygon fill="#8dd3c7" stroke="black" points="1796.82,-84.8 1793.82,-88.8 1772.82,-88.8 1769.82,-84.8 1631.18,-84.8 1631.18,-48.8 1796.82,-48.8 1796.82,-84.8"/>
<text text-anchor="middle" x="1714" y="-62.6" font-family="Times,serif" font-size="14.00">DashboardRoutingModule</text>
</g>
<!-- DashboardRoutingModule&#45;&gt;DashboardModule -->
<g id="edge25" class="edge">
<title>DashboardRoutingModule&#45;&gt;DashboardModule</title>
<path fill="none" stroke="black" d="M1714,-85.11C1714,-104.95 1714,-133.8 1714,-133.8 1714,-133.8 2465.89,-133.8 2465.89,-133.8"/>
<polygon fill="black" stroke="black" points="2465.89,-137.3 2475.89,-133.8 2465.89,-130.3 2465.89,-137.3"/>
</g>
<!-- GitIntegrationService -->
<g id="node28" class="node">
<title>GitIntegrationService</title>
<ellipse fill="#fdb462" stroke="black" cx="1512" cy="-66.8" rx="94.9" ry="18"/>
<text text-anchor="middle" x="1512" y="-62.6" font-family="Times,serif" font-size="14.00">GitIntegrationService</text>
</g>
<!-- GitIntegrationService&#45;&gt;DashboardModule -->
<g id="edge27" class="edge">
<title>GitIntegrationService&#45;&gt;DashboardModule</title>
<path fill="none" stroke="black" d="M1512,-85.08C1512,-106.12 1512,-137.8 1512,-137.8 1512,-137.8 2465.77,-137.8 2465.77,-137.8"/>
<polygon fill="black" stroke="black" points="2465.77,-141.3 2475.77,-137.8 2465.77,-134.3 2465.77,-141.3"/>
</g>
<!-- EmailsRoutingModule -->
<g id="node29" class="node">
<title>EmailsRoutingModule</title>
<polygon fill="#8dd3c7" stroke="black" points="6965.55,-84.8 6962.55,-88.8 6941.55,-88.8 6938.55,-84.8 6822.45,-84.8 6822.45,-48.8 6965.55,-48.8 6965.55,-84.8"/>
<text text-anchor="middle" x="6894" y="-62.6" font-family="Times,serif" font-size="14.00">EmailsRoutingModule</text>
</g>
<!-- EmailsModule -->
<g id="node30" class="node">
<title>EmailsModule</title>
<polygon fill="#8dd3c7" stroke="black" points="6943.44,-149.8 6940.44,-153.8 6919.44,-153.8 6916.44,-149.8 6844.56,-149.8 6844.56,-113.8 6943.44,-113.8 6943.44,-149.8"/>
<text text-anchor="middle" x="6894" y="-127.6" font-family="Times,serif" font-size="14.00">EmailsModule</text>
</g>
<!-- EmailsRoutingModule&#45;&gt;EmailsModule -->
<g id="edge28" class="edge">
<title>EmailsRoutingModule&#45;&gt;EmailsModule</title>
<path fill="none" stroke="black" d="M6894,-84.91C6894,-84.91 6894,-103.79 6894,-103.79"/>
<polygon fill="black" stroke="black" points="6890.5,-103.79 6894,-113.79 6897.5,-103.79 6890.5,-103.79"/>
</g>
<!-- MessagesRoutingModule -->
<g id="node31" class="node">
<title>MessagesRoutingModule</title>
<polygon fill="#8dd3c7" stroke="black" points="7165.6,-84.8 7162.6,-88.8 7141.6,-88.8 7138.6,-84.8 7006.4,-84.8 7006.4,-48.8 7165.6,-48.8 7165.6,-84.8"/>
<text text-anchor="middle" x="7086" y="-62.6" font-family="Times,serif" font-size="14.00">MessagesRoutingModule</text>
</g>
<!-- MessagesModule -->
<g id="node32" class="node">
<title>MessagesModule</title>
<polygon fill="#8dd3c7" stroke="black" points="7142.99,-149.8 7139.99,-153.8 7118.99,-153.8 7115.99,-149.8 7029.01,-149.8 7029.01,-113.8 7142.99,-113.8 7142.99,-149.8"/>
<text text-anchor="middle" x="7086" y="-127.6" font-family="Times,serif" font-size="14.00">MessagesModule</text>
</g>
<!-- MessagesRoutingModule&#45;&gt;MessagesModule -->
<g id="edge29" class="edge">
<title>MessagesRoutingModule&#45;&gt;MessagesModule</title>
<path fill="none" stroke="black" d="M7086,-84.91C7086,-84.91 7086,-103.79 7086,-103.79"/>
<polygon fill="black" stroke="black" points="7082.5,-103.79 7086,-113.79 7089.5,-103.79 7082.5,-103.79"/>
</g>
<!-- IntegrationEntryComponent -->
<g id="node33" class="node">
<title>IntegrationEntryComponent</title>
<polygon fill="#ffffb3" stroke="black" points="4577.86,-84.8 4404.14,-84.8 4404.14,-48.8 4577.86,-48.8 4577.86,-84.8"/>
<text text-anchor="middle" x="4491" y="-62.6" font-family="Times,serif" font-size="14.00">IntegrationEntryComponent</text>
</g>
<!-- IntegrationEntryComponent&#45;&gt;SettingsModule -->
<g id="edge30" class="edge">
<title>IntegrationEntryComponent&#45;&gt;SettingsModule</title>
<path fill="none" stroke="black" d="M4491,-84.93C4491,-105.37 4491,-135.8 4491,-135.8 4491,-135.8 4379.21,-135.8 4379.21,-135.8"/>
<polygon fill="black" stroke="black" points="4379.21,-132.3 4369.21,-135.8 4379.21,-139.3 4379.21,-132.3"/>
</g>
<!-- ListGroupComponent -->
<g id="node34" class="node">
<title>ListGroupComponent</title>
<polygon fill="#ffffb3" stroke="black" points="4386.38,-84.8 4247.62,-84.8 4247.62,-48.8 4386.38,-48.8 4386.38,-84.8"/>
<text text-anchor="middle" x="4317" y="-62.6" font-family="Times,serif" font-size="14.00">ListGroupComponent</text>
</g>
<!-- ListGroupComponent&#45;&gt;SettingsModule -->
<g id="edge31" class="edge">
<title>ListGroupComponent&#45;&gt;SettingsModule</title>
<path fill="none" stroke="black" d="M4334.44,-84.91C4334.44,-84.91 4334.44,-103.79 4334.44,-103.79"/>
<polygon fill="black" stroke="black" points="4330.94,-103.79 4334.44,-113.79 4337.94,-103.79 4330.94,-103.79"/>
</g>
<!-- SettingsAccountPage -->
<g id="node35" class="node">
<title>SettingsAccountPage</title>
<polygon fill="#ffffb3" stroke="black" points="4229.76,-84.8 4094.24,-84.8 4094.24,-48.8 4229.76,-48.8 4229.76,-84.8"/>
<text text-anchor="middle" x="4162" y="-62.6" font-family="Times,serif" font-size="14.00">SettingsAccountPage</text>
</g>
<!-- SettingsAccountPage&#45;&gt;SettingsModule -->
<g id="edge32" class="edge">
<title>SettingsAccountPage&#45;&gt;SettingsModule</title>
<path fill="none" stroke="black" d="M4162,-84.92C4162,-99.58 4162,-117.8 4162,-117.8 4162,-117.8 4254.52,-117.8 4254.52,-117.8"/>
<polygon fill="black" stroke="black" points="4254.52,-121.3 4264.52,-117.8 4254.52,-114.3 4254.52,-121.3"/>
</g>
<!-- SettingsIntegrationsPage -->
<g id="node36" class="node">
<title>SettingsIntegrationsPage</title>
<polygon fill="#ffffb3" stroke="black" points="4076.7,-84.8 3921.3,-84.8 3921.3,-48.8 4076.7,-48.8 4076.7,-84.8"/>
<text text-anchor="middle" x="3999" y="-62.6" font-family="Times,serif" font-size="14.00">SettingsIntegrationsPage</text>
</g>
<!-- SettingsIntegrationsPage&#45;&gt;SettingsModule -->
<g id="edge33" class="edge">
<title>SettingsIntegrationsPage&#45;&gt;SettingsModule</title>
<path fill="none" stroke="black" d="M3999,-85.08C3999,-100.75 3999,-120.8 3999,-120.8 3999,-120.8 4254.49,-120.8 4254.49,-120.8"/>
<polygon fill="black" stroke="black" points="4254.49,-124.3 4264.49,-120.8 4254.49,-117.3 4254.49,-124.3"/>
</g>
<!-- SettingsLocalizationPage -->
<g id="node37" class="node">
<title>SettingsLocalizationPage</title>
<polygon fill="#ffffb3" stroke="black" points="5014.3,-84.8 4855.7,-84.8 4855.7,-48.8 5014.3,-48.8 5014.3,-84.8"/>
<text text-anchor="middle" x="4935" y="-62.6" font-family="Times,serif" font-size="14.00">SettingsLocalizationPage</text>
</g>
<!-- SettingsLocalizationPage&#45;&gt;SettingsModule -->
<g id="edge34" class="edge">
<title>SettingsLocalizationPage&#45;&gt;SettingsModule</title>
<path fill="none" stroke="black" d="M4935,-84.95C4935,-108.56 4935,-146.8 4935,-146.8 4935,-146.8 4379.42,-146.8 4379.42,-146.8"/>
<polygon fill="black" stroke="black" points="4379.42,-143.3 4369.42,-146.8 4379.42,-150.3 4379.42,-143.3"/>
</g>
<!-- SettingsPage -->
<g id="node38" class="node">
<title>SettingsPage</title>
<polygon fill="#ffffb3" stroke="black" points="4838.33,-84.8 4749.67,-84.8 4749.67,-48.8 4838.33,-48.8 4838.33,-84.8"/>
<text text-anchor="middle" x="4794" y="-62.6" font-family="Times,serif" font-size="14.00">SettingsPage</text>
</g>
<!-- SettingsPage&#45;&gt;SettingsModule -->
<g id="edge35" class="edge">
<title>SettingsPage&#45;&gt;SettingsModule</title>
<path fill="none" stroke="black" d="M4794,-84.81C4794,-107.29 4794,-142.8 4794,-142.8 4794,-142.8 4379.41,-142.8 4379.41,-142.8"/>
<polygon fill="black" stroke="black" points="4379.41,-139.3 4369.41,-142.8 4379.41,-146.3 4379.41,-139.3"/>
</g>
<!-- SettingsSessionsPage -->
<g id="node39" class="node">
<title>SettingsSessionsPage</title>
<polygon fill="#ffffb3" stroke="black" points="4732.07,-84.8 4595.93,-84.8 4595.93,-48.8 4732.07,-48.8 4732.07,-84.8"/>
<text text-anchor="middle" x="4664" y="-62.6" font-family="Times,serif" font-size="14.00">SettingsSessionsPage</text>
</g>
<!-- SettingsSessionsPage&#45;&gt;SettingsModule -->
<g id="edge36" class="edge">
<title>SettingsSessionsPage&#45;&gt;SettingsModule</title>
<path fill="none" stroke="black" d="M4664,-84.84C4664,-106.46 4664,-139.8 4664,-139.8 4664,-139.8 4379.33,-139.8 4379.33,-139.8"/>
<polygon fill="black" stroke="black" points="4379.33,-136.3 4369.33,-139.8 4379.33,-143.3 4379.33,-136.3"/>
</g>
<!-- SettingsRoutingModule -->
<g id="node41" class="node">
<title>SettingsRoutingModule</title>
<polygon fill="#8dd3c7" stroke="black" points="3896.79,-84.8 3893.79,-88.8 3872.79,-88.8 3869.79,-84.8 3747.21,-84.8 3747.21,-48.8 3896.79,-48.8 3896.79,-84.8"/>
<text text-anchor="middle" x="3822" y="-62.6" font-family="Times,serif" font-size="14.00">SettingsRoutingModule</text>
</g>
<!-- SettingsRoutingModule&#45;&gt;SettingsModule -->
<g id="edge38" class="edge">
<title>SettingsRoutingModule&#45;&gt;SettingsModule</title>
<path fill="none" stroke="black" d="M3822,-84.84C3822,-101.53 3822,-123.8 3822,-123.8 3822,-123.8 4254.49,-123.8 4254.49,-123.8"/>
<polygon fill="black" stroke="black" points="4254.49,-127.3 4264.49,-123.8 4254.49,-120.3 4254.49,-127.3"/>
</g>
<!-- BoardPage -->
<g id="node42" class="node">
<title>BoardPage</title>
<polygon fill="#ffffb3" stroke="black" points="5453.93,-84.8 5376.07,-84.8 5376.07,-48.8 5453.93,-48.8 5453.93,-84.8"/>
<text text-anchor="middle" x="5415" y="-62.6" font-family="Times,serif" font-size="14.00">BoardPage</text>
</g>
<!-- BoardPage&#45;&gt;TasksModule -->
<g id="edge39" class="edge">
<title>BoardPage&#45;&gt;TasksModule</title>
<path fill="none" stroke="black" d="M5415,-84.83C5415,-101.86 5415,-124.8 5415,-124.8 5415,-124.8 5794.75,-124.8 5794.75,-124.8"/>
<polygon fill="black" stroke="black" points="5794.75,-128.3 5804.75,-124.8 5794.75,-121.3 5794.75,-128.3"/>
</g>
<!-- BoardTaskComponent -->
<g id="node43" class="node">
<title>BoardTaskComponent</title>
<polygon fill="#ffffb3" stroke="black" points="5358.26,-84.8 5215.74,-84.8 5215.74,-48.8 5358.26,-48.8 5358.26,-84.8"/>
<text text-anchor="middle" x="5287" y="-62.6" font-family="Times,serif" font-size="14.00">BoardTaskComponent</text>
</g>
<!-- BoardTaskComponent&#45;&gt;TasksModule -->
<g id="edge40" class="edge">
<title>BoardTaskComponent&#45;&gt;TasksModule</title>
<path fill="none" stroke="black" d="M5287,-85.07C5287,-103.36 5287,-128.8 5287,-128.8 5287,-128.8 5794.85,-128.8 5794.85,-128.8"/>
<polygon fill="black" stroke="black" points="5794.85,-132.3 5804.85,-128.8 5794.85,-125.3 5794.85,-132.3"/>
</g>
<!-- InputAssigneeComponent -->
<g id="node44" class="node">
<title>InputAssigneeComponent</title>
<polygon fill="#ffffb3" stroke="black" points="6782.21,-84.8 6619.79,-84.8 6619.79,-48.8 6782.21,-48.8 6782.21,-84.8"/>
<text text-anchor="middle" x="6701" y="-62.6" font-family="Times,serif" font-size="14.00">InputAssigneeComponent</text>
</g>
<!-- InputAssigneeComponent&#45;&gt;TasksModule -->
<g id="edge41" class="edge">
<title>InputAssigneeComponent&#45;&gt;TasksModule</title>
<path fill="none" stroke="black" d="M6701,-84.89C6701,-107.93 6701,-144.8 6701,-144.8 6701,-144.8 5907.3,-144.8 5907.3,-144.8"/>
<polygon fill="black" stroke="black" points="5907.3,-141.3 5897.3,-144.8 5907.3,-148.3 5907.3,-141.3"/>
</g>
<!-- SchedulePage -->
<g id="node45" class="node">
<title>SchedulePage</title>
<polygon fill="#ffffb3" stroke="black" points="6602.03,-84.8 6507.97,-84.8 6507.97,-48.8 6602.03,-48.8 6602.03,-84.8"/>
<text text-anchor="middle" x="6555" y="-62.6" font-family="Times,serif" font-size="14.00">SchedulePage</text>
</g>
<!-- SchedulePage&#45;&gt;TasksModule -->
<g id="edge42" class="edge">
<title>SchedulePage&#45;&gt;TasksModule</title>
<path fill="none" stroke="black" d="M6555,-84.84C6555,-106.46 6555,-139.8 6555,-139.8 6555,-139.8 5907.19,-139.8 5907.19,-139.8"/>
<polygon fill="black" stroke="black" points="5907.19,-136.3 5897.19,-139.8 5907.19,-143.3 5907.19,-136.3"/>
</g>
<!-- StatusColorPipe -->
<g id="node46" class="node">
<title>StatusColorPipe</title>
<polygon fill="#ffffb3" stroke="black" points="6489.51,-84.8 6382.49,-84.8 6382.49,-48.8 6489.51,-48.8 6489.51,-84.8"/>
<text text-anchor="middle" x="6436" y="-62.6" font-family="Times,serif" font-size="14.00">StatusColorPipe</text>
</g>
<!-- StatusColorPipe&#45;&gt;TasksModule -->
<g id="edge43" class="edge">
<title>StatusColorPipe&#45;&gt;TasksModule</title>
<path fill="none" stroke="black" d="M6436,-85.02C6436,-105.17 6436,-134.8 6436,-134.8 6436,-134.8 5907.39,-134.8 5907.39,-134.8"/>
<polygon fill="black" stroke="black" points="5907.39,-131.3 5897.39,-134.8 5907.39,-138.3 5907.39,-131.3"/>
</g>
<!-- StatusLabelComponent -->
<g id="node47" class="node">
<title>StatusLabelComponent</title>
<polygon fill="#ffffb3" stroke="black" points="6364.93,-84.8 6217.07,-84.8 6217.07,-48.8 6364.93,-48.8 6364.93,-84.8"/>
<text text-anchor="middle" x="6291" y="-62.6" font-family="Times,serif" font-size="14.00">StatusLabelComponent</text>
</g>
<!-- StatusLabelComponent&#45;&gt;TasksModule -->
<g id="edge44" class="edge">
<title>StatusLabelComponent&#45;&gt;TasksModule</title>
<path fill="none" stroke="black" d="M6291,-85.02C6291,-103.63 6291,-129.8 6291,-129.8 6291,-129.8 5907.26,-129.8 5907.26,-129.8"/>
<polygon fill="black" stroke="black" points="5907.26,-126.3 5897.26,-129.8 5907.26,-133.3 5907.26,-126.3"/>
</g>
<!-- TaskDialog -->
<g id="node48" class="node">
<title>TaskDialog</title>
<polygon fill="#ffffb3" stroke="black" points="6199.82,-84.8 6118.18,-84.8 6118.18,-48.8 6199.82,-48.8 6199.82,-84.8"/>
<text text-anchor="middle" x="6159" y="-62.6" font-family="Times,serif" font-size="14.00">TaskDialog</text>
</g>
<!-- TaskDialog&#45;&gt;TasksModule -->
<g id="edge45" class="edge">
<title>TaskDialog&#45;&gt;TasksModule</title>
<path fill="none" stroke="black" d="M6159,-84.83C6159,-101.86 6159,-124.8 6159,-124.8 6159,-124.8 5907.11,-124.8 5907.11,-124.8"/>
<polygon fill="black" stroke="black" points="5907.11,-121.3 5897.11,-124.8 5907.11,-128.3 5907.11,-121.3"/>
</g>
<!-- TaskListPage -->
<g id="node49" class="node">
<title>TaskListPage</title>
<polygon fill="#ffffb3" stroke="black" points="6100.21,-84.8 6007.79,-84.8 6007.79,-48.8 6100.21,-48.8 6100.21,-84.8"/>
<text text-anchor="middle" x="6054" y="-62.6" font-family="Times,serif" font-size="14.00">TaskListPage</text>
</g>
<!-- TaskListPage&#45;&gt;TasksModule -->
<g id="edge46" class="edge">
<title>TaskListPage&#45;&gt;TasksModule</title>
<path fill="none" stroke="black" d="M6054,-85.04C6054,-100.37 6054,-119.8 6054,-119.8 6054,-119.8 5907.32,-119.8 5907.32,-119.8"/>
<polygon fill="black" stroke="black" points="5907.32,-116.3 5897.32,-119.8 5907.32,-123.3 5907.32,-116.3"/>
</g>
<!-- TaskPriorityIconPipe -->
<g id="node50" class="node">
<title>TaskPriorityIconPipe</title>
<polygon fill="#ffffb3" stroke="black" points="5989.76,-84.8 5854.24,-84.8 5854.24,-48.8 5989.76,-48.8 5989.76,-84.8"/>
<text text-anchor="middle" x="5922" y="-62.6" font-family="Times,serif" font-size="14.00">TaskPriorityIconPipe</text>
</g>
<!-- TaskPriorityIconPipe&#45;&gt;TasksModule -->
<g id="edge47" class="edge">
<title>TaskPriorityIconPipe&#45;&gt;TasksModule</title>
<path fill="none" stroke="black" d="M5875.61,-84.91C5875.61,-84.91 5875.61,-103.79 5875.61,-103.79"/>
<polygon fill="black" stroke="black" points="5872.11,-103.79 5875.61,-113.79 5879.11,-103.79 5872.11,-103.79"/>
</g>
<!-- TaskPriorityPipe -->
<g id="node51" class="node">
<title>TaskPriorityPipe</title>
<polygon fill="#ffffb3" stroke="black" points="5836.38,-84.8 5725.62,-84.8 5725.62,-48.8 5836.38,-48.8 5836.38,-84.8"/>
<text text-anchor="middle" x="5781" y="-62.6" font-family="Times,serif" font-size="14.00">TaskPriorityPipe</text>
</g>
<!-- TaskPriorityPipe&#45;&gt;TasksModule -->
<g id="edge48" class="edge">
<title>TaskPriorityPipe&#45;&gt;TasksModule</title>
<path fill="none" stroke="black" d="M5825.93,-84.91C5825.93,-84.91 5825.93,-103.79 5825.93,-103.79"/>
<polygon fill="black" stroke="black" points="5822.43,-103.79 5825.93,-113.79 5829.43,-103.79 5822.43,-103.79"/>
</g>
<!-- TaskTypeIconPipe -->
<g id="node52" class="node">
<title>TaskTypeIconPipe</title>
<polygon fill="#ffffb3" stroke="black" points="5707.75,-84.8 5586.25,-84.8 5586.25,-48.8 5707.75,-48.8 5707.75,-84.8"/>
<text text-anchor="middle" x="5647" y="-62.6" font-family="Times,serif" font-size="14.00">TaskTypeIconPipe</text>
</g>
<!-- TaskTypeIconPipe&#45;&gt;TasksModule -->
<g id="edge49" class="edge">
<title>TaskTypeIconPipe&#45;&gt;TasksModule</title>
<path fill="none" stroke="black" d="M5647,-84.92C5647,-99.58 5647,-117.8 5647,-117.8 5647,-117.8 5794.71,-117.8 5794.71,-117.8"/>
<polygon fill="black" stroke="black" points="5794.71,-121.3 5804.71,-117.8 5794.71,-114.3 5794.71,-121.3"/>
</g>
<!-- TaskTypePipe -->
<g id="node53" class="node">
<title>TaskTypePipe</title>
<polygon fill="#ffffb3" stroke="black" points="5568.37,-84.8 5471.63,-84.8 5471.63,-48.8 5568.37,-48.8 5568.37,-84.8"/>
<text text-anchor="middle" x="5520" y="-62.6" font-family="Times,serif" font-size="14.00">TaskTypePipe</text>
</g>
<!-- TaskTypePipe&#45;&gt;TasksModule -->
<g id="edge50" class="edge">
<title>TaskTypePipe&#45;&gt;TasksModule</title>
<path fill="none" stroke="black" d="M5520,-84.81C5520,-100.85 5520,-121.8 5520,-121.8 5520,-121.8 5794.63,-121.8 5794.63,-121.8"/>
<polygon fill="black" stroke="black" points="5794.63,-125.3 5804.63,-121.8 5794.63,-118.3 5794.63,-125.3"/>
</g>
<!-- TasksRoutingModule -->
<g id="node55" class="node">
<title>TasksRoutingModule</title>
<polygon fill="#8dd3c7" stroke="black" points="5191.83,-84.8 5188.83,-88.8 5167.83,-88.8 5164.83,-84.8 5054.17,-84.8 5054.17,-48.8 5191.83,-48.8 5191.83,-84.8"/>
<text text-anchor="middle" x="5123" y="-62.6" font-family="Times,serif" font-size="14.00">TasksRoutingModule</text>
</g>
<!-- TasksRoutingModule&#45;&gt;TasksModule -->
<g id="edge52" class="edge">
<title>TasksRoutingModule&#45;&gt;TasksModule</title>
<path fill="none" stroke="black" d="M5123,-84.91C5123,-104.14 5123,-131.8 5123,-131.8 5123,-131.8 5794.63,-131.8 5794.63,-131.8"/>
<polygon fill="black" stroke="black" points="5794.63,-135.3 5804.63,-131.8 5794.63,-128.3 5794.63,-135.3"/>
</g>
</g>
</svg>
