<?xml version="1.0" encoding="UTF-8" standalone="no"?>
<!DOCTYPE svg PUBLIC "-//W3C//DTD SVG 1.1//EN"
 "http://www.w3.org/Graphics/SVG/1.1/DTD/svg11.dtd">
<!-- Generated by graphviz version 3.0.0 (20220226.1711)
 -->
<!-- Title: dependencies Pages: 1 -->
<svg width="7371pt" height="247pt"
 viewBox="0.00 0.00 7371.00 246.80" xmlns="http://www.w3.org/2000/svg" xmlns:xlink="http://www.w3.org/1999/xlink">
<g id="graph0" class="graph" transform="scale(1 1) rotate(0) translate(4 242.8)">
<title>dependencies</title>
<polygon fill="white" stroke="transparent" points="-4,4 -4,-242.8 7367,-242.8 7367,4 -4,4"/>
<text text-anchor="middle" x="3681.5" y="-8.2" font-family="sans-serif" font-size="14.00">dependencies</text>
<g id="clust1" class="cluster">
<title>cluster_AppModule</title>
<polygon fill="none" stroke="black" stroke-dasharray="1,5" points="995,-32.8 995,-230.8 1566,-230.8 1566,-32.8 995,-32.8"/>
</g>
<g id="clust2" class="cluster">
<title>cluster_AppModule_declarations</title>
<polygon fill="none" stroke="black" points="1003,-40.8 1003,-92.8 1298,-92.8 1298,-40.8 1003,-40.8"/>
</g>
<g id="clust5" class="cluster">
<title>cluster_AppModule_imports</title>
<polygon fill="none" stroke="black" points="1306,-40.8 1306,-92.8 1558,-92.8 1558,-40.8 1306,-40.8"/>
</g>
<g id="clust7" class="cluster">
<title>cluster_AppModule_bootstrap</title>
<polygon fill="none" stroke="black" points="1245,-170.8 1245,-222.8 1369,-222.8 1369,-170.8 1245,-170.8"/>
</g>
<g id="clust15" class="cluster">
<title>cluster_AuthModule</title>
<polygon fill="none" stroke="black" stroke-dasharray="1,5" points="8,-32.8 8,-157.8 987,-157.8 987,-32.8 8,-32.8"/>
</g>
<g id="clust16" class="cluster">
<title>cluster_AuthModule_declarations</title>
<polygon fill="none" stroke="black" points="172,-40.8 172,-92.8 979,-92.8 979,-40.8 172,-40.8"/>
</g>
<g id="clust23" class="cluster">
<title>cluster_AuthModule_imports</title>
<polygon fill="none" stroke="black" points="16,-40.8 16,-92.8 164,-92.8 164,-40.8 16,-40.8"/>
</g>
<g id="clust33" class="cluster">
<title>cluster_DashboardModule</title>
<polygon fill="none" stroke="black" stroke-dasharray="1,5" points="1574,-32.8 1574,-157.8 3896,-157.8 3896,-32.8 1574,-32.8"/>
</g>
<g id="clust34" class="cluster">
<title>cluster_DashboardModule_declarations</title>
<polygon fill="none" stroke="black" points="1986,-40.8 1986,-92.8 3888,-92.8 3888,-40.8 1986,-40.8"/>
</g>
<g id="clust47" class="cluster">
<title>cluster_DashboardModule_imports</title>
<polygon fill="none" stroke="black" points="1796,-40.8 1796,-92.8 1978,-92.8 1978,-40.8 1796,-40.8"/>
</g>
<g id="clust50" class="cluster">
<title>cluster_DashboardModule_providers</title>
<polygon fill="none" stroke="black" points="1582,-40.8 1582,-92.8 1788,-92.8 1788,-40.8 1582,-40.8"/>
</g>
<g id="clust57" class="cluster">
<title>cluster_EmailsModule</title>
<polygon fill="none" stroke="black" stroke-dasharray="1,5" points="6979,-32.8 6979,-157.8 7155,-157.8 7155,-32.8 6979,-32.8"/>
</g>
<g id="clust59" class="cluster">
<title>cluster_EmailsModule_imports</title>
<polygon fill="none" stroke="black" points="6987,-40.8 6987,-92.8 7147,-92.8 7147,-40.8 6987,-40.8"/>
</g>
<g id="clust75" class="cluster">
<title>cluster_MessagesModule</title>
<polygon fill="none" stroke="black" stroke-dasharray="1,5" points="7163,-32.8 7163,-157.8 7355,-157.8 7355,-32.8 7163,-32.8"/>
</g>
<g id="clust77" class="cluster">
<title>cluster_MessagesModule_imports</title>
<polygon fill="none" stroke="black" points="7171,-40.8 7171,-92.8 7347,-92.8 7347,-40.8 7171,-40.8"/>
</g>
<g id="clust87" class="cluster">
<title>cluster_SettingsModule</title>
<polygon fill="none" stroke="black" stroke-dasharray="1,5" points="3904,-32.8 3904,-157.8 5203,-157.8 5203,-32.8 3904,-32.8"/>
</g>
<g id="clust88" class="cluster">
<title>cluster_SettingsModule_declarations</title>
<polygon fill="none" stroke="black" points="4086,-40.8 4086,-92.8 5195,-92.8 5195,-40.8 4086,-40.8"/>
</g>
<g id="clust96" class="cluster">
<title>cluster_SettingsModule_imports</title>
<polygon fill="none" stroke="black" points="3912,-40.8 3912,-92.8 4078,-92.8 4078,-40.8 3912,-40.8"/>
</g>
<g id="clust106" class="cluster">
<title>cluster_TasksModule</title>
<polygon fill="none" stroke="black" stroke-dasharray="1,5" points="5211,-32.8 5211,-157.8 6971,-157.8 6971,-32.8 5211,-32.8"/>
</g>
<g id="clust107" class="cluster">
<title>cluster_TasksModule_declarations</title>
<polygon fill="none" stroke="black" points="5381,-40.8 5381,-92.8 6963,-92.8 6963,-40.8 5381,-40.8"/>
</g>
<g id="clust120" class="cluster">
<title>cluster_TasksModule_imports</title>
<polygon fill="none" stroke="black" points="5219,-40.8 5219,-92.8 5373,-92.8 5373,-40.8 5219,-40.8"/>
</g>
<!-- AppComponent -->
<g id="node1" class="node">
<title>AppComponent</title>
<polygon fill="#ffffb3" stroke="black" points="1289.94,-84.8 1184.06,-84.8 1184.06,-48.8 1289.94,-48.8 1289.94,-84.8"/>
<text text-anchor="middle" x="1237" y="-62.6" font-family="Times,serif" font-size="14.00">AppComponent</text>
</g>
<!-- AppModule -->
<g id="node3" class="node">
<title>AppModule</title>
<polygon fill="#8dd3c7" stroke="black" points="1348.66,-149.8 1345.66,-153.8 1324.66,-153.8 1321.66,-149.8 1265.34,-149.8 1265.34,-113.8 1348.66,-113.8 1348.66,-149.8"/>
<text text-anchor="middle" x="1307" y="-127.6" font-family="Times,serif" font-size="14.00">AppModule</text>
</g>
<!-- AppComponent&#45;&gt;AppModule -->
<g id="edge1" class="edge">
<title>AppComponent&#45;&gt;AppModule</title>
<path fill="none" stroke="black" d="M1277.44,-84.91C1277.44,-84.91 1277.44,-103.79 1277.44,-103.79"/>
<polygon fill="black" stroke="black" points="1273.94,-103.79 1277.44,-113.79 1280.94,-103.79 1273.94,-103.79"/>
</g>
<!-- LandingPageComponent -->
<g id="node2" class="node">
<title>LandingPageComponent</title>
<polygon fill="#ffffb3" stroke="black" points="1166.7,-84.8 1011.3,-84.8 1011.3,-48.8 1166.7,-48.8 1166.7,-84.8"/>
<text text-anchor="middle" x="1089" y="-62.6" font-family="Times,serif" font-size="14.00">LandingPageComponent</text>
</g>
<!-- LandingPageComponent&#45;&gt;AppModule -->
<g id="edge2" class="edge">
<title>LandingPageComponent&#45;&gt;AppModule</title>
<path fill="none" stroke="black" d="M1089,-84.83C1089,-101.2 1089,-122.8 1089,-122.8 1089,-122.8 1255.23,-122.8 1255.23,-122.8"/>
<polygon fill="black" stroke="black" points="1255.23,-126.3 1265.23,-122.8 1255.23,-119.3 1255.23,-126.3"/>
</g>
<!-- AppComponent  -->
<g id="node6" class="node">
<title>AppComponent </title>
<polygon fill="#80b1d3" stroke="black" points="1361.44,-214.8 1252.56,-214.8 1252.56,-178.8 1361.44,-178.8 1361.44,-214.8"/>
<text text-anchor="middle" x="1307" y="-192.6" font-family="Times,serif" font-size="14.00">AppComponent </text>
</g>
<!-- AppModule&#45;&gt;AppComponent  -->
<g id="edge5" class="edge">
<title>AppModule&#45;&gt;AppComponent </title>
<path fill="none" stroke="black" stroke-dasharray="1,5" d="M1307,-149.91C1307,-149.91 1307,-168.79 1307,-168.79"/>
<polygon fill="black" stroke="black" points="1303.5,-168.79 1307,-178.79 1310.5,-168.79 1303.5,-168.79"/>
</g>
<!-- AppRoutingModule -->
<g id="node4" class="node">
<title>AppRoutingModule</title>
<polygon fill="#8dd3c7" stroke="black" points="1442.28,-84.8 1439.28,-88.8 1418.28,-88.8 1415.28,-84.8 1313.72,-84.8 1313.72,-48.8 1442.28,-48.8 1442.28,-84.8"/>
<text text-anchor="middle" x="1378" y="-62.6" font-family="Times,serif" font-size="14.00">AppRoutingModule</text>
</g>
<!-- AppRoutingModule&#45;&gt;AppModule -->
<g id="edge3" class="edge">
<title>AppRoutingModule&#45;&gt;AppModule</title>
<path fill="none" stroke="black" d="M1331.22,-84.91C1331.22,-84.91 1331.22,-103.79 1331.22,-103.79"/>
<polygon fill="black" stroke="black" points="1327.72,-103.79 1331.22,-113.79 1334.72,-103.79 1327.72,-103.79"/>
</g>
<!-- MainModule -->
<g id="node5" class="node">
<title>MainModule</title>
<polygon fill="#8dd3c7" stroke="black" points="1549.6,-84.8 1546.6,-88.8 1525.6,-88.8 1522.6,-84.8 1460.4,-84.8 1460.4,-48.8 1549.6,-48.8 1549.6,-84.8"/>
<text text-anchor="middle" x="1505" y="-62.6" font-family="Times,serif" font-size="14.00">MainModule</text>
</g>
<!-- MainModule&#45;&gt;AppModule -->
<g id="edge4" class="edge">
<title>MainModule&#45;&gt;AppModule</title>
<path fill="none" stroke="black" d="M1519.85,-84.92C1519.85,-99.58 1519.85,-117.8 1519.85,-117.8 1519.85,-117.8 1358.8,-117.8 1358.8,-117.8"/>
<polygon fill="black" stroke="black" points="1358.8,-114.3 1348.8,-117.8 1358.8,-121.3 1358.8,-114.3"/>
</g>
<!-- AuthModule -->
<g id="node13" class="node">
<title>AuthModule</title>
<polygon fill="#8dd3c7" stroke="black" points="582.55,-149.8 579.55,-153.8 558.55,-153.8 555.55,-149.8 495.45,-149.8 495.45,-113.8 582.55,-113.8 582.55,-149.8"/>
<text text-anchor="middle" x="539" y="-127.6" font-family="Times,serif" font-size="14.00">AuthModule</text>
</g>
<!-- MainModule&#45;&gt;AuthModule -->
<g id="edge13" class="edge">
<title>MainModule&#45;&gt;AuthModule</title>
<path fill="none" stroke="black" d="M1475.3,-84.93C1475.3,-95.51 1475.3,-106.8 1475.3,-106.8 1475.3,-106.8 566.48,-106.8 566.48,-106.8 566.48,-106.8 566.48,-107.48 566.48,-107.48"/>
<polygon fill="black" stroke="black" points="562.98,-103.63 566.48,-113.63 569.98,-103.63 562.98,-103.63"/>
</g>
<!-- DashboardModule -->
<g id="node27" class="node">
<title>DashboardModule</title>
<polygon fill="#8dd3c7" stroke="black" points="2767.2,-149.8 2764.2,-153.8 2743.2,-153.8 2740.2,-149.8 2646.8,-149.8 2646.8,-113.8 2767.2,-113.8 2767.2,-149.8"/>
<text text-anchor="middle" x="2707" y="-127.6" font-family="Times,serif" font-size="14.00">DashboardModule</text>
</g>
<!-- MainModule&#45;&gt;DashboardModule -->
<g id="edge27" class="edge">
<title>MainModule&#45;&gt;DashboardModule</title>
<path fill="none" stroke="black" d="M1534.7,-85.12C1534.7,-108.46 1534.7,-145.8 1534.7,-145.8 1534.7,-145.8 2636.85,-145.8 2636.85,-145.8"/>
<polygon fill="black" stroke="black" points="2636.85,-149.3 2646.85,-145.8 2636.85,-142.3 2636.85,-149.3"/>
</g>
<!-- SettingsModule -->
<g id="node41" class="node">
<title>SettingsModule</title>
<polygon fill="#8dd3c7" stroke="black" points="4562.17,-149.8 4559.17,-153.8 4538.17,-153.8 4535.17,-149.8 4457.83,-149.8 4457.83,-113.8 4562.17,-113.8 4562.17,-149.8"/>
<text text-anchor="middle" x="4510" y="-127.6" font-family="Times,serif" font-size="14.00">SettingsModule</text>
</g>
<!-- MainModule&#45;&gt;SettingsModule -->
<g id="edge38" class="edge">
<title>MainModule&#45;&gt;SettingsModule</title>
<path fill="none" stroke="black" d="M1490.15,-84.84C1490.15,-92.55 1490.15,-99.8 1490.15,-99.8 1490.15,-99.8 4492.56,-99.8 4492.56,-99.8 4492.56,-99.8 4492.56,-103.56 4492.56,-103.56"/>
<polygon fill="black" stroke="black" points="4489.06,-103.56 4492.56,-113.56 4496.06,-103.56 4489.06,-103.56"/>
</g>
<!-- TasksModule -->
<g id="node55" class="node">
<title>TasksModule</title>
<polygon fill="#8dd3c7" stroke="black" points="6069.21,-149.8 6066.21,-153.8 6045.21,-153.8 6042.21,-149.8 5976.79,-149.8 5976.79,-113.8 6069.21,-113.8 6069.21,-149.8"/>
<text text-anchor="middle" x="6023" y="-127.6" font-family="Times,serif" font-size="14.00">TasksModule</text>
</g>
<!-- MainModule&#45;&gt;TasksModule -->
<g id="edge52" class="edge">
<title>MainModule&#45;&gt;TasksModule</title>
<path fill="none" stroke="black" d="M1505,-84.86C1505,-89.29 1505,-92.8 1505,-92.8 1505,-92.8 5990.3,-92.8 5990.3,-92.8 5990.3,-92.8 5990.3,-103.67 5990.3,-103.67"/>
<polygon fill="black" stroke="black" points="5986.8,-103.67 5990.3,-113.67 5993.8,-103.67 5986.8,-103.67"/>
</g>
<!-- ChangePasswordPage -->
<g id="node7" class="node">
<title>ChangePasswordPage</title>
<polygon fill="#ffffb3" stroke="black" points="970.65,-84.8 831.35,-84.8 831.35,-48.8 970.65,-48.8 970.65,-84.8"/>
<text text-anchor="middle" x="901" y="-62.6" font-family="Times,serif" font-size="14.00">ChangePasswordPage</text>
</g>
<!-- ChangePasswordPage&#45;&gt;AuthModule -->
<g id="edge6" class="edge">
<title>ChangePasswordPage&#45;&gt;AuthModule</title>
<path fill="none" stroke="black" d="M901,-85.09C901,-107.01 901,-140.8 901,-140.8 901,-140.8 592.67,-140.8 592.67,-140.8"/>
<polygon fill="black" stroke="black" points="592.67,-137.3 582.67,-140.8 592.67,-144.3 592.67,-137.3"/>
</g>
<!-- DeleteAccountPage -->
<g id="node8" class="node">
<title>DeleteAccountPage</title>
<polygon fill="#ffffb3" stroke="black" points="813.67,-84.8 686.33,-84.8 686.33,-48.8 813.67,-48.8 813.67,-84.8"/>
<text text-anchor="middle" x="750" y="-62.6" font-family="Times,serif" font-size="14.00">DeleteAccountPage</text>
</g>
<!-- DeleteAccountPage&#45;&gt;AuthModule -->
<g id="edge7" class="edge">
<title>DeleteAccountPage&#45;&gt;AuthModule</title>
<path fill="none" stroke="black" d="M750,-84.91C750,-104.14 750,-131.8 750,-131.8 750,-131.8 592.72,-131.8 592.72,-131.8"/>
<polygon fill="black" stroke="black" points="592.72,-128.3 582.72,-131.8 592.72,-135.3 592.72,-128.3"/>
</g>
<!-- ForgotPasswordPage -->
<g id="node9" class="node">
<title>ForgotPasswordPage</title>
<polygon fill="#ffffb3" stroke="black" points="668.22,-84.8 533.78,-84.8 533.78,-48.8 668.22,-48.8 668.22,-84.8"/>
<text text-anchor="middle" x="601" y="-62.6" font-family="Times,serif" font-size="14.00">ForgotPasswordPage</text>
</g>
<!-- ForgotPasswordPage&#45;&gt;AuthModule -->
<g id="edge8" class="edge">
<title>ForgotPasswordPage&#45;&gt;AuthModule</title>
<path fill="none" stroke="black" d="M550.19,-84.91C550.19,-84.91 550.19,-103.79 550.19,-103.79"/>
<polygon fill="black" stroke="black" points="546.69,-103.79 550.19,-113.79 553.69,-103.79 546.69,-103.79"/>
</g>
<!-- LoginPage -->
<g id="node10" class="node">
<title>LoginPage</title>
<polygon fill="#ffffb3" stroke="black" points="516.16,-84.8 439.84,-84.8 439.84,-48.8 516.16,-48.8 516.16,-84.8"/>
<text text-anchor="middle" x="478" y="-62.6" font-family="Times,serif" font-size="14.00">LoginPage</text>
</g>
<!-- LoginPage&#45;&gt;AuthModule -->
<g id="edge9" class="edge">
<title>LoginPage&#45;&gt;AuthModule</title>
<path fill="none" stroke="black" d="M505.78,-84.91C505.78,-84.91 505.78,-103.79 505.78,-103.79"/>
<polygon fill="black" stroke="black" points="502.28,-103.79 505.78,-113.79 509.28,-103.79 502.28,-103.79"/>
</g>
<!-- RegisterPage -->
<g id="node11" class="node">
<title>RegisterPage</title>
<polygon fill="#ffffb3" stroke="black" points="421.87,-84.8 332.13,-84.8 332.13,-48.8 421.87,-48.8 421.87,-84.8"/>
<text text-anchor="middle" x="377" y="-62.6" font-family="Times,serif" font-size="14.00">RegisterPage</text>
</g>
<!-- RegisterPage&#45;&gt;AuthModule -->
<g id="edge10" class="edge">
<title>RegisterPage&#45;&gt;AuthModule</title>
<path fill="none" stroke="black" d="M377,-84.83C377,-101.2 377,-122.8 377,-122.8 377,-122.8 485.16,-122.8 485.16,-122.8"/>
<polygon fill="black" stroke="black" points="485.16,-126.3 495.16,-122.8 485.16,-119.3 485.16,-126.3"/>
</g>
<!-- RestoreAccountPage -->
<g id="node12" class="node">
<title>RestoreAccountPage</title>
<polygon fill="#ffffb3" stroke="black" points="313.91,-84.8 180.09,-84.8 180.09,-48.8 313.91,-48.8 313.91,-84.8"/>
<text text-anchor="middle" x="247" y="-62.6" font-family="Times,serif" font-size="14.00">RestoreAccountPage</text>
</g>
<!-- RestoreAccountPage&#45;&gt;AuthModule -->
<g id="edge11" class="edge">
<title>RestoreAccountPage&#45;&gt;AuthModule</title>
<path fill="none" stroke="black" d="M247,-84.91C247,-104.14 247,-131.8 247,-131.8 247,-131.8 485.28,-131.8 485.28,-131.8"/>
<polygon fill="black" stroke="black" points="485.28,-135.3 495.28,-131.8 485.28,-128.3 485.28,-135.3"/>
</g>
<!-- AuthRoutingModule -->
<g id="node14" class="node">
<title>AuthRoutingModule</title>
<polygon fill="#8dd3c7" stroke="black" points="156.17,-84.8 153.17,-88.8 132.17,-88.8 129.17,-84.8 23.83,-84.8 23.83,-48.8 156.17,-48.8 156.17,-84.8"/>
<text text-anchor="middle" x="90" y="-62.6" font-family="Times,serif" font-size="14.00">AuthRoutingModule</text>
</g>
<!-- AuthRoutingModule&#45;&gt;AuthModule -->
<g id="edge12" class="edge">
<title>AuthRoutingModule&#45;&gt;AuthModule</title>
<path fill="none" stroke="black" d="M90,-85.09C90,-107.01 90,-140.8 90,-140.8 90,-140.8 485.13,-140.8 485.13,-140.8"/>
<polygon fill="black" stroke="black" points="485.13,-144.3 495.13,-140.8 485.13,-137.3 485.13,-144.3"/>
</g>
<!-- AddMemberDialog -->
<g id="node15" class="node">
<title>AddMemberDialog</title>
<polygon fill="#ffffb3" stroke="black" points="3879.64,-84.8 3754.36,-84.8 3754.36,-48.8 3879.64,-48.8 3879.64,-84.8"/>
<text text-anchor="middle" x="3817" y="-62.6" font-family="Times,serif" font-size="14.00">AddMemberDialog</text>
</g>
<!-- AddMemberDialog&#45;&gt;DashboardModule -->
<g id="edge14" class="edge">
<title>AddMemberDialog&#45;&gt;DashboardModule</title>
<path fill="none" stroke="black" d="M3817,-84.83C3817,-105.57 3817,-136.8 3817,-136.8 3817,-136.8 2777.47,-136.8 2777.47,-136.8"/>
<polygon fill="black" stroke="black" points="2777.47,-133.3 2767.47,-136.8 2777.47,-140.3 2777.47,-133.3"/>
</g>
<!-- CreateProjectMembersPage -->
<g id="node16" class="node">
<title>CreateProjectMembersPage</title>
<polygon fill="#ffffb3" stroke="black" points="3736.28,-84.8 3563.72,-84.8 3563.72,-48.8 3736.28,-48.8 3736.28,-84.8"/>
<text text-anchor="middle" x="3650" y="-62.6" font-family="Times,serif" font-size="14.00">CreateProjectMembersPage</text>
</g>
<!-- CreateProjectMembersPage&#45;&gt;DashboardModule -->
<g id="edge15" class="edge">
<title>CreateProjectMembersPage&#45;&gt;DashboardModule</title>
<path fill="none" stroke="black" d="M3650,-85.11C3650,-104.95 3650,-133.8 3650,-133.8 3650,-133.8 2777.42,-133.8 2777.42,-133.8"/>
<polygon fill="black" stroke="black" points="2777.42,-130.3 2767.42,-133.8 2777.42,-137.3 2777.42,-130.3"/>
</g>
<!-- CreateProjectPage -->
<g id="node17" class="node">
<title>CreateProjectPage</title>
<polygon fill="#ffffb3" stroke="black" points="3545.9,-84.8 3426.1,-84.8 3426.1,-48.8 3545.9,-48.8 3545.9,-84.8"/>
<text text-anchor="middle" x="3486" y="-62.6" font-family="Times,serif" font-size="14.00">CreateProjectPage</text>
</g>
<!-- CreateProjectPage&#45;&gt;DashboardModule -->
<g id="edge16" class="edge">
<title>CreateProjectPage&#45;&gt;DashboardModule</title>
<path fill="none" stroke="black" d="M3486,-84.97C3486,-103.89 3486,-130.8 3486,-130.8 3486,-130.8 2777.16,-130.8 2777.16,-130.8"/>
<polygon fill="black" stroke="black" points="2777.16,-127.3 2767.16,-130.8 2777.16,-134.3 2777.16,-127.3"/>
</g>
<!-- CreateWorkspacePage -->
<g id="node18" class="node">
<title>CreateWorkspacePage</title>
<polygon fill="#ffffb3" stroke="black" points="3408.21,-84.8 3265.79,-84.8 3265.79,-48.8 3408.21,-48.8 3408.21,-84.8"/>
<text text-anchor="middle" x="3337" y="-62.6" font-family="Times,serif" font-size="14.00">CreateWorkspacePage</text>
</g>
<!-- CreateWorkspacePage&#45;&gt;DashboardModule -->
<g id="edge17" class="edge">
<title>CreateWorkspacePage&#45;&gt;DashboardModule</title>
<path fill="none" stroke="black" d="M3337,-85.1C3337,-103.07 3337,-127.8 3337,-127.8 3337,-127.8 2777.12,-127.8 2777.12,-127.8"/>
<polygon fill="black" stroke="black" points="2777.12,-124.3 2767.12,-127.8 2777.12,-131.3 2777.12,-124.3"/>
</g>
<!-- EditProjectMembersPage -->
<g id="node19" class="node">
<title>EditProjectMembersPage</title>
<polygon fill="#ffffb3" stroke="black" points="3247.58,-84.8 3088.42,-84.8 3088.42,-48.8 3247.58,-48.8 3247.58,-84.8"/>
<text text-anchor="middle" x="3168" y="-62.6" font-family="Times,serif" font-size="14.00">EditProjectMembersPage</text>
</g>
<!-- EditProjectMembersPage&#45;&gt;DashboardModule -->
<g id="edge18" class="edge">
<title>EditProjectMembersPage&#45;&gt;DashboardModule</title>
<path fill="none" stroke="black" d="M3168,-84.84C3168,-101.53 3168,-123.8 3168,-123.8 3168,-123.8 2777.27,-123.8 2777.27,-123.8"/>
<polygon fill="black" stroke="black" points="2777.27,-120.3 2767.27,-123.8 2777.27,-127.3 2777.27,-120.3"/>
</g>
<!-- EditProjectPage -->
<g id="node20" class="node">
<title>EditProjectPage</title>
<polygon fill="#ffffb3" stroke="black" points="3070.2,-84.8 2963.8,-84.8 2963.8,-48.8 3070.2,-48.8 3070.2,-84.8"/>
<text text-anchor="middle" x="3017" y="-62.6" font-family="Times,serif" font-size="14.00">EditProjectPage</text>
</g>
<!-- EditProjectPage&#45;&gt;DashboardModule -->
<g id="edge19" class="edge">
<title>EditProjectPage&#45;&gt;DashboardModule</title>
<path fill="none" stroke="black" d="M3017,-85.08C3017,-100.75 3017,-120.8 3017,-120.8 3017,-120.8 2777.14,-120.8 2777.14,-120.8"/>
<polygon fill="black" stroke="black" points="2777.14,-117.3 2767.14,-120.8 2777.14,-124.3 2777.14,-117.3"/>
</g>
<!-- EditWorkspacePage -->
<g id="node21" class="node">
<title>EditWorkspacePage</title>
<polygon fill="#ffffb3" stroke="black" points="2945.51,-84.8 2816.49,-84.8 2816.49,-48.8 2945.51,-48.8 2945.51,-84.8"/>
<text text-anchor="middle" x="2881" y="-62.6" font-family="Times,serif" font-size="14.00">EditWorkspacePage</text>
</g>
<!-- EditWorkspacePage&#45;&gt;DashboardModule -->
<g id="edge20" class="edge">
<title>EditWorkspacePage&#45;&gt;DashboardModule</title>
<path fill="none" stroke="black" d="M2881,-84.92C2881,-99.58 2881,-117.8 2881,-117.8 2881,-117.8 2777.37,-117.8 2777.37,-117.8"/>
<polygon fill="black" stroke="black" points="2777.37,-114.3 2767.37,-117.8 2777.37,-121.3 2777.37,-114.3"/>
</g>
<!-- IntegrationGithubComponent -->
<g id="node22" class="node">
<title>IntegrationGithubComponent</title>
<polygon fill="#ffffb3" stroke="black" points="2797.64,-84.8 2616.36,-84.8 2616.36,-48.8 2797.64,-48.8 2797.64,-84.8"/>
<text text-anchor="middle" x="2707" y="-62.6" font-family="Times,serif" font-size="14.00">IntegrationGithubComponent</text>
</g>
<!-- IntegrationGithubComponent&#45;&gt;DashboardModule -->
<g id="edge21" class="edge">
<title>IntegrationGithubComponent&#45;&gt;DashboardModule</title>
<path fill="none" stroke="black" d="M2707,-84.91C2707,-84.91 2707,-103.79 2707,-103.79"/>
<polygon fill="black" stroke="black" points="2703.5,-103.79 2707,-113.79 2710.5,-103.79 2703.5,-103.79"/>
</g>
<!-- MemberListComponent -->
<g id="node23" class="node">
<title>MemberListComponent</title>
<polygon fill="#ffffb3" stroke="black" points="2598.04,-84.8 2447.96,-84.8 2447.96,-48.8 2598.04,-48.8 2598.04,-84.8"/>
<text text-anchor="middle" x="2523" y="-62.6" font-family="Times,serif" font-size="14.00">MemberListComponent</text>
</g>
<!-- MemberListComponent&#45;&gt;DashboardModule -->
<g id="edge22" class="edge">
<title>MemberListComponent&#45;&gt;DashboardModule</title>
<path fill="none" stroke="black" d="M2523,-84.81C2523,-100.85 2523,-121.8 2523,-121.8 2523,-121.8 2636.75,-121.8 2636.75,-121.8"/>
<polygon fill="black" stroke="black" points="2636.75,-125.3 2646.75,-121.8 2636.75,-118.3 2636.75,-125.3"/>
</g>
<!-- ProjectsListPage -->
<g id="node24" class="node">
<title>ProjectsListPage</title>
<polygon fill="#ffffb3" stroke="black" points="2430.1,-84.8 2319.9,-84.8 2319.9,-48.8 2430.1,-48.8 2430.1,-84.8"/>
<text text-anchor="middle" x="2375" y="-62.6" font-family="Times,serif" font-size="14.00">ProjectsListPage</text>
</g>
<!-- ProjectsListPage&#45;&gt;DashboardModule -->
<g id="edge23" class="edge">
<title>ProjectsListPage&#45;&gt;DashboardModule</title>
<path fill="none" stroke="black" d="M2375,-84.82C2375,-102.17 2375,-125.8 2375,-125.8 2375,-125.8 2636.88,-125.8 2636.88,-125.8"/>
<polygon fill="black" stroke="black" points="2636.88,-129.3 2646.88,-125.8 2636.88,-122.3 2636.88,-129.3"/>
</g>
<!-- ViewOptionsComponent -->
<g id="node25" class="node">
<title>ViewOptionsComponent</title>
<polygon fill="#ffffb3" stroke="black" points="2301.99,-84.8 2146.01,-84.8 2146.01,-48.8 2301.99,-48.8 2301.99,-84.8"/>
<text text-anchor="middle" x="2224" y="-62.6" font-family="Times,serif" font-size="14.00">ViewOptionsComponent</text>
</g>
<!-- ViewOptionsComponent&#45;&gt;DashboardModule -->
<g id="edge24" class="edge">
<title>ViewOptionsComponent&#45;&gt;DashboardModule</title>
<path fill="none" stroke="black" d="M2224,-85.02C2224,-103.63 2224,-129.8 2224,-129.8 2224,-129.8 2636.8,-129.8 2636.8,-129.8"/>
<polygon fill="black" stroke="black" points="2636.8,-133.3 2646.8,-129.8 2636.8,-126.3 2636.8,-133.3"/>
</g>
<!-- WorkspacesListPage -->
<g id="node26" class="node">
<title>WorkspacesListPage</title>
<polygon fill="#ffffb3" stroke="black" points="2127.91,-84.8 1994.09,-84.8 1994.09,-48.8 2127.91,-48.8 2127.91,-84.8"/>
<text text-anchor="middle" x="2061" y="-62.6" font-family="Times,serif" font-size="14.00">WorkspacesListPage</text>
</g>
<!-- WorkspacesListPage&#45;&gt;DashboardModule -->
<g id="edge25" class="edge">
<title>WorkspacesListPage&#45;&gt;DashboardModule</title>
<path fill="none" stroke="black" d="M2061,-85.11C2061,-104.95 2061,-133.8 2061,-133.8 2061,-133.8 2636.81,-133.8 2636.81,-133.8"/>
<polygon fill="black" stroke="black" points="2636.81,-137.3 2646.81,-133.8 2636.81,-130.3 2636.81,-137.3"/>
</g>
<!-- DashboardRoutingModule -->
<g id="node28" class="node">
<title>DashboardRoutingModule</title>
<polygon fill="#8dd3c7" stroke="black" points="1969.82,-84.8 1966.82,-88.8 1945.82,-88.8 1942.82,-84.8 1804.18,-84.8 1804.18,-48.8 1969.82,-48.8 1969.82,-84.8"/>
<text text-anchor="middle" x="1887" y="-62.6" font-family="Times,serif" font-size="14.00">DashboardRoutingModule</text>
</g>
<!-- DashboardRoutingModule&#45;&gt;DashboardModule -->
<g id="edge26" class="edge">
<title>DashboardRoutingModule&#45;&gt;DashboardModule</title>
<path fill="none" stroke="black" d="M1887,-85.08C1887,-106.12 1887,-137.8 1887,-137.8 1887,-137.8 2636.7,-137.8 2636.7,-137.8"/>
<polygon fill="black" stroke="black" points="2636.7,-141.3 2646.7,-137.8 2636.7,-134.3 2636.7,-141.3"/>
</g>
<!-- GitIntegrationService -->
<g id="node29" class="node">
<title>GitIntegrationService</title>
<ellipse fill="#fdb462" stroke="black" cx="1685" cy="-66.8" rx="94.9" ry="18"/>
<text text-anchor="middle" x="1685" y="-62.6" font-family="Times,serif" font-size="14.00">GitIntegrationService</text>
</g>
<!-- GitIntegrationService&#45;&gt;DashboardModule -->
<g id="edge28" class="edge">
<title>GitIntegrationService&#45;&gt;DashboardModule</title>
<path fill="none" stroke="black" d="M1685,-84.96C1685,-107.15 1685,-141.8 1685,-141.8 1685,-141.8 2636.88,-141.8 2636.88,-141.8"/>
<polygon fill="black" stroke="black" points="2636.88,-145.3 2646.88,-141.8 2636.88,-138.3 2636.88,-145.3"/>
</g>
<!-- EmailsRoutingModule -->
<g id="node30" class="node">
<title>EmailsRoutingModule</title>
<polygon fill="#8dd3c7" stroke="black" points="7138.55,-84.8 7135.55,-88.8 7114.55,-88.8 7111.55,-84.8 6995.45,-84.8 6995.45,-48.8 7138.55,-48.8 7138.55,-84.8"/>
<text text-anchor="middle" x="7067" y="-62.6" font-family="Times,serif" font-size="14.00">EmailsRoutingModule</text>
</g>
<!-- EmailsModule -->
<g id="node31" class="node">
<title>EmailsModule</title>
<polygon fill="#8dd3c7" stroke="black" points="7116.44,-149.8 7113.44,-153.8 7092.44,-153.8 7089.44,-149.8 7017.56,-149.8 7017.56,-113.8 7116.44,-113.8 7116.44,-149.8"/>
<text text-anchor="middle" x="7067" y="-127.6" font-family="Times,serif" font-size="14.00">EmailsModule</text>
</g>
<!-- EmailsRoutingModule&#45;&gt;EmailsModule -->
<g id="edge29" class="edge">
<title>EmailsRoutingModule&#45;&gt;EmailsModule</title>
<path fill="none" stroke="black" d="M7067,-84.91C7067,-84.91 7067,-103.79 7067,-103.79"/>
<polygon fill="black" stroke="black" points="7063.5,-103.79 7067,-113.79 7070.5,-103.79 7063.5,-103.79"/>
</g>
<!-- MessagesRoutingModule -->
<g id="node32" class="node">
<title>MessagesRoutingModule</title>
<polygon fill="#8dd3c7" stroke="black" points="7338.6,-84.8 7335.6,-88.8 7314.6,-88.8 7311.6,-84.8 7179.4,-84.8 7179.4,-48.8 7338.6,-48.8 7338.6,-84.8"/>
<text text-anchor="middle" x="7259" y="-62.6" font-family="Times,serif" font-size="14.00">MessagesRoutingModule</text>
</g>
<!-- MessagesModule -->
<g id="node33" class="node">
<title>MessagesModule</title>
<polygon fill="#8dd3c7" stroke="black" points="7315.99,-149.8 7312.99,-153.8 7291.99,-153.8 7288.99,-149.8 7202.01,-149.8 7202.01,-113.8 7315.99,-113.8 7315.99,-149.8"/>
<text text-anchor="middle" x="7259" y="-127.6" font-family="Times,serif" font-size="14.00">MessagesModule</text>
</g>
<!-- MessagesRoutingModule&#45;&gt;MessagesModule -->
<g id="edge30" class="edge">
<title>MessagesRoutingModule&#45;&gt;MessagesModule</title>
<path fill="none" stroke="black" d="M7259,-84.91C7259,-84.91 7259,-103.79 7259,-103.79"/>
<polygon fill="black" stroke="black" points="7255.5,-103.79 7259,-113.79 7262.5,-103.79 7255.5,-103.79"/>
</g>
<!-- IntegrationEntryComponent -->
<g id="node34" class="node">
<title>IntegrationEntryComponent</title>
<polygon fill="#ffffb3" stroke="black" points="4423.86,-84.8 4250.14,-84.8 4250.14,-48.8 4423.86,-48.8 4423.86,-84.8"/>
<text text-anchor="middle" x="4337" y="-62.6" font-family="Times,serif" font-size="14.00">IntegrationEntryComponent</text>
</g>
<!-- IntegrationEntryComponent&#45;&gt;SettingsModule -->
<g id="edge31" class="edge">
<title>IntegrationEntryComponent&#45;&gt;SettingsModule</title>
<path fill="none" stroke="black" d="M4337,-85.09C4337,-107.01 4337,-140.8 4337,-140.8 4337,-140.8 4447.62,-140.8 4447.62,-140.8"/>
<polygon fill="black" stroke="black" points="4447.62,-144.3 4457.62,-140.8 4447.62,-137.3 4447.62,-144.3"/>
</g>
<!-- ListGroupComponent -->
<g id="node35" class="node">
<title>ListGroupComponent</title>
<polygon fill="#ffffb3" stroke="black" points="4232.38,-84.8 4093.62,-84.8 4093.62,-48.8 4232.38,-48.8 4232.38,-84.8"/>
<text text-anchor="middle" x="4163" y="-62.6" font-family="Times,serif" font-size="14.00">ListGroupComponent</text>
</g>
<!-- ListGroupComponent&#45;&gt;SettingsModule -->
<g id="edge32" class="edge">
<title>ListGroupComponent&#45;&gt;SettingsModule</title>
<path fill="none" stroke="black" d="M4163,-85.05C4163,-107.82 4163,-143.8 4163,-143.8 4163,-143.8 4447.67,-143.8 4447.67,-143.8"/>
<polygon fill="black" stroke="black" points="4447.67,-147.3 4457.67,-143.8 4447.67,-140.3 4447.67,-147.3"/>
</g>
<!-- SettingsAccountPage -->
<g id="node36" class="node">
<title>SettingsAccountPage</title>
<polygon fill="#ffffb3" stroke="black" points="5186.76,-84.8 5051.24,-84.8 5051.24,-48.8 5186.76,-48.8 5186.76,-84.8"/>
<text text-anchor="middle" x="5119" y="-62.6" font-family="Times,serif" font-size="14.00">SettingsAccountPage</text>
</g>
<!-- SettingsAccountPage&#45;&gt;SettingsModule -->
<g id="edge33" class="edge">
<title>SettingsAccountPage&#45;&gt;SettingsModule</title>
<path fill="none" stroke="black" d="M5119,-84.95C5119,-108.56 5119,-146.8 5119,-146.8 5119,-146.8 4572.19,-146.8 4572.19,-146.8"/>
<polygon fill="black" stroke="black" points="4572.19,-143.3 4562.19,-146.8 4572.19,-150.3 4572.19,-143.3"/>
</g>
<!-- SettingsIntegrationsPage -->
<g id="node37" class="node">
<title>SettingsIntegrationsPage</title>
<polygon fill="#ffffb3" stroke="black" points="5033.7,-84.8 4878.3,-84.8 4878.3,-48.8 5033.7,-48.8 5033.7,-84.8"/>
<text text-anchor="middle" x="4956" y="-62.6" font-family="Times,serif" font-size="14.00">SettingsIntegrationsPage</text>
</g>
<!-- SettingsIntegrationsPage&#45;&gt;SettingsModule -->
<g id="edge34" class="edge">
<title>SettingsIntegrationsPage&#45;&gt;SettingsModule</title>
<path fill="none" stroke="black" d="M4956,-84.81C4956,-107.29 4956,-142.8 4956,-142.8 4956,-142.8 4572.47,-142.8 4572.47,-142.8"/>
<polygon fill="black" stroke="black" points="4572.47,-139.3 4562.47,-142.8 4572.47,-146.3 4572.47,-139.3"/>
</g>
<!-- SettingsLocalizationPage -->
<g id="node38" class="node">
<title>SettingsLocalizationPage</title>
<polygon fill="#ffffb3" stroke="black" points="4860.3,-84.8 4701.7,-84.8 4701.7,-48.8 4860.3,-48.8 4860.3,-84.8"/>
<text text-anchor="middle" x="4781" y="-62.6" font-family="Times,serif" font-size="14.00">SettingsLocalizationPage</text>
</g>
<!-- SettingsLocalizationPage&#45;&gt;SettingsModule -->
<g id="edge35" class="edge">
<title>SettingsLocalizationPage&#45;&gt;SettingsModule</title>
<path fill="none" stroke="black" d="M4781,-84.84C4781,-106.46 4781,-139.8 4781,-139.8 4781,-139.8 4572.25,-139.8 4572.25,-139.8"/>
<polygon fill="black" stroke="black" points="4572.25,-136.3 4562.25,-139.8 4572.25,-143.3 4572.25,-136.3"/>
</g>
<!-- SettingsPage -->
<g id="node39" class="node">
<title>SettingsPage</title>
<polygon fill="#ffffb3" stroke="black" points="4684.33,-84.8 4595.67,-84.8 4595.67,-48.8 4684.33,-48.8 4684.33,-84.8"/>
<text text-anchor="middle" x="4640" y="-62.6" font-family="Times,serif" font-size="14.00">SettingsPage</text>
</g>
<!-- SettingsPage&#45;&gt;SettingsModule -->
<g id="edge36" class="edge">
<title>SettingsPage&#45;&gt;SettingsModule</title>
<path fill="none" stroke="black" d="M4640,-84.93C4640,-105.37 4640,-135.8 4640,-135.8 4640,-135.8 4572.5,-135.8 4572.5,-135.8"/>
<polygon fill="black" stroke="black" points="4572.5,-132.3 4562.5,-135.8 4572.5,-139.3 4572.5,-132.3"/>
</g>
<!-- SettingsSessionsPage -->
<g id="node40" class="node">
<title>SettingsSessionsPage</title>
<polygon fill="#ffffb3" stroke="black" points="4578.07,-84.8 4441.93,-84.8 4441.93,-48.8 4578.07,-48.8 4578.07,-84.8"/>
<text text-anchor="middle" x="4510" y="-62.6" font-family="Times,serif" font-size="14.00">SettingsSessionsPage</text>
</g>
<!-- SettingsSessionsPage&#45;&gt;SettingsModule -->
<g id="edge37" class="edge">
<title>SettingsSessionsPage&#45;&gt;SettingsModule</title>
<path fill="none" stroke="black" d="M4527.44,-84.91C4527.44,-84.91 4527.44,-103.79 4527.44,-103.79"/>
<polygon fill="black" stroke="black" points="4523.94,-103.79 4527.44,-113.79 4530.94,-103.79 4523.94,-103.79"/>
</g>
<!-- SettingsRoutingModule -->
<g id="node42" class="node">
<title>SettingsRoutingModule</title>
<polygon fill="#8dd3c7" stroke="black" points="4069.79,-84.8 4066.79,-88.8 4045.79,-88.8 4042.79,-84.8 3920.21,-84.8 3920.21,-48.8 4069.79,-48.8 4069.79,-84.8"/>
<text text-anchor="middle" x="3995" y="-62.6" font-family="Times,serif" font-size="14.00">SettingsRoutingModule</text>
</g>
<!-- SettingsRoutingModule&#45;&gt;SettingsModule -->
<g id="edge39" class="edge">
<title>SettingsRoutingModule&#45;&gt;SettingsModule</title>
<path fill="none" stroke="black" d="M3995,-84.95C3995,-108.56 3995,-146.8 3995,-146.8 3995,-146.8 4447.78,-146.8 4447.78,-146.8"/>
<polygon fill="black" stroke="black" points="4447.78,-150.3 4457.78,-146.8 4447.78,-143.3 4447.78,-150.3"/>
</g>
<!-- BoardPage -->
<g id="node43" class="node">
<title>BoardPage</title>
<polygon fill="#ffffb3" stroke="black" points="6954.93,-84.8 6877.07,-84.8 6877.07,-48.8 6954.93,-48.8 6954.93,-84.8"/>
<text text-anchor="middle" x="6916" y="-62.6" font-family="Times,serif" font-size="14.00">BoardPage</text>
</g>
<!-- BoardPage&#45;&gt;TasksModule -->
<g id="edge40" class="edge">
<title>BoardPage&#45;&gt;TasksModule</title>
<path fill="none" stroke="black" d="M6916,-84.89C6916,-107.93 6916,-144.8 6916,-144.8 6916,-144.8 6079.13,-144.8 6079.13,-144.8"/>
<polygon fill="black" stroke="black" points="6079.13,-141.3 6069.13,-144.8 6079.13,-148.3 6079.13,-141.3"/>
</g>
<!-- BoardTaskComponent -->
<g id="node44" class="node">
<title>BoardTaskComponent</title>
<polygon fill="#ffffb3" stroke="black" points="6859.26,-84.8 6716.74,-84.8 6716.74,-48.8 6859.26,-48.8 6859.26,-84.8"/>
<text text-anchor="middle" x="6788" y="-62.6" font-family="Times,serif" font-size="14.00">BoardTaskComponent</text>
</g>
<!-- BoardTaskComponent&#45;&gt;TasksModule -->
<g id="edge41" class="edge">
<title>BoardTaskComponent&#45;&gt;TasksModule</title>
<path fill="none" stroke="black" d="M6788,-84.84C6788,-106.46 6788,-139.8 6788,-139.8 6788,-139.8 6079.13,-139.8 6079.13,-139.8"/>
<polygon fill="black" stroke="black" points="6079.13,-136.3 6069.13,-139.8 6079.13,-143.3 6079.13,-136.3"/>
</g>
<!-- InputAssigneeComponent -->
<g id="node45" class="node">
<title>InputAssigneeComponent</title>
<polygon fill="#ffffb3" stroke="black" points="6699.21,-84.8 6536.79,-84.8 6536.79,-48.8 6699.21,-48.8 6699.21,-84.8"/>
<text text-anchor="middle" x="6618" y="-62.6" font-family="Times,serif" font-size="14.00">InputAssigneeComponent</text>
</g>
<!-- InputAssigneeComponent&#45;&gt;TasksModule -->
<g id="edge42" class="edge">
<title>InputAssigneeComponent&#45;&gt;TasksModule</title>
<path fill="none" stroke="black" d="M6618,-85.02C6618,-105.17 6618,-134.8 6618,-134.8 6618,-134.8 6079.19,-134.8 6079.19,-134.8"/>
<polygon fill="black" stroke="black" points="6079.19,-131.3 6069.19,-134.8 6079.19,-138.3 6079.19,-131.3"/>
</g>
<!-- SchedulePage -->
<g id="node46" class="node">
<title>SchedulePage</title>
<polygon fill="#ffffb3" stroke="black" points="6519.03,-84.8 6424.97,-84.8 6424.97,-48.8 6519.03,-48.8 6519.03,-84.8"/>
<text text-anchor="middle" x="6472" y="-62.6" font-family="Times,serif" font-size="14.00">SchedulePage</text>
</g>
<!-- SchedulePage&#45;&gt;TasksModule -->
<g id="edge43" class="edge">
<title>SchedulePage&#45;&gt;TasksModule</title>
<path fill="none" stroke="black" d="M6472,-85.02C6472,-103.63 6472,-129.8 6472,-129.8 6472,-129.8 6079.36,-129.8 6079.36,-129.8"/>
<polygon fill="black" stroke="black" points="6079.36,-126.3 6069.36,-129.8 6079.36,-133.3 6079.36,-126.3"/>
</g>
<!-- StatusColorPipe -->
<g id="node47" class="node">
<title>StatusColorPipe</title>
<polygon fill="#ffffb3" stroke="black" points="6406.51,-84.8 6299.49,-84.8 6299.49,-48.8 6406.51,-48.8 6406.51,-84.8"/>
<text text-anchor="middle" x="6353" y="-62.6" font-family="Times,serif" font-size="14.00">StatusColorPipe</text>
</g>
<!-- StatusColorPipe&#45;&gt;TasksModule -->
<g id="edge44" class="edge">
<title>StatusColorPipe&#45;&gt;TasksModule</title>
<path fill="none" stroke="black" d="M6353,-84.83C6353,-101.86 6353,-124.8 6353,-124.8 6353,-124.8 6079.23,-124.8 6079.23,-124.8"/>
<polygon fill="black" stroke="black" points="6079.23,-121.3 6069.23,-124.8 6079.23,-128.3 6079.23,-121.3"/>
</g>
<!-- StatusLabelComponent -->
<g id="node48" class="node">
<title>StatusLabelComponent</title>
<polygon fill="#ffffb3" stroke="black" points="6281.93,-84.8 6134.07,-84.8 6134.07,-48.8 6281.93,-48.8 6281.93,-84.8"/>
<text text-anchor="middle" x="6208" y="-62.6" font-family="Times,serif" font-size="14.00">StatusLabelComponent</text>
</g>
<!-- StatusLabelComponent&#45;&gt;TasksModule -->
<g id="edge45" class="edge">
<title>StatusLabelComponent&#45;&gt;TasksModule</title>
<path fill="none" stroke="black" d="M6208,-85.04C6208,-100.37 6208,-119.8 6208,-119.8 6208,-119.8 6079.21,-119.8 6079.21,-119.8"/>
<polygon fill="black" stroke="black" points="6079.21,-116.3 6069.21,-119.8 6079.21,-123.3 6079.21,-116.3"/>
</g>
<!-- TaskDialog -->
<g id="node49" class="node">
<title>TaskDialog</title>
<polygon fill="#ffffb3" stroke="black" points="6116.82,-84.8 6035.18,-84.8 6035.18,-48.8 6116.82,-48.8 6116.82,-84.8"/>
<text text-anchor="middle" x="6076" y="-62.6" font-family="Times,serif" font-size="14.00">TaskDialog</text>
</g>
<!-- TaskDialog&#45;&gt;TasksModule -->
<g id="edge46" class="edge">
<title>TaskDialog&#45;&gt;TasksModule</title>
<path fill="none" stroke="black" d="M6052.22,-84.91C6052.22,-84.91 6052.22,-103.79 6052.22,-103.79"/>
<polygon fill="black" stroke="black" points="6048.72,-103.79 6052.22,-113.79 6055.72,-103.79 6048.72,-103.79"/>
</g>
<!-- TaskListPage -->
<g id="node50" class="node">
<title>TaskListPage</title>
<polygon fill="#ffffb3" stroke="black" points="6017.21,-84.8 5924.79,-84.8 5924.79,-48.8 6017.21,-48.8 6017.21,-84.8"/>
<text text-anchor="middle" x="5971" y="-62.6" font-family="Times,serif" font-size="14.00">TaskListPage</text>
</g>
<!-- TaskListPage&#45;&gt;TasksModule -->
<g id="edge47" class="edge">
<title>TaskListPage&#45;&gt;TasksModule</title>
<path fill="none" stroke="black" d="M6003.7,-84.91C6003.7,-84.91 6003.7,-103.79 6003.7,-103.79"/>
<polygon fill="black" stroke="black" points="6000.2,-103.79 6003.7,-113.79 6007.2,-103.79 6000.2,-103.79"/>
</g>
<!-- TaskPriorityIconPipe -->
<g id="node51" class="node">
<title>TaskPriorityIconPipe</title>
<polygon fill="#ffffb3" stroke="black" points="5906.76,-84.8 5771.24,-84.8 5771.24,-48.8 5906.76,-48.8 5906.76,-84.8"/>
<text text-anchor="middle" x="5839" y="-62.6" font-family="Times,serif" font-size="14.00">TaskPriorityIconPipe</text>
</g>
<!-- TaskPriorityIconPipe&#45;&gt;TasksModule -->
<g id="edge48" class="edge">
<title>TaskPriorityIconPipe&#45;&gt;TasksModule</title>
<path fill="none" stroke="black" d="M5839,-84.92C5839,-99.58 5839,-117.8 5839,-117.8 5839,-117.8 5966.57,-117.8 5966.57,-117.8"/>
<polygon fill="black" stroke="black" points="5966.57,-121.3 5976.57,-117.8 5966.57,-114.3 5966.57,-121.3"/>
</g>
<!-- TaskPriorityPipe -->
<g id="node52" class="node">
<title>TaskPriorityPipe</title>
<polygon fill="#ffffb3" stroke="black" points="5753.38,-84.8 5642.62,-84.8 5642.62,-48.8 5753.38,-48.8 5753.38,-84.8"/>
<text text-anchor="middle" x="5698" y="-62.6" font-family="Times,serif" font-size="14.00">TaskPriorityPipe</text>
</g>
<!-- TaskPriorityPipe&#45;&gt;TasksModule -->
<g id="edge49" class="edge">
<title>TaskPriorityPipe&#45;&gt;TasksModule</title>
<path fill="none" stroke="black" d="M5698,-84.81C5698,-100.85 5698,-121.8 5698,-121.8 5698,-121.8 5966.78,-121.8 5966.78,-121.8"/>
<polygon fill="black" stroke="black" points="5966.78,-125.3 5976.78,-121.8 5966.78,-118.3 5966.78,-125.3"/>
</g>
<!-- TaskTypeIconPipe -->
<g id="node53" class="node">
<title>TaskTypeIconPipe</title>
<polygon fill="#ffffb3" stroke="black" points="5624.75,-84.8 5503.25,-84.8 5503.25,-48.8 5624.75,-48.8 5624.75,-84.8"/>
<text text-anchor="middle" x="5564" y="-62.6" font-family="Times,serif" font-size="14.00">TaskTypeIconPipe</text>
</g>
<!-- TaskTypeIconPipe&#45;&gt;TasksModule -->
<g id="edge50" class="edge">
<title>TaskTypeIconPipe&#45;&gt;TasksModule</title>
<path fill="none" stroke="black" d="M5564,-84.83C5564,-101.86 5564,-124.8 5564,-124.8 5564,-124.8 5966.89,-124.8 5966.89,-124.8"/>
<polygon fill="black" stroke="black" points="5966.89,-128.3 5976.89,-124.8 5966.89,-121.3 5966.89,-128.3"/>
</g>
<!-- TaskTypePipe -->
<g id="node54" class="node">
<title>TaskTypePipe</title>
<polygon fill="#ffffb3" stroke="black" points="5485.37,-84.8 5388.63,-84.8 5388.63,-48.8 5485.37,-48.8 5485.37,-84.8"/>
<text text-anchor="middle" x="5437" y="-62.6" font-family="Times,serif" font-size="14.00">TaskTypePipe</text>
</g>
<!-- TaskTypePipe&#45;&gt;TasksModule -->
<g id="edge51" class="edge">
<title>TaskTypePipe&#45;&gt;TasksModule</title>
<path fill="none" stroke="black" d="M5437,-85.07C5437,-103.36 5437,-128.8 5437,-128.8 5437,-128.8 5966.53,-128.8 5966.53,-128.8"/>
<polygon fill="black" stroke="black" points="5966.53,-132.3 5976.53,-128.8 5966.53,-125.3 5966.53,-132.3"/>
</g>
<!-- TasksRoutingModule -->
<g id="node56" class="node">
<title>TasksRoutingModule</title>
<polygon fill="#8dd3c7" stroke="black" points="5364.83,-84.8 5361.83,-88.8 5340.83,-88.8 5337.83,-84.8 5227.17,-84.8 5227.17,-48.8 5364.83,-48.8 5364.83,-84.8"/>
<text text-anchor="middle" x="5296" y="-62.6" font-family="Times,serif" font-size="14.00">TasksRoutingModule</text>
</g>
<!-- TasksRoutingModule&#45;&gt;TasksModule -->
<g id="edge53" class="edge">
<title>TasksRoutingModule&#45;&gt;TasksModule</title>
<path fill="none" stroke="black" d="M5296,-84.91C5296,-104.14 5296,-131.8 5296,-131.8 5296,-131.8 5966.69,-131.8 5966.69,-131.8"/>
<polygon fill="black" stroke="black" points="5966.69,-135.3 5976.69,-131.8 5966.69,-128.3 5966.69,-135.3"/>
</g>
</g>
</svg>
