<?xml version="1.0" encoding="UTF-8" standalone="no"?>
<!DOCTYPE svg PUBLIC "-//W3C//DTD SVG 1.1//EN"
 "http://www.w3.org/Graphics/SVG/1.1/DTD/svg11.dtd">
<!-- Generated by graphviz version 3.0.0 (20220226.1711)
 -->
<!-- Title: dependencies Pages: 1 -->
<svg width="1891pt" height="174pt"
 viewBox="0.00 0.00 1891.00 173.80" xmlns="http://www.w3.org/2000/svg" xmlns:xlink="http://www.w3.org/1999/xlink">
<g id="graph0" class="graph" transform="scale(1 1) rotate(0) translate(4 169.8)">
<title>dependencies</title>
<polygon fill="white" stroke="transparent" points="-4,4 -4,-169.8 1887,-169.8 1887,4 -4,4"/>
<text text-anchor="middle" x="941.5" y="-8.2" font-family="sans-serif" font-size="14.00">dependencies</text>
<g id="clust1" class="cluster">
<title>cluster_TasksModule</title>
<polygon fill="none" stroke="black" stroke-dasharray="1,5" points="8,-32.8 8,-157.8 1875,-157.8 1875,-32.8 8,-32.8"/>
</g>
<g id="clust15" class="cluster">
<title>cluster_TasksModule_imports</title>
<polygon fill="none" stroke="black" points="1606,-40.8 1606,-92.8 1867,-92.8 1867,-40.8 1606,-40.8"/>
</g>
<g id="clust2" class="cluster">
<title>cluster_TasksModule_declarations</title>
<polygon fill="none" stroke="black" points="16,-40.8 16,-92.8 1598,-92.8 1598,-40.8 16,-40.8"/>
</g>
<!-- BoardPage -->
<g id="node1" class="node">
<title>BoardPage</title>
<polygon fill="#ffffb3" stroke="black" points="1589.93,-84.8 1512.07,-84.8 1512.07,-48.8 1589.93,-48.8 1589.93,-84.8"/>
<text text-anchor="middle" x="1551" y="-62.6" font-family="Times,serif" font-size="14.00">BoardPage</text>
</g>
<!-- TasksModule -->
<g id="node13" class="node">
<title>TasksModule</title>
<polygon fill="#8dd3c7" stroke="black" points="961.21,-149.8 958.21,-153.8 937.21,-153.8 934.21,-149.8 868.79,-149.8 868.79,-113.8 961.21,-113.8 961.21,-149.8"/>
<text text-anchor="middle" x="915" y="-127.6" font-family="Times,serif" font-size="14.00">TasksModule</text>
</g>
<!-- BoardPage&#45;&gt;TasksModule -->
<g id="edge1" class="edge">
<title>BoardPage&#45;&gt;TasksModule</title>
<path fill="none" stroke="black" d="M1551,-85.02C1551,-105.17 1551,-134.8 1551,-134.8 1551,-134.8 971.25,-134.8 971.25,-134.8"/>
<polygon fill="black" stroke="black" points="971.25,-131.3 961.25,-134.8 971.25,-138.3 971.25,-131.3"/>
</g>
<!-- BoardTaskComponent -->
<g id="node2" class="node">
<title>BoardTaskComponent</title>
<polygon fill="#ffffb3" stroke="black" points="1494.26,-84.8 1351.74,-84.8 1351.74,-48.8 1494.26,-48.8 1494.26,-84.8"/>
<text text-anchor="middle" x="1423" y="-62.6" font-family="Times,serif" font-size="14.00">BoardTaskComponent</text>
</g>
<!-- BoardTaskComponent&#45;&gt;TasksModule -->
<g id="edge2" class="edge">
<title>BoardTaskComponent&#45;&gt;TasksModule</title>
<path fill="none" stroke="black" d="M1423,-85.02C1423,-103.63 1423,-129.8 1423,-129.8 1423,-129.8 971.43,-129.8 971.43,-129.8"/>
<polygon fill="black" stroke="black" points="971.43,-126.3 961.43,-129.8 971.43,-133.3 971.43,-126.3"/>
</g>
<!-- InputAssigneeComponent -->
<g id="node3" class="node">
<title>InputAssigneeComponent</title>
<polygon fill="#ffffb3" stroke="black" points="1334.21,-84.8 1171.79,-84.8 1171.79,-48.8 1334.21,-48.8 1334.21,-84.8"/>
<text text-anchor="middle" x="1253" y="-62.6" font-family="Times,serif" font-size="14.00">InputAssigneeComponent</text>
</g>
<!-- InputAssigneeComponent&#45;&gt;TasksModule -->
<g id="edge3" class="edge">
<title>InputAssigneeComponent&#45;&gt;TasksModule</title>
<path fill="none" stroke="black" d="M1253,-84.83C1253,-101.86 1253,-124.8 1253,-124.8 1253,-124.8 971.29,-124.8 971.29,-124.8"/>
<polygon fill="black" stroke="black" points="971.29,-121.3 961.29,-124.8 971.29,-128.3 971.29,-121.3"/>
</g>
<!-- SchedulePage -->
<g id="node4" class="node">
<title>SchedulePage</title>
<polygon fill="#ffffb3" stroke="black" points="1154.03,-84.8 1059.97,-84.8 1059.97,-48.8 1154.03,-48.8 1154.03,-84.8"/>
<text text-anchor="middle" x="1107" y="-62.6" font-family="Times,serif" font-size="14.00">SchedulePage</text>
</g>
<!-- SchedulePage&#45;&gt;TasksModule -->
<g id="edge4" class="edge">
<title>SchedulePage&#45;&gt;TasksModule</title>
<path fill="none" stroke="black" d="M1107,-85.04C1107,-100.37 1107,-119.8 1107,-119.8 1107,-119.8 971.48,-119.8 971.48,-119.8"/>
<polygon fill="black" stroke="black" points="971.48,-116.3 961.48,-119.8 971.48,-123.3 971.48,-116.3"/>
</g>
<!-- StatusColorPipe -->
<g id="node5" class="node">
<title>StatusColorPipe</title>
<polygon fill="#ffffb3" stroke="black" points="1041.51,-84.8 934.49,-84.8 934.49,-48.8 1041.51,-48.8 1041.51,-84.8"/>
<text text-anchor="middle" x="988" y="-62.6" font-family="Times,serif" font-size="14.00">StatusColorPipe</text>
</g>
<!-- StatusColorPipe&#45;&gt;TasksModule -->
<g id="edge5" class="edge">
<title>StatusColorPipe&#45;&gt;TasksModule</title>
<path fill="none" stroke="black" d="M947.8,-84.91C947.8,-84.91 947.8,-103.79 947.8,-103.79"/>
<polygon fill="black" stroke="black" points="944.3,-103.79 947.8,-113.79 951.3,-103.79 944.3,-103.79"/>
</g>
<!-- StatusLabelComponent -->
<g id="node6" class="node">
<title>StatusLabelComponent</title>
<polygon fill="#ffffb3" stroke="black" points="916.93,-84.8 769.07,-84.8 769.07,-48.8 916.93,-48.8 916.93,-84.8"/>
<text text-anchor="middle" x="843" y="-62.6" font-family="Times,serif" font-size="14.00">StatusLabelComponent</text>
</g>
<!-- StatusLabelComponent&#45;&gt;TasksModule -->
<g id="edge6" class="edge">
<title>StatusLabelComponent&#45;&gt;TasksModule</title>
<path fill="none" stroke="black" d="M892.8,-84.91C892.8,-84.91 892.8,-103.79 892.8,-103.79"/>
<polygon fill="black" stroke="black" points="889.3,-103.79 892.8,-113.79 896.3,-103.79 889.3,-103.79"/>
</g>
<!-- TaskDialog -->
<g id="node7" class="node">
<title>TaskDialog</title>
<polygon fill="#ffffb3" stroke="black" points="751.82,-84.8 670.18,-84.8 670.18,-48.8 751.82,-48.8 751.82,-84.8"/>
<text text-anchor="middle" x="711" y="-62.6" font-family="Times,serif" font-size="14.00">TaskDialog</text>
</g>
<!-- TaskDialog&#45;&gt;TasksModule -->
<g id="edge7" class="edge">
<title>TaskDialog&#45;&gt;TasksModule</title>
<path fill="none" stroke="black" d="M711,-85.04C711,-100.37 711,-119.8 711,-119.8 711,-119.8 858.71,-119.8 858.71,-119.8"/>
<polygon fill="black" stroke="black" points="858.71,-123.3 868.71,-119.8 858.71,-116.3 858.71,-123.3"/>
</g>
<!-- TaskListPage -->
<g id="node8" class="node">
<title>TaskListPage</title>
<polygon fill="#ffffb3" stroke="black" points="652.21,-84.8 559.79,-84.8 559.79,-48.8 652.21,-48.8 652.21,-84.8"/>
<text text-anchor="middle" x="606" y="-62.6" font-family="Times,serif" font-size="14.00">TaskListPage</text>
</g>
<!-- TaskListPage&#45;&gt;TasksModule -->
<g id="edge8" class="edge">
<title>TaskListPage&#45;&gt;TasksModule</title>
<path fill="none" stroke="black" d="M606,-84.83C606,-101.86 606,-124.8 606,-124.8 606,-124.8 858.74,-124.8 858.74,-124.8"/>
<polygon fill="black" stroke="black" points="858.74,-128.3 868.74,-124.8 858.74,-121.3 858.74,-128.3"/>
</g>
<!-- TaskPriorityIconPipe -->
<g id="node9" class="node">
<title>TaskPriorityIconPipe</title>
<polygon fill="#ffffb3" stroke="black" points="541.76,-84.8 406.24,-84.8 406.24,-48.8 541.76,-48.8 541.76,-84.8"/>
<text text-anchor="middle" x="474" y="-62.6" font-family="Times,serif" font-size="14.00">TaskPriorityIconPipe</text>
</g>
<!-- TaskPriorityIconPipe&#45;&gt;TasksModule -->
<g id="edge9" class="edge">
<title>TaskPriorityIconPipe&#45;&gt;TasksModule</title>
<path fill="none" stroke="black" d="M474,-85.02C474,-103.63 474,-129.8 474,-129.8 474,-129.8 858.64,-129.8 858.64,-129.8"/>
<polygon fill="black" stroke="black" points="858.64,-133.3 868.64,-129.8 858.64,-126.3 858.64,-133.3"/>
</g>
<!-- TaskPriorityPipe -->
<g id="node10" class="node">
<title>TaskPriorityPipe</title>
<polygon fill="#ffffb3" stroke="black" points="388.38,-84.8 277.62,-84.8 277.62,-48.8 388.38,-48.8 388.38,-84.8"/>
<text text-anchor="middle" x="333" y="-62.6" font-family="Times,serif" font-size="14.00">TaskPriorityPipe</text>
</g>
<!-- TaskPriorityPipe&#45;&gt;TasksModule -->
<g id="edge10" class="edge">
<title>TaskPriorityPipe&#45;&gt;TasksModule</title>
<path fill="none" stroke="black" d="M333,-85.02C333,-105.17 333,-134.8 333,-134.8 333,-134.8 858.84,-134.8 858.84,-134.8"/>
<polygon fill="black" stroke="black" points="858.84,-138.3 868.84,-134.8 858.84,-131.3 858.84,-138.3"/>
</g>
<!-- TaskTypeIconPipe -->
<g id="node11" class="node">
<title>TaskTypeIconPipe</title>
<polygon fill="#ffffb3" stroke="black" points="259.75,-84.8 138.25,-84.8 138.25,-48.8 259.75,-48.8 259.75,-84.8"/>
<text text-anchor="middle" x="199" y="-62.6" font-family="Times,serif" font-size="14.00">TaskTypeIconPipe</text>
</g>
<!-- TaskTypeIconPipe&#45;&gt;TasksModule -->
<g id="edge11" class="edge">
<title>TaskTypeIconPipe&#45;&gt;TasksModule</title>
<path fill="none" stroke="black" d="M199,-84.84C199,-106.46 199,-139.8 199,-139.8 199,-139.8 858.85,-139.8 858.85,-139.8"/>
<polygon fill="black" stroke="black" points="858.85,-143.3 868.85,-139.8 858.85,-136.3 858.85,-143.3"/>
</g>
<!-- TaskTypePipe -->
<g id="node12" class="node">
<title>TaskTypePipe</title>
<polygon fill="#ffffb3" stroke="black" points="120.37,-84.8 23.63,-84.8 23.63,-48.8 120.37,-48.8 120.37,-84.8"/>
<text text-anchor="middle" x="72" y="-62.6" font-family="Times,serif" font-size="14.00">TaskTypePipe</text>
</g>
<!-- TaskTypePipe&#45;&gt;TasksModule -->
<g id="edge12" class="edge">
<title>TaskTypePipe&#45;&gt;TasksModule</title>
<path fill="none" stroke="black" d="M72,-84.89C72,-107.93 72,-144.8 72,-144.8 72,-144.8 858.78,-144.8 858.78,-144.8"/>
<polygon fill="black" stroke="black" points="858.78,-148.3 868.78,-144.8 858.78,-141.3 858.78,-148.3"/>
</g>
<!-- MainModule -->
<g id="node14" class="node">
<title>MainModule</title>
<polygon fill="#8dd3c7" stroke="black" points="1858.6,-84.8 1855.6,-88.8 1834.6,-88.8 1831.6,-84.8 1769.4,-84.8 1769.4,-48.8 1858.6,-48.8 1858.6,-84.8"/>
<text text-anchor="middle" x="1814" y="-62.6" font-family="Times,serif" font-size="14.00">MainModule</text>
</g>
<!-- MainModule&#45;&gt;TasksModule -->
<g id="edge13" class="edge">
<title>MainModule&#45;&gt;TasksModule</title>
<path fill="none" stroke="black" d="M1814,-84.89C1814,-107.93 1814,-144.8 1814,-144.8 1814,-144.8 971.13,-144.8 971.13,-144.8"/>
<polygon fill="black" stroke="black" points="971.13,-141.3 961.13,-144.8 971.13,-148.3 971.13,-141.3"/>
</g>
<!-- TasksRoutingModule -->
<g id="node15" class="node">
<title>TasksRoutingModule</title>
<polygon fill="#8dd3c7" stroke="black" points="1751.83,-84.8 1748.83,-88.8 1727.83,-88.8 1724.83,-84.8 1614.17,-84.8 1614.17,-48.8 1751.83,-48.8 1751.83,-84.8"/>
<text text-anchor="middle" x="1683" y="-62.6" font-family="Times,serif" font-size="14.00">TasksRoutingModule</text>
</g>
<!-- TasksRoutingModule&#45;&gt;TasksModule -->
<g id="edge14" class="edge">
<title>TasksRoutingModule&#45;&gt;TasksModule</title>
<path fill="none" stroke="black" d="M1683,-84.84C1683,-106.46 1683,-139.8 1683,-139.8 1683,-139.8 971.31,-139.8 971.31,-139.8"/>
<polygon fill="black" stroke="black" points="971.31,-136.3 961.31,-139.8 971.31,-143.3 971.31,-136.3"/>
</g>
</g>
</svg>
