<?xml version="1.0" encoding="UTF-8" standalone="no"?>
<!DOCTYPE svg PUBLIC "-//W3C//DTD SVG 1.1//EN"
 "http://www.w3.org/Graphics/SVG/1.1/DTD/svg11.dtd">
<!-- Generated by graphviz version 3.0.0 (20220226.1711)
 -->
<!-- Title: dependencies Pages: 1 -->
<svg width="216pt" height="174pt"
 viewBox="0.00 0.00 216.00 173.80" xmlns="http://www.w3.org/2000/svg" xmlns:xlink="http://www.w3.org/1999/xlink">
<g id="graph0" class="graph" transform="scale(1 1) rotate(0) translate(4 169.8)">
<title>dependencies</title>
<polygon fill="white" stroke="transparent" points="-4,4 -4,-169.8 212,-169.8 212,4 -4,4"/>
<text text-anchor="middle" x="104" y="-8.2" font-family="sans-serif" font-size="14.00">dependencies</text>
<g id="clust1" class="cluster">
<title>cluster_MessagesModule</title>
<polygon fill="none" stroke="black" stroke-dasharray="1,5" points="8,-32.8 8,-157.8 200,-157.8 200,-32.8 8,-32.8"/>
</g>
<g id="clust3" class="cluster">
<title>cluster_MessagesModule_imports</title>
<polygon fill="none" stroke="black" points="16,-40.8 16,-92.8 192,-92.8 192,-40.8 16,-40.8"/>
</g>
<!-- MessagesRoutingModule -->
<g id="node1" class="node">
<title>MessagesRoutingModule</title>
<polygon fill="#8dd3c7" stroke="black" points="183.6,-84.8 180.6,-88.8 159.6,-88.8 156.6,-84.8 24.4,-84.8 24.4,-48.8 183.6,-48.8 183.6,-84.8"/>
<text text-anchor="middle" x="104" y="-62.6" font-family="Times,serif" font-size="14.00">MessagesRoutingModule</text>
</g>
<!-- MessagesModule -->
<g id="node2" class="node">
<title>MessagesModule</title>
<polygon fill="#8dd3c7" stroke="black" points="160.99,-149.8 157.99,-153.8 136.99,-153.8 133.99,-149.8 47.01,-149.8 47.01,-113.8 160.99,-113.8 160.99,-149.8"/>
<text text-anchor="middle" x="104" y="-127.6" font-family="Times,serif" font-size="14.00">MessagesModule</text>
</g>
<!-- MessagesRoutingModule&#45;&gt;MessagesModule -->
<g id="edge1" class="edge">
<title>MessagesRoutingModule&#45;&gt;MessagesModule</title>
<path fill="none" stroke="black" d="M104,-84.91C104,-84.91 104,-103.79 104,-103.79"/>
<polygon fill="black" stroke="black" points="100.5,-103.79 104,-113.79 107.5,-103.79 100.5,-103.79"/>
</g>
</g>
</svg>
