<?xml version="1.0" encoding="UTF-8" standalone="no"?>
<!DOCTYPE svg PUBLIC "-//W3C//DTD SVG 1.1//EN"
 "http://www.w3.org/Graphics/SVG/1.1/DTD/svg11.dtd">
<!-- Generated by graphviz version 3.0.0 (20220226.1711)
 -->
<!-- Title: dependencies Pages: 1 -->
<svg width="422pt" height="247pt"
 viewBox="0.00 0.00 422.00 246.80" xmlns="http://www.w3.org/2000/svg" xmlns:xlink="http://www.w3.org/1999/xlink">
<g id="graph0" class="graph" transform="scale(1 1) rotate(0) translate(4 242.8)">
<title>dependencies</title>
<polygon fill="white" stroke="transparent" points="-4,4 -4,-242.8 418,-242.8 418,4 -4,4"/>
<text text-anchor="middle" x="207" y="-8.2" font-family="sans-serif" font-size="14.00">dependencies</text>
<g id="clust1" class="cluster">
<title>cluster_AppModule</title>
<polygon fill="none" stroke="black" stroke-dasharray="1,5" points="8,-32.8 8,-230.8 406,-230.8 406,-32.8 8,-32.8"/>
</g>
<g id="clust2" class="cluster">
<title>cluster_AppModule_declarations</title>
<polygon fill="none" stroke="black" points="276,-40.8 276,-92.8 398,-92.8 398,-40.8 276,-40.8"/>
</g>
<g id="clust4" class="cluster">
<title>cluster_AppModule_imports</title>
<polygon fill="none" stroke="black" points="16,-40.8 16,-92.8 268,-92.8 268,-40.8 16,-40.8"/>
</g>
<g id="clust6" class="cluster">
<title>cluster_AppModule_bootstrap</title>
<polygon fill="none" stroke="black" points="134,-170.8 134,-222.8 258,-222.8 258,-170.8 134,-170.8"/>
</g>
<!-- AppComponent -->
<g id="node1" class="node">
<title>AppComponent</title>
<polygon fill="#ffffb3" stroke="black" points="389.94,-84.8 284.06,-84.8 284.06,-48.8 389.94,-48.8 389.94,-84.8"/>
<text text-anchor="middle" x="337" y="-62.6" font-family="Times,serif" font-size="14.00">AppComponent</text>
</g>
<!-- AppModule -->
<g id="node2" class="node">
<title>AppModule</title>
<polygon fill="#8dd3c7" stroke="black" points="237.66,-149.8 234.66,-153.8 213.66,-153.8 210.66,-149.8 154.34,-149.8 154.34,-113.8 237.66,-113.8 237.66,-149.8"/>
<text text-anchor="middle" x="196" y="-127.6" font-family="Times,serif" font-size="14.00">AppModule</text>
</g>
<!-- AppComponent&#45;&gt;AppModule -->
<g id="edge1" class="edge">
<title>AppComponent&#45;&gt;AppModule</title>
<path fill="none" stroke="black" d="M337,-84.91C337,-104.14 337,-131.8 337,-131.8 337,-131.8 247.92,-131.8 247.92,-131.8"/>
<polygon fill="black" stroke="black" points="247.92,-128.3 237.92,-131.8 247.92,-135.3 247.92,-128.3"/>
</g>
<!-- AppComponent  -->
<g id="node5" class="node">
<title>AppComponent </title>
<polygon fill="#80b1d3" stroke="black" points="250.44,-214.8 141.56,-214.8 141.56,-178.8 250.44,-178.8 250.44,-214.8"/>
<text text-anchor="middle" x="196" y="-192.6" font-family="Times,serif" font-size="14.00">AppComponent </text>
</g>
<!-- AppModule&#45;&gt;AppComponent  -->
<g id="edge4" class="edge">
<title>AppModule&#45;&gt;AppComponent </title>
<path fill="none" stroke="black" stroke-dasharray="1,5" d="M196,-149.91C196,-149.91 196,-168.79 196,-168.79"/>
<polygon fill="black" stroke="black" points="192.5,-168.79 196,-178.79 199.5,-168.79 192.5,-168.79"/>
</g>
<!-- AppRoutingModule -->
<g id="node3" class="node">
<title>AppRoutingModule</title>
<polygon fill="#8dd3c7" stroke="black" points="260.28,-84.8 257.28,-88.8 236.28,-88.8 233.28,-84.8 131.72,-84.8 131.72,-48.8 260.28,-48.8 260.28,-84.8"/>
<text text-anchor="middle" x="196" y="-62.6" font-family="Times,serif" font-size="14.00">AppRoutingModule</text>
</g>
<!-- AppRoutingModule&#45;&gt;AppModule -->
<g id="edge2" class="edge">
<title>AppRoutingModule&#45;&gt;AppModule</title>
<path fill="none" stroke="black" d="M196,-84.91C196,-84.91 196,-103.79 196,-103.79"/>
<polygon fill="black" stroke="black" points="192.5,-103.79 196,-113.79 199.5,-103.79 192.5,-103.79"/>
</g>
<!-- MainModule -->
<g id="node4" class="node">
<title>MainModule</title>
<polygon fill="#8dd3c7" stroke="black" points="113.6,-84.8 110.6,-88.8 89.6,-88.8 86.6,-84.8 24.4,-84.8 24.4,-48.8 113.6,-48.8 113.6,-84.8"/>
<text text-anchor="middle" x="69" y="-62.6" font-family="Times,serif" font-size="14.00">MainModule</text>
</g>
<!-- MainModule&#45;&gt;AppModule -->
<g id="edge3" class="edge">
<title>MainModule&#45;&gt;AppModule</title>
<path fill="none" stroke="black" d="M69,-84.91C69,-104.14 69,-131.8 69,-131.8 69,-131.8 144.06,-131.8 144.06,-131.8"/>
<polygon fill="black" stroke="black" points="144.06,-135.3 154.06,-131.8 144.06,-128.3 144.06,-135.3"/>
</g>
</g>
</svg>
