<?xml version="1.0" encoding="UTF-8" standalone="no"?>
<!DOCTYPE svg PUBLIC "-//W3C//DTD SVG 1.1//EN"
 "http://www.w3.org/Graphics/SVG/1.1/DTD/svg11.dtd">
<!-- Generated by graphviz version 2.47.3 (20210619.1520)
 -->
<!-- Title: dependencies Pages: 1 -->
<svg width="595pt" height="247pt"
 viewBox="0.00 0.00 595.00 246.80" xmlns="http://www.w3.org/2000/svg" xmlns:xlink="http://www.w3.org/1999/xlink">
<g id="graph0" class="graph" transform="scale(1 1) rotate(0) translate(4 242.8)">
<title>dependencies</title>
<polygon fill="white" stroke="transparent" points="-4,4 -4,-242.8 591,-242.8 591,4 -4,4"/>
<text text-anchor="middle" x="293.5" y="-8.2" font-family="sans-serif" font-size="14.00">dependencies</text>
<g id="clust1" class="cluster">
<title>cluster_AppModule</title>
<polygon fill="none" stroke="black" stroke-dasharray="1,5" points="8,-32.8 8,-230.8 579,-230.8 579,-32.8 8,-32.8"/>
</g>
<g id="clust2" class="cluster">
<title>cluster_AppModule_declarations</title>
<polygon fill="none" stroke="black" points="276,-40.8 276,-92.8 571,-92.8 571,-40.8 276,-40.8"/>
</g>
<g id="clust5" class="cluster">
<title>cluster_AppModule_imports</title>
<polygon fill="none" stroke="black" points="16,-40.8 16,-92.8 268,-92.8 268,-40.8 16,-40.8"/>
</g>
<g id="clust7" class="cluster">
<title>cluster_AppModule_bootstrap</title>
<polygon fill="none" stroke="black" points="217,-170.8 217,-222.8 341,-222.8 341,-170.8 217,-170.8"/>
</g>
<!-- AppComponent -->
<g id="node1" class="node">
<title>AppComponent</title>
<polygon fill="#ffffb3" stroke="black" points="562.94,-84.8 457.06,-84.8 457.06,-48.8 562.94,-48.8 562.94,-84.8"/>
<text text-anchor="middle" x="510" y="-62.6" font-family="Times,serif" font-size="14.00">AppComponent</text>
</g>
<!-- AppModule -->
<g id="node3" class="node">
<title>AppModule</title>
<polygon fill="#8dd3c7" stroke="black" points="320.66,-149.8 317.66,-153.8 296.66,-153.8 293.66,-149.8 237.34,-149.8 237.34,-113.8 320.66,-113.8 320.66,-149.8"/>
<text text-anchor="middle" x="279" y="-127.6" font-family="Times,serif" font-size="14.00">AppModule</text>
</g>
<!-- AppComponent&#45;&gt;AppModule -->
<g id="edge1" class="edge">
<title>AppComponent&#45;&gt;AppModule</title>
<path fill="none" stroke="black" d="M510,-84.91C510,-104.14 510,-131.8 510,-131.8 510,-131.8 330.83,-131.8 330.83,-131.8"/>
<polygon fill="black" stroke="black" points="330.83,-128.3 320.83,-131.8 330.83,-135.3 330.83,-128.3"/>
</g>
<!-- LandingPageComponent -->
<g id="node2" class="node">
<title>LandingPageComponent</title>
<polygon fill="#ffffb3" stroke="black" points="439.7,-84.8 284.3,-84.8 284.3,-48.8 439.7,-48.8 439.7,-84.8"/>
<text text-anchor="middle" x="362" y="-62.6" font-family="Times,serif" font-size="14.00">LandingPageComponent</text>
</g>
<!-- LandingPageComponent&#45;&gt;AppModule -->
<g id="edge2" class="edge">
<title>LandingPageComponent&#45;&gt;AppModule</title>
<path fill="none" stroke="black" d="M302.61,-84.91C302.61,-84.91 302.61,-103.79 302.61,-103.79"/>
<polygon fill="black" stroke="black" points="299.11,-103.79 302.61,-113.79 306.11,-103.79 299.11,-103.79"/>
</g>
<!-- AppComponent  -->
<g id="node6" class="node">
<title>AppComponent </title>
<polygon fill="#80b1d3" stroke="black" points="333.44,-214.8 224.56,-214.8 224.56,-178.8 333.44,-178.8 333.44,-214.8"/>
<text text-anchor="middle" x="279" y="-192.6" font-family="Times,serif" font-size="14.00">AppComponent </text>
</g>
<!-- AppModule&#45;&gt;AppComponent  -->
<g id="edge5" class="edge">
<title>AppModule&#45;&gt;AppComponent </title>
<path fill="none" stroke="black" stroke-dasharray="1,5" d="M279,-149.91C279,-149.91 279,-168.79 279,-168.79"/>
<polygon fill="black" stroke="black" points="275.5,-168.79 279,-178.79 282.5,-168.79 275.5,-168.79"/>
</g>
<!-- AppRoutingModule -->
<g id="node4" class="node">
<title>AppRoutingModule</title>
<polygon fill="#8dd3c7" stroke="black" points="260.27,-84.8 257.27,-88.8 236.27,-88.8 233.27,-84.8 131.73,-84.8 131.73,-48.8 260.27,-48.8 260.27,-84.8"/>
<text text-anchor="middle" x="196" y="-62.6" font-family="Times,serif" font-size="14.00">AppRoutingModule</text>
</g>
<!-- AppRoutingModule&#45;&gt;AppModule -->
<g id="edge3" class="edge">
<title>AppRoutingModule&#45;&gt;AppModule</title>
<path fill="none" stroke="black" d="M248.78,-84.91C248.78,-84.91 248.78,-103.79 248.78,-103.79"/>
<polygon fill="black" stroke="black" points="245.28,-103.79 248.78,-113.79 252.28,-103.79 245.28,-103.79"/>
</g>
<!-- MainModule -->
<g id="node5" class="node">
<title>MainModule</title>
<polygon fill="#8dd3c7" stroke="black" points="113.6,-84.8 110.6,-88.8 89.6,-88.8 86.6,-84.8 24.4,-84.8 24.4,-48.8 113.6,-48.8 113.6,-84.8"/>
<text text-anchor="middle" x="69" y="-62.6" font-family="Times,serif" font-size="14.00">MainModule</text>
</g>
<!-- MainModule&#45;&gt;AppModule -->
<g id="edge4" class="edge">
<title>MainModule&#45;&gt;AppModule</title>
<path fill="none" stroke="black" d="M69,-84.91C69,-104.14 69,-131.8 69,-131.8 69,-131.8 227.26,-131.8 227.26,-131.8"/>
<polygon fill="black" stroke="black" points="227.26,-135.3 237.26,-131.8 227.26,-128.3 227.26,-135.3"/>
</g>
</g>
</svg>
