<?xml version="1.0" encoding="UTF-8" standalone="no"?>
<!DOCTYPE svg PUBLIC "-//W3C//DTD SVG 1.1//EN"
 "http://www.w3.org/Graphics/SVG/1.1/DTD/svg11.dtd">
<!-- Generated by graphviz version 3.0.0 (20220226.1711)
 -->
<!-- Title: dependencies Pages: 1 -->
<svg width="1111pt" height="174pt"
 viewBox="0.00 0.00 1111.00 173.80" xmlns="http://www.w3.org/2000/svg" xmlns:xlink="http://www.w3.org/1999/xlink">
<g id="graph0" class="graph" transform="scale(1 1) rotate(0) translate(4 169.8)">
<title>dependencies</title>
<polygon fill="white" stroke="transparent" points="-4,4 -4,-169.8 1107,-169.8 1107,4 -4,4"/>
<text text-anchor="middle" x="551.5" y="-8.2" font-family="sans-serif" font-size="14.00">dependencies</text>
<g id="clust1" class="cluster">
<title>cluster_AuthModule</title>
<polygon fill="none" stroke="black" stroke-dasharray="1,5" points="8,-32.8 8,-157.8 1095,-157.8 1095,-32.8 8,-32.8"/>
</g>
<g id="clust9" class="cluster">
<title>cluster_AuthModule_imports</title>
<polygon fill="none" stroke="black" points="831,-40.8 831,-92.8 1087,-92.8 1087,-40.8 831,-40.8"/>
</g>
<g id="clust2" class="cluster">
<title>cluster_AuthModule_declarations</title>
<polygon fill="none" stroke="black" points="16,-40.8 16,-92.8 823,-92.8 823,-40.8 16,-40.8"/>
</g>
<!-- ChangePasswordPage -->
<g id="node1" class="node">
<title>ChangePasswordPage</title>
<polygon fill="#ffffb3" stroke="black" points="814.65,-84.8 675.35,-84.8 675.35,-48.8 814.65,-48.8 814.65,-84.8"/>
<text text-anchor="middle" x="745" y="-62.6" font-family="Times,serif" font-size="14.00">ChangePasswordPage</text>
</g>
<!-- AuthModule -->
<g id="node7" class="node">
<title>AuthModule</title>
<polygon fill="#8dd3c7" stroke="black" points="562.55,-149.8 559.55,-153.8 538.55,-153.8 535.55,-149.8 475.45,-149.8 475.45,-113.8 562.55,-113.8 562.55,-149.8"/>
<text text-anchor="middle" x="519" y="-127.6" font-family="Times,serif" font-size="14.00">AuthModule</text>
</g>
<!-- ChangePasswordPage&#45;&gt;AuthModule -->
<g id="edge1" class="edge">
<title>ChangePasswordPage&#45;&gt;AuthModule</title>
<path fill="none" stroke="black" d="M745,-84.83C745,-101.2 745,-122.8 745,-122.8 745,-122.8 572.58,-122.8 572.58,-122.8"/>
<polygon fill="black" stroke="black" points="572.58,-119.3 562.58,-122.8 572.58,-126.3 572.58,-119.3"/>
</g>
<!-- DeleteAccountPage -->
<g id="node2" class="node">
<title>DeleteAccountPage</title>
<polygon fill="#ffffb3" stroke="black" points="657.67,-84.8 530.33,-84.8 530.33,-48.8 657.67,-48.8 657.67,-84.8"/>
<text text-anchor="middle" x="594" y="-62.6" font-family="Times,serif" font-size="14.00">DeleteAccountPage</text>
</g>
<!-- DeleteAccountPage&#45;&gt;AuthModule -->
<g id="edge2" class="edge">
<title>DeleteAccountPage&#45;&gt;AuthModule</title>
<path fill="none" stroke="black" d="M546.59,-84.91C546.59,-84.91 546.59,-103.79 546.59,-103.79"/>
<polygon fill="black" stroke="black" points="543.09,-103.79 546.59,-113.79 550.09,-103.79 543.09,-103.79"/>
</g>
<!-- ForgotPasswordPage -->
<g id="node3" class="node">
<title>ForgotPasswordPage</title>
<polygon fill="#ffffb3" stroke="black" points="512.22,-84.8 377.78,-84.8 377.78,-48.8 512.22,-48.8 512.22,-84.8"/>
<text text-anchor="middle" x="445" y="-62.6" font-family="Times,serif" font-size="14.00">ForgotPasswordPage</text>
</g>
<!-- ForgotPasswordPage&#45;&gt;AuthModule -->
<g id="edge3" class="edge">
<title>ForgotPasswordPage&#45;&gt;AuthModule</title>
<path fill="none" stroke="black" d="M493.67,-84.91C493.67,-84.91 493.67,-103.79 493.67,-103.79"/>
<polygon fill="black" stroke="black" points="490.17,-103.79 493.67,-113.79 497.17,-103.79 490.17,-103.79"/>
</g>
<!-- LoginPage -->
<g id="node4" class="node">
<title>LoginPage</title>
<polygon fill="#ffffb3" stroke="black" points="360.16,-84.8 283.84,-84.8 283.84,-48.8 360.16,-48.8 360.16,-84.8"/>
<text text-anchor="middle" x="322" y="-62.6" font-family="Times,serif" font-size="14.00">LoginPage</text>
</g>
<!-- LoginPage&#45;&gt;AuthModule -->
<g id="edge4" class="edge">
<title>LoginPage&#45;&gt;AuthModule</title>
<path fill="none" stroke="black" d="M322,-84.83C322,-101.2 322,-122.8 322,-122.8 322,-122.8 465.28,-122.8 465.28,-122.8"/>
<polygon fill="black" stroke="black" points="465.28,-126.3 475.28,-122.8 465.28,-119.3 465.28,-126.3"/>
</g>
<!-- RegisterPage -->
<g id="node5" class="node">
<title>RegisterPage</title>
<polygon fill="#ffffb3" stroke="black" points="265.87,-84.8 176.13,-84.8 176.13,-48.8 265.87,-48.8 265.87,-84.8"/>
<text text-anchor="middle" x="221" y="-62.6" font-family="Times,serif" font-size="14.00">RegisterPage</text>
</g>
<!-- RegisterPage&#45;&gt;AuthModule -->
<g id="edge5" class="edge">
<title>RegisterPage&#45;&gt;AuthModule</title>
<path fill="none" stroke="black" d="M221,-84.91C221,-104.14 221,-131.8 221,-131.8 221,-131.8 465.35,-131.8 465.35,-131.8"/>
<polygon fill="black" stroke="black" points="465.35,-135.3 475.35,-131.8 465.35,-128.3 465.35,-135.3"/>
</g>
<!-- RestoreAccountPage -->
<g id="node6" class="node">
<title>RestoreAccountPage</title>
<polygon fill="#ffffb3" stroke="black" points="157.91,-84.8 24.09,-84.8 24.09,-48.8 157.91,-48.8 157.91,-84.8"/>
<text text-anchor="middle" x="91" y="-62.6" font-family="Times,serif" font-size="14.00">RestoreAccountPage</text>
</g>
<!-- RestoreAccountPage&#45;&gt;AuthModule -->
<g id="edge6" class="edge">
<title>RestoreAccountPage&#45;&gt;AuthModule</title>
<path fill="none" stroke="black" d="M91,-85.09C91,-107.01 91,-140.8 91,-140.8 91,-140.8 465.21,-140.8 465.21,-140.8"/>
<polygon fill="black" stroke="black" points="465.21,-144.3 475.21,-140.8 465.21,-137.3 465.21,-144.3"/>
</g>
<!-- AuthRoutingModule -->
<g id="node8" class="node">
<title>AuthRoutingModule</title>
<polygon fill="#8dd3c7" stroke="black" points="1079.17,-84.8 1076.17,-88.8 1055.17,-88.8 1052.17,-84.8 946.83,-84.8 946.83,-48.8 1079.17,-48.8 1079.17,-84.8"/>
<text text-anchor="middle" x="1013" y="-62.6" font-family="Times,serif" font-size="14.00">AuthRoutingModule</text>
</g>
<!-- AuthRoutingModule&#45;&gt;AuthModule -->
<g id="edge7" class="edge">
<title>AuthRoutingModule&#45;&gt;AuthModule</title>
<path fill="none" stroke="black" d="M1013,-85.09C1013,-107.01 1013,-140.8 1013,-140.8 1013,-140.8 572.84,-140.8 572.84,-140.8"/>
<polygon fill="black" stroke="black" points="572.84,-137.3 562.84,-140.8 572.84,-144.3 572.84,-137.3"/>
</g>
<!-- MainModule -->
<g id="node9" class="node">
<title>MainModule</title>
<polygon fill="#8dd3c7" stroke="black" points="928.6,-84.8 925.6,-88.8 904.6,-88.8 901.6,-84.8 839.4,-84.8 839.4,-48.8 928.6,-48.8 928.6,-84.8"/>
<text text-anchor="middle" x="884" y="-62.6" font-family="Times,serif" font-size="14.00">MainModule</text>
</g>
<!-- MainModule&#45;&gt;AuthModule -->
<g id="edge8" class="edge">
<title>MainModule&#45;&gt;AuthModule</title>
<path fill="none" stroke="black" d="M884,-84.91C884,-104.14 884,-131.8 884,-131.8 884,-131.8 572.66,-131.8 572.66,-131.8"/>
<polygon fill="black" stroke="black" points="572.67,-128.3 562.66,-131.8 572.66,-135.3 572.67,-128.3"/>
</g>
</g>
</svg>
